<svg xmlns="http://www.w3.org/2000/svg" viewBox="0 0 22 22">
  <defs>
    <style type="text/css">
      .symbol { fill: #EF9A9A /* Red 200 */ }
    </style>
  </defs>
  <g class="symbol" transform="translate(-1,-1)">
    <path d="m 10.81,18 q -0.25,-0.74 -0.52,-1.46 -0.27,-0.72 -0.522,-1.47 h -5.256 q -0.252,0.75 -0.522,1.49 -0.252,0.72 -0.504,1.44 h -2.358 q 0.702,-2 1.332,-3.69 0.63,-1.69 1.224,-3.2 0.612,-1.516 1.206,-2.884 0.594,-1.368 1.224,-2.7 h 2.142 q 0.63,1.332 1.224,2.7 0.59,1.368 1.19,2.884 0.61,1.51 1.24,3.2 0.65,1.69 1.35,3.69 z m -3.67,-10.062 q -0.414,0.954 -0.954,2.322 -0.522,1.37 -1.098,2.97 h 4.104 q -0.576,-1.6 -1.116,-2.99 -0.54,-1.384 -0.936,-2.302 z"/>
    <path d="m 18.05,16.47 q 1.01,0 1.53,-0.11 v -2.41 q -0.18,-0 -0.52,-0.11 -0.35,-0.1 -0.76,-0.1 -0.36,0 -0.74,0.1 -0.36,0.1 -0.66,0.2 -0.29,0.14 -0.47,0.41 -0.18,0.26 -0.18,0.65 0,0.78 0.48,1.08 0.49,0.29 1.32,0.29 z m -0.18,-8.118 q 1.08,0 1.82,0.27 0.73,0.27 1.17,0.756 0.45,0.486 0.63,1.192 0.19,0.68 0.19,1.51 v 5.7 q -0.5,0.11 -1.53,0.26 -1,0.16 -2.28,0.16 -0.85,0 -1.55,-0.16 -0.7,-0.17 -1.21,-0.53 -0.48,-0.36 -0.77,-0.93 -0.27,-0.58 -0.27,-1.42 0,-0.81 0.31,-1.37 0.32,-0.56 0.86,-0.9 0.54,-0.36 1.24,-0.51 0.72,-0.16 1.5,-0.16 0.36,0 0.75,0.1 0.4,0 0.85,0.14 v -0.36 q 0,-0.38 -0.1,-0.72 -0.1,-0.34 -0.33,-0.59 -0.21,-0.27 -0.59,-0.42 -0.36,-0.14 -0.92,-0.14 -0.75,0 -1.38,0.11 -0.63,0.1 -1.03,0.25 l -0.27,-1.766 q 0.41,-0.144 1.21,-0.288 0.79,-0.144 1.69,-0.144 z"/>
  </g>
</svg>
