<svg xmlns="http://www.w3.org/2000/svg" width="192" height="192" viewBox="0 0 48 48">
  <defs>
    <style id="current-color-scheme" type="text/css">
      .ColorScheme-Text { color: #808080 }
    </style>
  </defs>
  <g class="ColorScheme-Text" style="fill:currentColor">
    <!-- Toggle off -->
    <path d="m 16,4 a 8,8 0 0 0 0,16 h 16 a 8,8 0 0 0 0,-16 z m 0,2 h 16 a 6,6 0 0 1 0,12 h -16 a 6,6 0 0 1 0,-12 z"/>
    <circle cx="16" cy="12" r="5"/>

    <!-- Toggle on -->
    <path d="m 16,28 a 8,8 0 0 0 0,16 h 16 a 8,8 0 0 0 0,-16 z m 16,2 a 6,6 0 0 1 0,12 a 6,6 0 0 1 0,-12 z"/>
  </g>
</svg>
