<svg xmlns="http://www.w3.org/2000/svg" viewBox="0 0 48 48">
  <defs>
    <linearGradient id="screwdriver-handle" x1="0%" y1="0%" x2="0%" y2="100%">
      <stop offset="0%" style="stop-color:#BDBDBD"/> <!-- Gray 400  -->
      <stop offset="100%" style="stop-color:#757575"/> <!-- Gray 600  -->
    </linearGradient>
    <linearGradient id="screwdriver" x1="0%" y1="0%" x2="0%" y2="100%">
      <stop offset="50%" style="stop-color:#EEEEEE"/> <!-- Gray 200 -->
      <stop offset="100%" style="stop-color:#BDBDBD"/> <!-- Gray 400 -->
    </linearGradient>
    <linearGradient id="wrench" x1="0%" y1="0%" x2="0%" y2="100%">
      <stop offset="0%" style="stop-color:#E0E0E0"/> <!-- Gray 300 -->
      <stop offset="100%" style="stop-color:#9E9E9E"/> <!-- Gray 500 -->
    </linearGradient>
  </defs>
  <g transform="rotate(45,24,24)">
    <!-- Wrench -->
    <path style="fill:url(#wrench)"
          d="M 20,31 v 13 a 4,4 0 0 0 8,0 v -17 h -2 a 4,4 0 0 1 -4,4 z
             m 4,10 a 2,2 0 0 1 0,4 a 2,2 0 0 1 0,-4
             M 20,17 h 2 a 4,4 0 0 1 4,4 h 2 v -7.5
             c 0.5,-0.25 3,-1 4,-3 c 0.5,-1 0.5,-3 0,-4 l -3,-6
             c -0.16,-0.32 -0.45,-0.5 -1,-0.5 c -0.55,0 -1,0.45 -1,1
             v 6 a 4,4 0 0 1 -6,0 v -6
             c 0,-0.55 -0.45,-1 -1,-1 c -0.55,0 -0.84,0.18 -1,0.5 l -3,6
             c -0.5,1 -0.5,3 0,4 c 1,2 3.5,2.75 4,3"/>

    <!-- Screwdriver -->
    <path style="fill:url(#screwdriver-handle)"
          d="m 2,19 a 2,2 0 0 0 -2,2 v 6 a 2,2 0 0 0 2,2 h 12 a 4,4 0 0 1 6,0 h 2 a 2,2 0 0 0 2,-2
             v -6 a 2,2 0 0 0 -2,-2 h -2 a 4,4 0 0 1 -6,0"/>
    <path style="fill:url(#screwdriver)"
          d="m 25,25 v -2 h 11 c 1.5,0 3,0 6,-1.5 l 6,0.5 v 4 l -6,0.5 c -3,-1.5 -4.5,-1.5 -6,-1.5"/>
  </g>
</svg>
