<svg xmlns="http://www.w3.org/2000/svg" viewBox="0 0 48 48">
  <defs>
    <linearGradient id="background" x1="0%" y1="0%" x2="0%" y2="100%">
      <stop offset="0%" style="stop-color:#616161;stop-opacity:0.75"/> <!-- Gray 700 -->
      <stop offset="100%" style="stop-color:#424242;stop-opacity:0.75"/> <!-- Gray 800 -->
    </linearGradient>
    <linearGradient id="border" x1="0%" y1="0%" x2="0%" y2="100%">
      <stop offset="0%" style="stop-color:#E0E0E0"/> <!-- Gray 300 -->
      <stop offset="100%" style="stop-color:#BDBDBD"/> <!-- Gray 400 -->
    </linearGradient>
  </defs>
  <path style="fill:url(#background)" d="m 10,6 h 13 l 15,15 v 21 h -28"/>
  <path style="fill:url(#border)"
        d="M 10,4 a 2,2 0 0 0 -2,2 v 36 a 2,2 0 0 0 2,2 h 28 a 2,2 0 0 0 2,-2 v -22 l -16,-16 z
           m 0,2 h 13 l 15,15 v 21 h -28
           M 28,4 h 10 a 2,2 0 0 1 2,2 v 10"/>
</svg>
