<svg xmlns="http://www.w3.org/2000/svg" viewBox="0 0 22 22">
  <defs>
    <style id="current-color-scheme" type="text/css">
      .ColorScheme-Text { color: #D8D8D8 }
    </style>
  </defs>
  <g class="ColorScheme-Text" style="fill:currentColor" transform="translate(-1,-1)">
    <path d="m 3,1 a 1,1 0 0 0 -1,1 v 8 a 1,1 0 0 0 1,1 h 6 a 1,1 0 0 0 1,-1 v -5 h -2 a 2,2 0 0 1 -2,-2 v -2 m 1,0 l 3,3 h -2 a 1,1 0 0 1 -1,-1"/>
    <path d="m 3,13 a 1,1 0 0 0 -1,1 v 8 a 1,1 0 0 0 1,1 h 6 a 1,1 0 0 0 1,-1 v -5 h -2 a 2,2 0 0 1 -2,-2 v -2 m 1,0 l 3,3 h -2 a 1,1 0 0 1 -1,-1"/>
    <path d="m 15,1 a 1,1 0 0 0 -1,1 v 8 a 1,1 0 0 0 1,1 h 6 a 1,1 0 0 0 1,-1 v -5 h -2 a 2,2 0 0 1 -2,-2 v -2 m 1,0 l 3,3 h -2 a 1,1 0 0 1 -1,-1"/>
    <path d="m 15,13 a 1,1 0 0 0 -1,1 v 8 a 1,1 0 0 0 1,1 h 6 a 1,1 0 0 0 1,-1 v -5 h -2 a 2,2 0 0 1 -2,-2 v -2 m 1,0 l 3,3 h -2 a 1,1 0 0 1 -1,-1"/>
  </g>
</svg>
