<svg xmlns="http://www.w3.org/2000/svg" viewBox="0 0 48 48">
  <defs>
    <linearGradient id="background" x1="0" y1="0%" x2="0" y2="100%">
      <stop offset="0%" style="stop-color:#2196F3"/> <!-- Blue 500 -->
      <stop offset="100%" style="stop-color:#1976D2"/> <!-- Blue 700 -->
    </linearGradient>
    <linearGradient id="border" x1="0" y1="0%" x2="0" y2="100%">
      <stop offset="0%" style="stop-color:#BBDEFB"/> <!-- Blue 100 -->
      <stop offset="100%" style="stop-color:#64B5F6"/> <!-- Blue 300 -->
    </linearGradient>    
    <style type="text/css">
      .symbol { fill: white }
    </style>
  </defs>

  <!-- Background and border -->
  <g transform="translate(24,24)">
    <circle style="fill:url(#background)" r="22"/>
    <path style="fill:url(#border)" d="m -22,0 a 22,22 0 0 0 44,0 a 22,22 0 0 0 -44,0 m 2,0 a 20,20 0 0 1 40,0 a 20,20 0 0 1 -40,0"/>
  </g>

  <!-- Symbol -->
  <path class="symbol" transform="scale(2)"
        d="M 11.97 4.5 C 12.85 4.5 13.63 4.68 14.32 5.025 C 15.01 5.37 15.51 5.85 15.9 6.465 C 16.27 7.08 16.47 7.74 16.47 8.49 C 16.47 9.225 16.3 9.84 16 10.37 L 16.01 10.32 C 15.69 10.85 15.29 11.39 14.67 11.96 C 14.19 12.41 13.88 12.79 13.7 13.11 C 13.55 13.39 13.46 13.84 13.46 14.14 L 13.46 14.29 C 13.46 14.7 13.1 15 12.69 15 L 11.42 15 C 11 15 10.67 14.67 10.67 14.25 L 10.67 14.01 C 10.67 13.33 10.82 12.75 11.1 12.27 C 11.39 11.77 11.88 11.22 12.6 10.59 C 13.02 10.21 13.32 9.885 13.52 9.6 C 13.71 9.315 13.8 9.001 13.8 8.641 C 13.8 8.206 13.64 7.829 13.32 7.529 C 12.99 7.229 12.57 7.08 12.05 7.08 C 11.49 7.08 10.94 7.229 10.61 7.529 C 10.43 7.709 10.29 7.875 10.17 8.1 C 10.17 8.205 10.02 8.415 10.02 8.49 C 9.873 8.745 9.663 9 9.318 9 L 8.283 9 C 7.893 9 7.578 8.714 7.533 8.324 C 7.533 8.204 7.533 8.085 7.57 7.965 C 7.84 6.885 8.352 6.226 8.922 5.686 C 9.762 4.936 10.84 4.5 11.97 4.5 z M 12 16.5 A 1.5 1.5 0 0 1 12 19.5 A 1.5 1.5 0 0 1 12 16.5 z"/>
</svg>
