<svg xmlns="http://www.w3.org/2000/svg" viewBox="0 0 48 48">
  <defs>
    <linearGradient id="pins" x1="0%" y1="0%" x2="0%" y2="100%">
      <stop offset="0%" style="stop-color:#BDBDBD"/> <!-- Gray 400 -->
      <stop offset="100%" style="stop-color:#9E9E9E"/> <!-- Gray 500 -->
    </linearGradient>
    <linearGradient id="chip-surface" x1="0%" y1="0%" x2="0%" y2="100%">
      <stop offset="0%" style="stop-color:#757575"/> <!-- Gray 600 -->
      <stop offset="100%" style="stop-color:#616161"/> <!-- Gray 700 -->
    </linearGradient>
    <linearGradient id="chip-border" x1="0%" y1="0%" x2="0%" y2="100%">
      <stop offset="0%" style="stop-color:#9E9E9E"/> <!-- Gray 500 -->
      <stop offset="100%" style="stop-color:#757575"/> <!-- Gray 600 -->
    </linearGradient>
    <style type="text/css">
      .lighten { fill: white; fill-opacity: 0.125 }
      .darken { fill: black; fill-opacity: 0.125 }
    </style>
  </defs>

  <!-- Pins -->
  <path style="fill:url(#pins)"
        d="M 13,3 a 1,1 0 0 0 -2,0 v 3 h 2 M 19,3 a 1,1 0 0 0 -2,0 v 3 h 2 M 25,3 a 1,1 0 0 0 -2,0 v 3 h 2 M 31,3 a 1,1 0 0 0 -2,0 v 3 h 2 M 37,3 a 1,1 0 0 0 -2,0 v 3 h 2
           M 3,11 a 1,1 0 0 0 0,2 h 3 v -2 M 3,17 a 1,1 0 0 0 0,2 h 3 v -2 M 3,23 a 1,1 0 0 0 0,2 h 3 v -2 M 3,29 a 1,1 0 0 0 0,2 h 3 v -2 M 3,35 a 1,1 0 0 0 0,2 h 3 v -2
           M 42,11 v 2 h 3 a 1,1 0 0 0 0,-2 M 42,17 v 2 h 3 a 1,1 0 0 0 0,-2 M 42,23 v 2 h 3 a 1,1 0 0 0 0,-2 M 42,29 v 2 h 3 a 1,1 0 0 0 0,-2 M 42,35 v 2 h 3 a 1,1 0 0 0 0,-2
           M 11,42 v 3 a 1,1 0 0 0 2,0 v -3 M 17,42 v 3 a 1,1 0 0 0 2,0 v -3 M 23,42 v 3 a 1,1 0 0 0 2,0 v -3 M 29,42 v 3 a 1,1 0 0 0 2,0 v -3 M 35,42 v 3 a 1,1 0 0 0 2,0 v -3 "/>

  <!-- Chip -->
  <path style="fill:url(#chip-surface)"
        d="m 8,6 a 2,2 0 0 0 -2,2 v 32 a 2,2 0 0 0 2,2 h 32 a 2,2 0 0 0 2,-2 v -32 a 2,2 0 0 0 -2,-2"/>
  <path style="fill:url(#chip-border)"
        d="m 8,6 a 2,2 0 0 0 -2,2 v 32 a 2,2 0 0 0 2,2 h 32 a 2,2 0 0 0 2,-2 v -32 a 2,2 0 0 0 -2,-2 z
           m -1,2 a 1,1 0 0 1 1,-1 h 32 a 1,1 0 0 1 1,1 v 32 a 1,1 0 0 1 -1,1 h -32 a 1,1 0 0 1 -1,-1"/>
  <path class="lighten" d="m 8,6 a 2,2 0 0 0 -2,2 a 2,1 0 0 1 2,-1 h 32 a 2,1 0 0 1 2,1 a 2,2 0 0 0 -2,-2"/>
  <path class="darken" d="m 8,41 a 2,1 0 0 1 -2,-1 a 2,2 0 0 0 2,2 h 32 a 2,2 0 0 0 2,-2 a 2,1 0 0 1 -2,1"/>

  <!-- Info icon -->
  <g style="fill:#E0E0E0">
    <path d="m 24,13 a 11,11 0 0 0 0,22 a 11,11 0 0 0 0,-22 m 0,2 a 9,9 0 0 1 0,18 a 9,9 0 0 1 0,-18"/>
    <path d="m 24,17.75 a 1.5,1.5 0 0 1 0,3 a 1.5,1.5 0 0 1 0,-3"/>
    <path d="m 22.5,24.25 a 1.5,1.5 0 0 1 3,0 v 4.5 a 1.5,1.5 0 0 1 -3,0"/>
  </g>
</svg>
