<svg xmlns="http://www.w3.org/2000/svg" viewBox="0 0 48 48">
  <defs>
    <linearGradient id="surface" x1="0%" y1="0%" x2="0%" y2="100%">
      <stop offset="0%" style="stop-color:#E0E0E0"/> <!-- Gray 300 -->
      <stop offset="100%" style="stop-color:#9E9E9E"/> <!-- Gray 500 -->
    </linearGradient>
    <linearGradient id="key" x1="0%" y1="0%" x2="0%" y2="100%">
      <stop offset="0%" style="stop-color:#3D3D3D"/> <!-- Lighten 12.5% -->
      <stop offset="25%" style="stop-color:#3D3D3D"/>
      <stop offset="25%" style="stop-color:#212121"/> <!-- Gray 900 -->
      <stop offset="75%" style="stop-color:#212121"/>
      <stop offset="75%" style="stop-color:#1D1D1D"/> <!-- Darken 12.5% -->
      <stop offset="100%" style="stop-color:#1D1D1D"/>
    </linearGradient>
    <style type="text/css">
      .lighten { fill: white; fill-opacity: 0.125 }
      .darken { fill: black; fill-opacity: 0.125 }
    </style>
  </defs>
  <g transform="translate(3,9)">
    <!-- Surface -->
    <path style="fill:url(#surface)" d="M 2,0 a 2,2 0 0 0 -2,2 v 26 a 2,2 0 0 0 2,2 h 38 a 2,2 0 0 0 2,-2 v -26 a 2,2 0 0 0 -2,-2 z"/>
    <path class="lighten" d="m 2,0 a 2,2 0 0 0 -2,2 a 2,1 0 0 1 2,-1 h 38 a 2,1 0 0 1 2,1 a 2,2 0 0 0 -2,-2"/>
    <path class="darken" d="m 2,29 a 2,1 0 0 1 -2,-1 a 2,2 0 0 0 2,2 h 38 a 2,2 0 0 0 2,-2 a 2,1 0 0 1 -2,1"/>

    <!-- Keys -->
    <g style="fill:url(#key)">
      <path d="M 4,4 l 4 0 0 4 -4 0 z m 6,0 l 4 0 0 4 -4 0 0 -4 m 6,0 l 4 0 0 4 -4 0 0 -4 m 6,0 l 4 0 0 4 -4 0 0 -4 m 6,0 l 4 0 0 4 -4 0 0 -4 m 6,0 l 4 0 0 4 -4 0 0 -4"/>
      <path d="M 4,10 l 4 0 0 4 -4 0 z m 6,0 l 4 0 0 4 -4 0 0 -4 m 6,0 l 4 0 0 4 -4 0 0 -4 m 6,0 l 4 0 0 4 -4 0 0 -4 m 6,0 l 4 0 0 4 -4 0 0 -4 m 6,0 l 4 0 0 4 -4 0 0 -4"/>
      <path d="M 4,16 l 4 0 0 4 -4 0 z m 6,0 l 4 0 0 4 -4 0 0 -4 m 6,0 l 4 0 0 4 -4 0 0 -4 m 6,0 l 4 0 0 4 -4 0 0 -4 m 6,0 l 4 0 0 4 -4 0 0 -4 m 6,0 l 4 0 0 4 -4 0 0 -4"/>
      <path d="M 10,22 l 22 0 0 4 -22 0"/>
    </g>
  </g>
</svg>
