<svg xmlns="http://www.w3.org/2000/svg" viewBox="0 0 48 48">
  <defs>
    <linearGradient id="background" x1="0" y1="0%" x2="0" y2="100%">
      <stop offset="0%" style="stop-color:#2196F3"/> <!-- Blue 500 -->
      <stop offset="100%" style="stop-color:#1976D2"/> <!-- Blue 700 -->
    </linearGradient>
    <linearGradient id="border" x1="0" y1="0%" x2="0" y2="100%">
      <stop offset="0%" style="stop-color:#BBDEFB"/> <!-- Blue 100 -->
      <stop offset="100%" style="stop-color:#64B5F6"/> <!-- Blue 300 -->
    </linearGradient>
    <style type="text/css">
      .symbol { fill: white }
    </style>
  </defs>

  <!-- Background and border -->
  <g transform="translate(24,24)">
    <circle style="fill:url(#background)" r="22"/>
    <path style="fill:url(#border)" d="m -22,0 a 22,22 0 0 0 44,0 a 22,22 0 0 0 -44,0 m 2,0 a 20,20 0 0 1 40,0 a 20,20 0 0 1 -40,0"/>
  </g>

  <!-- Symbol -->
  <path class="symbol" transform="translate(6,6),scale(1.5)"
        d="M12 2c1.1 0 2 .9 2 2s-.9 2-2 2-2-.9-2-2 .9-2 2-2z
           m8 7h-5v12c0 .55-.45 1-1 1s-1-.45-1-1v-5h-2v5c0 .55-.45 1-1 1s-1-.45-1-1V9H4c-.55 0-1-.45-1-1s.45-1 1-1h16c.55 0 1 .45 1 1s-.45 1-1 1z"/>
</svg>
