<svg xmlns="http://www.w3.org/2000/svg" viewBox="0 0 48 48">
  <defs>
    <linearGradient id="monitor-border" x1="0%" y1="0%" x2="0%" y2="100%">
      <stop offset="0%" style="stop-color:#BDBDBD"/> <!-- Gray 400 -->
      <stop offset="100%" style="stop-color:#9E9E9E"/> <!-- Gray 500 -->
    </linearGradient>
    <linearGradient id="screen-border" x1="0%" y1="0%" x2="0%" y2="100%">
      <stop offset="0%" style="stop-color:#424242"/> <!-- Gray 800 -->
      <stop offset="100%" style="stop-color:#212121"/> <!-- Gray 900 -->
    </linearGradient>
    <linearGradient id="login-screen-background" x1="0%" y1="0%" x2="100%" y2="100%">
      <stop offset="0%" style="stop-color:#9C27B0"/> <!-- Purple 500 -->
      <stop offset="100%" style="stop-color:#283593"/> <!-- Indigo 800 -->
    </linearGradient>
    <style type="text/css">
      .login-screen-foreground { fill: white }
      .monitor-stand { fill: #808080 }
      .darken-strongly { fill: black; fill-opacity: 0.25 }
    </style>
  </defs>

  <!-- Monitor -->
  <path style="fill:url(#monitor-border)" d="m 4,7 a 2,2 0 0 0 -2,2 v 30 a 2,2 0 0 0 2,2 h 40 a 2,2 0 0 0 2,-2 v -30 a 2,2 0 0 0 -2,-2 z m 0,2 h 40 v 30 h -40 z"/>
  <path style="fill:url(#screen-border)" d="m 4,9 v 30 h 40 v -30 z m 1,1 h 38 v 28 h -38"/>
  <path class="monitor-stand" d="m 16,41 v 3 a 2,2 0 0 0 2,2 h 12 a 2,2 0 0 0 2,-2 v -3 z"/>
  <rect class="darken-strongly" x="16" y="41" width="16" height="1"/>

  <!-- Login screen -->
  <rect style="fill:url(#login-screen-background)" x="5" y="10" width="38" height="28"/>
  <g class="login-screen-foreground">
    <g transform="translate(24,20)">
      <circle style="fill-opacity:0.25" r="6"/>
      <circle cy="-2" r="2.5"/>
      <path d="M -5.2,3 A 6,6 0 0 0 5.2,3 A 6,3 0 0 0 -5.2,3"/>
    </g>
    <rect style="fill-opacity:0.5" x="18" y="30" width="12" height="3"/>
  </g>
</svg>
