<svg xmlns="http://www.w3.org/2000/svg" viewBox="0 0 48 48">
  <defs>
    <linearGradient id="background" x1="0" y1="0%" x2="0" y2="100%">
      <stop offset="0%" style="stop-color:#2196F3"/> <!-- Blue 500 -->
      <stop offset="100%" style="stop-color:#1976D2"/> <!-- Blue 700 -->
    </linearGradient>
    <linearGradient id="border" x1="0" y1="0%" x2="0" y2="100%">
      <stop offset="0%" style="stop-color:#BBDEFB"/> <!-- Blue 100 -->
      <stop offset="100%" style="stop-color:#64B5F6"/> <!-- Blue 300 -->
    </linearGradient>
    <style type="text/css">
      .symbol { fill: white }
    </style>
  </defs>
  <g transform="translate(24,24)">
    <!-- Background and border -->
    <circle style="fill:url(#background)" r="22"/>
    <path style="fill:url(#border)" d="m -22,0 a 22,22 0 0 0 44,0 a 22,22 0 0 0 -44,0 m 2,0 a 20,20 0 0 1 40,0 a 20,20 0 0 1 -40,0"/>

    <!-- Symbol -->
    <path class="symbol" d="M 0,-12.5 a 3,3 0 0 1 0,6 a 3,3 0 0 1 0,-6 M -3,0.5 a 3,3 0 0 1 6,0 v 9 a 3,3 0 0 1 -6,0"/>
  </g>
</svg>
