<svg xmlns="http://www.w3.org/2000/svg" viewBox="0 0 48 48">
  <defs>
    <linearGradient id="wallet-surface" x1="0" y1="0%" x2="0" y2="100%">
      <stop offset="0%" style="stop-color:#A1887F"/> <!-- Brown 300 -->
      <stop offset="100%" style="stop-color:#795548"/> <!-- Brown 500 -->
    </linearGradient>
    <linearGradient id="wallet-border" x1="0" y1="0%" x2="0" y2="100%">
      <stop offset="0%" style="stop-color:#D7CCC8"/> <!-- Brown 100 -->
      <stop offset="100%" style="stop-color:#A1887F"/> <!-- Brown 300 -->
    </linearGradient>
    <linearGradient id="closure" x1="0" y1="0%" x2="0" y2="100%">
      <stop offset="0%" style="stop-color:#E0E0E0"/> <!-- Gray 300 -->
      <stop offset="100%" style="stop-color:#9E9E9E"/> <!-- Gray 500 -->
    </linearGradient>
    <style type="text/css">
      .darken { fill: black; fill-opacity: 0.125 }
    </style>
  </defs>

  <!-- Wallet -->
  <path style="fill:url(#wallet-surface)"
        d="m 10,4 a 2,2 0 0 0 -2,2 v 36 a 2,2 0 0 0 2,2 h 28 a 2,2 0 0 0 2,-2 v -36 a 2,2 0 0 0 -2,-2"/>
  <path style="fill:url(#wallet-border)"
        d="m 10,4 a 2,2 0 0 0 -2,2 v 36 a 2,2 0 0 0 2,2 h 28 a 2,2 0 0 0 2,-2 v -36 a 2,2 0 0 0 -2,-2 z
           m 0,1 h 28 a 1,1 0 0 1 1,1 v 36 a 1,1 0 0 1 -1,1 h -28 a 1,1 0 0 1 -1,-1 v -36 a 1,1 0 0 1 1,-1"/>

  <!-- Closure -->
  <path class="darken" d="m 40,18 h -12 a 2,2 0 0 0 -2,2 v 8 a 2,2 0 0 0 2,2 h 12 v 2 h -12 a 3,3 0 0 1 -3,-3 v -9 a 3,3 0 0 1 3,-3 h 12"/>
  <path class="darken" d="m 26,28 v 1 a 2,2 0 0 0 2,2 h 12 v -1 h -12 a 2,2 0 0 1 -2,-2"/>
  <path style="fill:url(#closure)" d="m 28,18 a 2,2 0 0 0 -2,2 v 8 a 2,2 0 0 0 2,2 h 12 a 2,2 0 0 0 2,-2 v -8 a 2,2 0 0 0 -2,-2 z"/>
  <circle style="fill:#424242" cx="32" cy="24" r="2"/>
</svg>
