<svg xmlns="http://www.w3.org/2000/svg" viewBox="0 0 48 48">
  <defs>
    <linearGradient id="document-background" x1="0%" y1="0%" x2="0%" y2="100%">
      <stop offset="0%" style="stop-color:#E64A19"/> <!-- Deep Orange 700 -->
      <stop offset="100%" style="stop-color:#BF360C"/> <!-- Deep Orange 900 -->
    </linearGradient>
    <linearGradient id="document-border" x1="0%" y1="0%" x2="0%" y2="100%">
      <stop offset="0%" style="stop-color:#FF8A65"/> <!-- Deep Orange 300 -->
      <stop offset="100%" style="stop-color:#FF5722"/> <!-- Deep Orange 500 -->
    </linearGradient>
    <style type="text/css">
      .document-background { fill: url(#document-background) }
      .document-border { fill: url(#document-border) }
      .symbol { fill: #FFCCBC } <!-- Deep Orange 100 -->
    </style>
  </defs>

  <!-- Document -->
  <path class="document-border"
        d="M 8,2 a 2,2 0 0 0 -2,2 v 40 a 2,2 0 0 0 2,2 h 32 a 2,2 0 0 0 2,-2 v -26 l -16,-16
           M 8,4 h 17 l 15,15 v 25 h -32
           M 30,2 h 10 a 2,2 0 0 1 2,2 v 10"/>
  <path class="document-background"
        d="M 8,4 h 17 l 15,15 v 25 h -32"/>

  <!-- Symbol -->
  <g class="symbol" transform="translate(12,18)">
    <rect x="3" y="5" width="18" height="3" rx="1.5" ry="1.5"/>
    <circle cx="4.5" cy="12.5" r="1.5"/>
    <rect x="9" y="11" width="12" height="3" rx="1.5" ry="1.5"/>
    <circle cx="4.5" cy="18.5" r="1.5"/>
    <rect x="9" y="17" width="12" height="3" rx="1.5" ry="1.5"/>
  </g>
</svg>
