<svg xmlns="http://www.w3.org/2000/svg" viewBox="0 0 48 48">
  <defs>
    <linearGradient id="document-background" x1="0%" y1="0%" x2="0%" y2="100%">
      <stop offset="0%" style="stop-color:#7B1FA2"/> <!-- Purple 700 -->
      <stop offset="100%" style="stop-color:#4A148C"/> <!-- Purple 900 -->
    </linearGradient>
    <linearGradient id="document-border" x1="0%" y1="0%" x2="0%" y2="100%">
      <stop offset="0%" style="stop-color:#BA68C8"/> <!-- Purple 300 -->
      <stop offset="100%" style="stop-color:#9C27B0"/> <!-- Purple 500 -->
    </linearGradient>
    <style type="text/css">
      .document-background { fill: url(#document-background) }
      .document-border { fill: url(#document-border) }
      .symbol { fill: #E1BEE7 } <!-- Purple 50 -->
    </style>
  </defs>

  <!-- Document -->
  <path class="document-border"
        d="M 8,2 a 2,2 0 0 0 -2,2 v 40 a 2,2 0 0 0 2,2 h 32 a 2,2 0 0 0 2,-2 v -26 l -16,-16
           M 8,4 h 17 l 15,15 v 25 h -32
           M 30,2 h 10 a 2,2 0 0 1 2,2 v 10"/>
  <path class="document-background"
        d="M 8,4 h 17 l 15,15 v 25 h -32"/>

  <!-- Symbol -->
  <g class="symbol" transform="translate(12,18)">
    <path d="m 3,4 v 4 c 0,1.35 4.5,3 9,3 c 4.5,0 9,-1.65 9,-3 v -4 c 0,-1.35 -4.5,-3 -9,-3 c -4.5,0 -9,1.65 -9,3"/>
    <path d="m 3,9 v 4 c 0,1.35 4.5,3 9,3 c 4.5,0 9,-1.65 9,-3 v -4 c 0,1.35 -4.5,3 -9,3 c -4.5,0 -9,-1.65 -9,-3"/>
    <path d="m 3,14 v 4 c 0,1.35 4.5,3 9,3 c 4.5,0 9,-1.65 9,-3 v -4 c 0,1.35 -4.5,3 -9,3 c -4.5,0 -9,-1.65 -9,-3"/>
  </g>
</svg>
