<svg xmlns="http://www.w3.org/2000/svg" viewBox="0 0 48 48">
  <defs>
    <linearGradient id="x-button-background" x1="0%" y1="0%" x2="0%" y2="100%">
      <stop offset="100%" style="stop-color:#616161"/> <!-- Gray 700 -->
      <stop offset="100%" style="stop-color:#424242"/> <!-- Gray 800 -->
    </linearGradient>
    <linearGradient id="omega-button-background" x1="0%" y1="0%" x2="0%" y2="100%">
      <stop offset="0%" style="stop-color:#757575"/> <!-- Gray 600 -->
      <stop offset="100%" style="stop-color:#616161"/> <!-- Gray 700 -->
    </linearGradient>
    <linearGradient id="equal-button-background" x1="0%" y1="0%" x2="0%" y2="100%">
      <stop offset="0%" style="stop-color:#D81B60"/> <!-- Pink 600 -->
      <stop offset="100%" style="stop-color:#C2185B"/> <!-- Pink 700 -->
    </linearGradient>
    <style type="text/css">
      .button-text { fill: white; fill-opacity: 0.875 }
      .lighten { fill: white; fill-opacity: 0.125 }
      .darken { fill:black; fill-opacity: 0.125 }
    </style>
  </defs>

  <!-- 'x' -->
  <g transform="translate(4,4)">
    <path style="fill:url(#x-button-background)" d="m 2,0 a 2,2 0 0 0 -2,2 v 18 h 20 v -20"/>
    <path class="lighten" d="m 2,0 a 2,2 0 0 0 -2,2 v 18 l 1,-1 v -17 a 1,1 0 0 1 1,-1 h 17 l 1,-1" />
    <path class="darken" d="m 1,19 l -1,1 h 20 v -20 l -1,1 v 18"/>
    <path class="darken" d="m 8.94,6.586 1.49,3.164 q 0.69,-0.82 1.28,-1.62 0.59,-0.79 1.08,-1.544 h 2.25 q -0.76,1.114 -1.67,2.284 -0.92,1.15 -2,2.34 0.65,1.24 1.19,2.43 0.54,1.17 0.95,2.36 h -2.2 q -0.28,-0.85 -0.66,-1.69 -0.36,-0.85 -0.74,-1.6 l -2.86,3.29 h -2.379 l 4.299,-4.82 -2.32,-4.594 z"/>
    <path class="button-text" d="m 8.94,5.586 1.49,3.164 q 0.69,-0.82 1.28,-1.62 0.59,-0.79 1.08,-1.544 h 2.25 q -0.76,1.114 -1.67,2.284 -0.92,1.15 -2,2.34 0.65,1.24 1.19,2.43 0.54,1.17 0.95,2.36 h -2.2 q -0.28,-0.85 -0.66,-1.69 -0.36,-0.85 -0.74,-1.6 l -2.86,3.29 h -2.379 l 4.299,-4.82 -2.32,-4.594 z"/>
    <!--
    <text style="font-family:Ubuntu;font-size:18px;font-weight:500;font-style:italic;text-anchor:middle" x="9" y="15">x</text>
    -->
  </g>
  <!-- Omega -->
  <g transform="translate(4,24)">
    <path style="fill:url(#omega-button-background)" d="m 0,0 v 18 a 2,2 0 0 0 2,2 h 18 v -20 z"/>
    <path class="lighten" d="m 0,0 v 18 a 2,1 0 0 0 1,0.865 v -17.865 h 18 l 1,-1"/>
    <path class="darken" d="m 2,19 a 2,1 0 0 1 -2,-1 a 2,2 0 0 0 2,2 h 18 v -20 l -1,1 v 18"/>
    <path class="darken" d="m 10.01,4.24 q 1.22,0 2.3,0.39 1.08,0.38 1.89,1.16 0.81,0.75 1.28,1.87 0.47,1.11 0.47,2.57 0,1.51 -0.63,2.74 -0.61,1.22 -1.49,2.14 h 2.39 v 1.89 h -5.13 v -1.66 q 0.52,-0.43 0.97,-0.93 0.45,-0.52 0.79,-1.14 0.35,-0.61 0.53,-1.35 0.19,-0.73 0.19,-1.63 0,-1.95 -0.97,-3.01 -0.95,-1.06 -2.59,-1.06 -1.64,0 -2.61,1.06 -0.97,1.06 -0.97,3.01 0,0.9 0.18,1.63 0.2,0.74 0.52,1.37 0.34,0.61 0.79,1.12 0.47,0.5 0.99,0.93 v 1.66 h -5.129 v -1.89 h 2.399 q -0.887,-0.92 -1.499,-2.14 -0.612,-1.23 -0.612,-2.74 0,-1.46 0.468,-2.57 0.468,-1.12 1.278,-1.87 0.815,-0.78 1.895,-1.16 1.08,-0.39 2.3,-0.39 z"/>
    <path class="button-text" d="m 10.01,3.24 q 1.22,0 2.3,0.39 1.08,0.38 1.89,1.16 0.81,0.75 1.28,1.87 0.47,1.11 0.47,2.57 0,1.51 -0.63,2.74 -0.61,1.22 -1.49,2.14 h 2.39 v 1.89 h -5.13 v -1.66 q 0.52,-0.43 0.97,-0.93 0.45,-0.52 0.79,-1.14 0.35,-0.61 0.53,-1.35 0.19,-0.73 0.19,-1.63 0,-1.95 -0.97,-3.01 -0.95,-1.06 -2.59,-1.06 -1.64,0 -2.61,1.06 -0.97,1.06 -0.97,3.01 0,0.9 0.18,1.63 0.2,0.74 0.52,1.37 0.34,0.61 0.79,1.12 0.47,0.5 0.99,0.93 v 1.66 h -5.129 v -1.89 h 2.399 q -0.887,-0.92 -1.499,-2.14 -0.612,-1.23 -0.612,-2.74 0,-1.46 0.468,-2.57 0.468,-1.12 1.278,-1.87 0.815,-0.78 1.895,-1.16 1.08,-0.39 2.3,-0.39 z"/>
    <!--
    <text style="font-family:Ubuntu;font-size:18px;font-weight:500;text-anchor:middle" x="10" y="16">&#x3A9;</text>
    -->
  </g>
  <!-- Equal -->
  <g transform="translate(24,4)">
    <path style="fill:url(#equal-button-background)" d="m 0,0 v 40 h 18 a 2,2 0 0 0 2,-2 v -36 a 2,2 0 0 0 -2,-2"/>
    <path class="lighten" d="m 0,0 v 40 l 1,-1 v -38 h 17 a 2,1 0 0 1 2,1 a 2,2 0 0 0 -2,-2"/>
    <path class="darken" d="m 1,39 l -1,1 h 18 a 2,2 0 0 0 2,-2 v -36 a 2,1 0 0 0 -1,-0.865 v 36.865 a 1,1 0 0 1 -1,1"/>
    <path class="darken" d="m 6,19 a 1,1 0 0 1 0,-2 h 8 a 1,1 0 0 1 0,2"/>
    <path class="darken" d="m 6,25 a 1,1 0 0 1 0,-2 h 8 a 1,1 0 0 1 0,2"/>
    <path class="button-text" d="m 6,18 a 1,1 0 0 1 0,-2 h 8 a 1,1 0 0 1 0,2"/>
    <path class="button-text" d="m 6,24 a 1,1 0 0 1 0,-2 h 8 a 1,1 0 0 1 0,2"/>
  </g>
</svg>
