<svg xmlns="http://www.w3.org/2000/svg" viewBox="0 0 48 48">
  <defs>
    <!-- Light Theme -->
    <linearGradient id="desktop-background-light" x1="0%" y1="0%" x2="0%" y2="100%">
      <stop offset="0%" style="stop-color:#BBDEFB"/> <!-- Blue 100 -->
      <stop offset="100%" style="stop-color:#42A5F5"/> <!-- Blue 400 -->
    </linearGradient>
    <linearGradient id="window-background-light" x1="0%" y1="0%" x2="0%" y2="100%">
      <stop offset="0%" style="stop-color:#EEEEEE"/> <!-- Gray 200 -->
      <stop offset="100%" style="stop-color:#E0E0E0"/> <!-- Gray 300 -->
    </linearGradient>
    <linearGradient id="titlebar-background-light" x1="0%" y1="0%" x2="0%" y2="100%">
      <stop offset="0%" style="stop-color:#BDBDBD"/> <!-- Gray 400 -->
      <stop offset="100%" style="stop-color:#9E9E9E"/> <!-- Gray 500 -->
    </linearGradient>

    <!-- Dark Theme -->
    <linearGradient id="desktop-background-dark" x1="0%" y1="0%" x2="0%" y2="100%">
      <stop offset="0%" style="stop-color:#64B5F6"/> <!-- Blue 300 -->
      <stop offset="100%" style="stop-color:#1E88E5"/> <!-- Blue 600 -->
    </linearGradient>
    <linearGradient id="window-background-dark" x1="0%" y1="0%" x2="0%" y2="100%">
      <stop offset="0%" style="stop-color:#616161"/> <!-- Gray 700 -->
      <stop offset="100%" style="stop-color:#414141"/> <!-- Gray 800 -->
    </linearGradient>
    <linearGradient id="titlebar-background-dark" x1="0%" y1="0%" x2="0%" y2="100%">
      <stop offset="0%" style="stop-color:#9E9E9E"/> <!-- Gray 500 -->
      <stop offset="100%" style="stop-color:#757575"/> <!-- Gray 600 -->
    </linearGradient>

    <style type="text/css">
      .panel-background-light { fill: white; fill-opacity: 0.75 }
      .panel-background-dark { fill: #424242; fill-opacity: 0.75 }
      .window-border-light { fill: #BDBDBD }
      .window-border-dark { fill: #757575 }
      .lighten { fill: white; fill-opacity: 0.125 }
      .darken-slightly { fill: black; fill-opacity: 0.0625 }
      .darken { fill: black; fill-opacity: 0.125 }
    </style>
  </defs>

  <!-- Light theme -->
  <g transform="translate(3,6)">
    <path style="fill:url(#desktop-background-light)" d="m 2,0 a 2,2 0 0 0 -2,2 v 32 a 2,2 0 0 0 2,2 h 19 v -36"/>
    <path class="panel-background-light" d="m 0,30 v 4 a 2,2 0 0 0 2,2 h 19 v -6"/>
    <rect class="darken-slightly" y="29" width="21" height="1"/>

    <g transform="translate(9,7)">
      <path style="fill:url(#titlebar-background-light)" d="m 1,0 a 1,1 0 0 0 -1,1 v 3 h 12 v -4"/>
      <path style="fill:url(#window-background-light)" d="m 0,4 v 11 a 1,1 0 0 0 1,1 h 11 v -12"/>
      <path class="lighten" d="m 1,0 a 1,1 0 0 0 -1,1 h 12 v -1"/>
      <path class="darken" d="m 0,15 a 1,1 0 0 0 1,1 h 11 v -1"/>
      <path class="darken" d="m 1,-1 a 2,2 0 0 0 -2,2 v 14 a 2,2 0 0 0 2,2 h 11 v -1 h -11 a 1,1 0 0 1 -1,-1 v -14 a 1,1 0 0 1 1,-1 h 11 v -1"/>
    </g>
  </g>

  <!-- Dark theme -->
  <g transform="translate(24,6)">
    <path style="fill:url(#desktop-background-dark)" d="m 0,0 v 36 h 19 a 2,2 0 0 0 2,-2 v -32 a 2,2 0 0 0 -2,-2"/>
    <path class="panel-background-dark" d="m 0,30 v 6 h 19 a 2,2 0 0 0 2,-2 v -4"/>
    <rect class="darken-slightly" y="29" width="21" height="1"/>

    <g transform="translate(0,7)">
      <path style="fill:url(#titlebar-background-dark)" d="m 0,0 v 4 h 12 v -3 a 1,1 0 0 0 -1,-1"/>
      <path style="fill:url(#window-background-dark)" d="m 0,4 v 12 h 11 a 1,1 0 0 0 1,-1 v -11"/>
      <path class="lighten" d="m 0,0 v 1 h 12 a 1,1 0 0 0 -1,-1"/>
      <path class="darken" d="m 0,15 v 1 h 11 a 1,1 0 0 0 1,-1"/>
      <path class="darken" d="m 0,-1 v 1 h 11 a 1,1 0 0 1 1,1 v 14 a 1,1 0 0 1 -1,1 h -11 v 1 h 11 a 2,2 0 0 0 2,-2 v -14 a 2,2 0 0 0 -2,-2"/>
    </g>
  </g>

  <!-- Borders -->
  <path class="lighten" d="m 5,6 a 2,2 0 0 0 -2,2 a 2,1 0 0 1 2,-1 h 38 a 2,1 0 0 1 2,1 a 2,2 0 0 0 -2,-2"/>
  <path class="darken" d="m 5,41 a 2,1 0 0 1 -2,-1 a 2,2 0 0 0 2,2 h 38 a 2,2 0 0 0 2,-2 a 2,1 0 0 1 -2,1"/>
</svg>
