<svg xmlns="http://www.w3.org/2000/svg" viewBox="0 0 48 48">
  <defs>
    <linearGradient id="usb-stick" x1="0%" y1="0%" x2="0%" y2="100%">
      <stop offset="0%" style="stop-color:#29B6F6"/> <!-- Light Blue 400 -->
      <stop offset="100%" style="stop-color:#0288D1"/> <!-- Light Blue 700 -->
    </linearGradient>
    <linearGradient id="usb-plug" x1="0%" y1="0%" x2="0%" y2="100%">
      <stop offset="0%" style="stop-color:#E0E0E0"/> <!-- Gray 300 -->
      <stop offset="100%" style="stop-color:#9E9E9E"/> <!-- Gray 500 -->
    </linearGradient>
    <linearGradient id="notch" x1="0%" y1="0%" x2="0%" y2="100%">
      <stop offset="0%" style="stop-color:#616161"/> <!-- Gray 700 -->
      <stop offset="100%" style="stop-color:#757575"/> <!-- Gray 600 -->
    </linearGradient>
    <style type="text/css">
      .plasma-logo { fill: white }
      .lighten { fill: white; fill-opacity: 0.125 }
      .darken { fill: black; fill-opacity: 0.125 }
    </style>
  </defs>

  <!-- USB Stick -->
  <path style="fill:url(#usb-stick)" d="m 10,12 a 8,8 0 0 0 -8,8 v 8 a 8,8 0 0 0 8,8 h 24 a 2,2 0 0 0 2,-2 v -20 a 2,2 0 0 0 -2,-2"/>
  <path class="lighten" d="m 10,12 a 8,8 0 0 0 -8,8 a 8,7 0 0 1 8,-7 h 24 a 2,1 0 0 1 2,1 a 2,2 0 0 0 -2,-2"/>
  <path class="darken" d="m 10,35 a 8,7 0 0 1 -8,-7 a 8,8 0 0 0 8,8 h 24 a 2,2 0 0 0 2,-2 a 2,1 0 0 1 -2,1"/>

  <!-- USB Plug -->
  <path style="fill:url(#usb-plug)" d="m 36,16 v 16 h 8 a 2,2 0 0 0 2,-2 v -12 a 2,2 0 0 0 -2,-2"/>
  <path class="lighten" d="m 36,16 v 1 h 8 a 2,1 0 0 1 2,1 a 2,2 0 0 0 -2,-2"/>
  <path class="darken" d="m 36,31 v 1 h 8 a 2,2 0 0 0 2,-2 a 2,1 0 0 1 -2,1"/>
  <rect class="darken" x="36" y="16" width="1" height="16"/>

  <rect style="fill:url(#notch)" x="40" y="18" width="2" height="4"/>
  <rect class="darken" x="40" y="18" width="2" height="1"/>

  <rect style="fill:url(#notch)" x="40" y="26" width="2" height="4"/>
  <rect class="darken" x="40" y="26" width="2" height="1"/>

  <!-- Plasma Logo -->
  <g class="plasma-logo" transform="translate(9,13)">
    <circle cx="7" cy="4" r="1"/>
    <circle cx="4.5" cy="10.5" r="1.5"/>
    <circle cx="9" cy="17" r="2"/>
    <path d="m 12,5 l 2,-2 5,5 -5,5 -2,-2 3,-3 z"/>
  </g>
</svg>
