<svg xmlns="http://www.w3.org/2000/svg" viewBox="0 0 32 32">
  <defs>
    <linearGradient id="background" x1="0%" y1="0%" x2="0%" y2="100%">
      <stop offset="0%" style="stop-color:#616161;stop-opacity:0.75"/> <!-- Gray 700 -->
      <stop offset="100%" style="stop-color:#424242;stop-opacity:0.75"/> <!-- Gray 800 -->
    </linearGradient>
    <linearGradient id="border" x1="0%" y1="0%" x2="0%" y2="100%">
      <stop offset="0%" style="stop-color:#E0E0E0"/> <!-- Gray 300 -->
      <stop offset="100%" style="stop-color:#BDBDBD"/> <!-- Gray 400 -->
    </linearGradient>
  </defs>
  <path style="fill:url(#background)" d="m 8,5 h 6 l 10,10 v 12 h -16 z"/>
  <path style="fill:url(#border)"
        d="M 8,3 a 2,2 0 0 0 -2,2 v 22 a 2,2 0 0 0 2,2 h 16 a 2,2 0 0 0 2,-2 v -13 l -11,-11 z
           m 0,2 h 6 l 10,10 v 12 h -16
           M 18,3 h 6 a 2,2 0 0 1 2,2 v 6 z"/>
</svg>
