<svg xmlns="http://www.w3.org/2000/svg" viewBox="0 0 32 32">
  <defs>
    <linearGradient id="screwdriver-handle" x1="0%" y1="0%" x2="0%" y2="100%">
      <stop offset="0%" style="stop-color:#BDBDBD"/> <!-- Gray 400 -->
      <stop offset="100%" style="stop-color:#757575"/> <!-- Gray 600 -->
    </linearGradient>
    <linearGradient id="screwdriver" x1="0%" y1="0%" x2="0%" y2="100%">      
      <stop offset="50%" style="stop-color:#EEEEEE"/> <!-- Gray 200 -->
      <stop offset="100%" style="stop-color:#BDBDBD"/> <!-- Gray 400 -->
    </linearGradient>
    <linearGradient id="wrench" x1="0%" y1="0%" x2="0%" y2="100%">
      <stop offset="0%" style="stop-color:#E0E0E0"/> <!-- Gray 300 -->
      <stop offset="100%" style="stop-color:#9E9E9E"/> <!-- Gray 500 -->
    </linearGradient>
  </defs>
  <g transform="rotate(45,16,16)">
    <!-- Wrench -->
    <path style="fill:url(#wrench)"
          d="M 13,22 v 7 a 3,3 0 0 0 6,0 v -10 h -1.13 a 4,4 0 0 1 -3.87,3 z
             m 3,5 a 1.5,1.5 0 0 1 0,3 a 1.5,1.5 0 0 1 0,-3
             M 13,10 h 1 a 4,4 0 0 1 3.87,3 h 1.13 v -4.14
             c 0.33,-0.2 1.67,-0.52 2.34,-1.86 c 0.33,-0.67 0.33,-2 0,-2.67 l -2,-4
             c -0.11,-0.22 -0.37,-0.33 -0.67,-0.33 c -0.3,0 -0.67,0.3 -0.67,0.67
             v 4 a 2.667,2.667 0 0 1 -4,0 v -4
             c 0,-0.37 -0.3,-0.67 -0.67,-0.67 c -0.37,0 -0.56,0.12 -0.67,0.33 l -2,4
             c -0.33,0.67 -0.33,2 0,2.67 c 0.67,1.34 2,1.69 2.34,1.86"/>

    <!-- Screwdriver -->
    <path style="fill:url(#screwdriver-handle)"
          d="m 2,12 a 2,2 0 0 0 -2,2 v 4 a 2,2 0 0 0 2,2 h 7 a 3,3 0 0 1 4,0 h 1 a 2,2 0 0 0 2,-2
             v -4 a 2,2 0 0 0 -2,-2 h -1 a 3,3 0 0 1 -4,0"/>
    <path style="fill:url(#screwdriver)"
          d="m 17,17 v -2 h 7 c 1,0 2,0 4,-1 l 4,0.5 v 3 l -4,0.5c -2,-1 -3,-1 -4,-1"/>
  </g>
</svg>
