<svg xmlns="http://www.w3.org/2000/svg" viewBox="0 0 24 24">
  <defs>
    <style id="current-color-scheme" type="text/css">
      .ColorScheme-Text { color: #D8D8D8 }
    </style>
  </defs>
  <g class="ColorScheme-Text" style="fill:currentColor">
    <path d="M 12.707,3.293 a 1,1 0 0 0 -1.414,0 l -4,4 a 1,1 0 0 0 1.414,1.414 l 2.293,-2.293
             v 7.586 a 1,1 0 0 0 2,0 v -7.586 l 2.293,2.293 a 1,1 0 0 0 1.414,-1.414"/>
    <path d="m 5,14 a 2,2 0 0 0 -2,2 v 2 a 2,2 0 0 0 2,2 h 14 a 2,2 0 0 0 2,-2 v -2 a 2,2 0 0 0 -2,-2 v 4 h -14 z"/>
  </g>
</svg>
