<svg xmlns="http://www.w3.org/2000/svg" viewBox="0 0 24 24">
  <defs>
    <style id="current-color-scheme" type="text/css">
      .ColorScheme-Text { color: #D8D8D8 }
    </style>
  </defs>
  <g class="ColorScheme-Text" style="fill:none;stroke:currentColor">
    <path style="stroke-width:2"
          d="M 9.75,3.75 h -0.75 a 3,3 0 0 0 -3,3 v 0.75 a 4.5,4.5 0 0 1 -4.5,4.5 a 4.5,4.5 0 0 1 4.5,4.5 v 0.75 a 3,3 0 0 0 3,3 h 0.75
             M 14.25,3.75 h 0.75 a 3,3 0 0 1 3,3 v 0.75 a 4.5,4.5 0 0 0 4.5,4.5 a 4.5,4.5 0 0 0 -4.5,4.5 v 0.75 a 3,3 0 0 1 -3,3 h -0.75"/>
  </g>
</svg>
