<svg xmlns="http://www.w3.org/2000/svg" viewBox="0 0 24 24">
  <defs>
    <style id="current-color-scheme" type="text/css">
      .ColorScheme-Text { color: #808080 }
    </style>
  </defs>
  <g class="ColorScheme-Text">
    <path style="fill:none;stroke:currentColor;stroke-width:2;stroke-linecap:round;stroke-linejoin:round"
          d="M 12,7 l 0,7 m -4,-4 l 4,4 4,-4"/>

    <g style="fill:currentColor">
      <path d="M 11,2 h 2 v 2 h -2 z m 4,0 h 2 v 2 h -2 z m 4,0 h 2 v 2 h -2"/>
      <path d="m 4,8 a 2,2 0 0 0 -2,2 v 8 a 2,2 0 0 0 2,2 h 16 a 2,2 0 0 0 2,-2 v -8 a 2,2 0 0 0 -2,-2 v 10 h -16 z"/>
    </g>
  </g>
</svg>
