<svg xmlns="http://www.w3.org/2000/svg" viewBox="0 0 24 24">
  <defs>
    <style id="current-color-scheme" type="text/css">
      .ColorScheme-Text { color: #D8D8D8 }
    </style>
  </defs>
  <g class="ColorScheme-Text" style="fill:currentColor">
    <path d="m 6,2 a 2,2 0 0 0 -2,2 v 16 a 2,2 0 0 0 2,2 h 12 a 2,2 0 0 0 2,-2 v -1 h -2 v 1 h -12 v -16
             h 12 v 1 h 2 v -1 a 2,2 0 0 0 -2,-2"/>
    <path d="m 20.707,12.707 a 1,1 0 0 0 0,-1.414 l -4,-4 a 1,1 0 0 0 -1.414,1.414 l 2.293,2.293
             h -5.586 a 1,1 0 0 0 0,2 h 5.586 l -2.293,2.293 a 1,1 0 0 0 1.414,1.414"/>
  </g>
</svg>
