<svg xmlns="http://www.w3.org/2000/svg" viewBox="0 0 24 24">
  <defs>
    <style id="current-color-scheme" type="text/css">
      .ColorScheme-Text { color: #D8D8D8 }
    </style>
  </defs>
  <g class="ColorScheme-Text" style="fill:currentColor">
    <path d="m 5,1 a 2,2 0 0 0 -2,2 v 14 a 1,1 0 0 0 2,0 v -14 h 6 a 1,1 0 0 0 0,-2"/>
    <path d="m 9,5 a 2,2 0 0 0 -2,2 v 14 a 2,2 0 0 0 2,2 h 10 a 2,2 0 0 0 2,-2 v -10 l -6,-6 z
             m 0,2 h 5 v 3 a 2,2 0 0 0 2,2 h 3 v 9 h -10"/>
  </g>
</svg>
