<svg xmlns="http://www.w3.org/2000/svg" viewBox="0 0 24 24">
  <defs>
    <style id="current-color-scheme" type="text/css">
      .ColorScheme-Text { color: #D8D8D8 }
    </style>
  </defs>
  <g style="fill:currentColor" class="ColorScheme-Text">
    <path d="m 11.81,18 q -0.25,-0.74 -0.52,-1.46 -0.27,-0.72 -0.522,-1.47 h -5.256 q -0.252,0.75 -0.522,1.49 -0.252,0.72 -0.504,1.44
             h -2.358 q 0.702,-2 1.332,-3.69 0.63,-1.69 1.224,-3.2 0.612,-1.516 1.206,-2.884 0.594,-1.368 1.224,-2.7 h 2.142
             q 0.63,1.332 1.224,2.7 0.59,1.368 1.19,2.884 0.61,1.51 1.24,3.2 0.65,1.69 1.35,3.69 z m -3.67,-10.062
             q -0.414,0.954 -0.954,2.322 -0.522,1.37 -1.098,2.97 h 4.104 q -0.576,-1.6 -1.116,-2.99 -0.54,-1.384 -0.936,-2.302 z"/>
    <path d="m 16.5,4 a 1,1 0 0 0 0,2 h 1.5 v 12 h -1.5 a 1,1 0 0 0 0,2
             h 1.5 a 2,2 0 0 0 1,-0.27 a 2,2 0 0 0 1,0.27 h 1.5
             a 1,1 0 0 0 0,-2 h -1.5 v -12 h 1.5 a 1,1 0 0 0 0,-2
             h -1.5 a 2,2 0 0 0 -1,0.27 a 2,2 0 0 0 -1,-0.27"/>
  </g>
</svg>
