<svg xmlns="http://www.w3.org/2000/svg" viewBox="0 0 24 24">
  <defs>
    <style id="current-color-scheme" type="text/css">
      .ColorScheme-Text { color: #D8D8D8 }
    </style>
  </defs>
  <g class="ColorScheme-Text" style="fill:currentColor">
    <path d="m 2,4 a 1,1 0 0 1 1,-1 h 5 c 1,0 1,0 2,1 l 2,2 h 9 a 1,1 0 0 1 1,1 v 1.27 a 2,2 0 0 0 -1,-0.27 h -18 a 2,2 0 0 0 -1,0.27 z"/>
    <path d="m 3,9 a 1,1 0 0 0 -1,1 v 8 a 1,1 0 0 0 1,1 h 9 v -2 h -8 v -6 h 16 v 2 h 2 v -3 a 1,1 0 0 0 -1,-1"/>
    <path d="m 19,15 a 1,1 0 0 0 -2,0 v 2 h -2 a 1,1 0 0 0 0,2 h 2 v 2 a 1,1 0 0 0 2,0 v -2 h 2 a 1,1 0 0 0 0,-2 h -2"/>
  </g>
</svg>
