<svg xmlns="http://www.w3.org/2000/svg" viewBox="0 0 24 24">
  <defs>
    <style id="current-color-scheme" type="text/css">
      .ColorScheme-Text { color: #D8D8D8 }
    </style>
  </defs>
  <g class="ColorScheme-Text" style="fill:currentColor">
    <path d="m 9.96,18 q -0.224,-0.66 -0.464,-1.3 -0.24,-0.64 -0.464,-1.31 h -4.672 q -0.224,0.67 -0.464,1.33 -0.224,0.64 -0.448,1.28 h -2.096 q 0.624,-1.78 1.184,-3.28 0.56,-1.5 1.088,-2.85 0.544,-1.34 1.072,-2.558 0.528,-1.216 1.088,-2.4 h 1.904 q 0.56,1.184 1.088,2.4 0.528,1.218 1.056,2.558 0.548,1.35 1.108,2.85 0.57,1.5 1.2,3.28 z m -3.264,-8.944 q -0.368,0.848 -0.848,2.064 -0.464,1.22 -0.976,2.64 h 3.648 q -0.512,-1.42 -0.992,-2.66 -0.48,-1.228 -0.832,-2.044 z"/>
    <path d="m 16.89,18.13 q -0.88,0 -1.78,-0.1 -0.89,-0 -1.57,-0.22 v -10.768 q 0.36,-0.06 0.76,-0.112 0.4,-0.06 0.81,-0.1 0.42,-0.03 0.82,-0.05 0.41,-0.02 0.78,-0.02 1.01,0 1.87,0.16 0.87,0.144 1.49,0.496 0.64,0.352 0.99,0.928 0.36,0.576 0.36,1.424 0,0.782 -0.39,1.342 -0.37,0.56 -1.04,0.9 1.01,0.33 1.49,0.99 0.48,0.66 0.48,1.66 0,1.72 -1.25,2.58 -1.25,0.85 -3.82,0.85 z m -1.36,-5.12 v 3.37 q 0.33,0 0.72,0.1 0.38,0 0.7,0 0.63,0 1.15,-0.1 0.55,-0.1 0.93,-0.27 0.4,-0.21 0.63,-0.55 0.24,-0.33 0.24,-0.86 0,-0.95 -0.69,-1.31 -0.69,-0.37 -1.91,-0.37 z m 0,-1.59 h 1.42 q 1.15,0 1.81,-0.32 0.66,-0.33 0.66,-1.18 0,-0.8 -0.69,-1.136 -0.67,-0.336 -1.76,-0.336 -0.47,0 -0.83,0.02 -0.36,0.02 -0.61,0.05 z"/>
    <!--
    <text style="font-family:Ubuntu;font-size:16px;font-weight:500;text-anchor:middle" x="12" y="18">AB</text>
    -->
  </g>
</svg>
