<svg xmlns="http://www.w3.org/2000/svg" viewBox="0 0 24 24">
  <defs>
    <style id="current-color-scheme" type="text/css">
      .ColorScheme-Text { color: #D8D8D8 }
    </style>
  </defs>
  <g class="ColorScheme-Text" style="fill:currentColor">
    <path d="m 10.45,18 q -0.23,-0.66 -0.466,-1.3 -0.24,-0.64 -0.464,-1.31 h -4.672 q -0.224,0.67 -0.464,1.33 -0.224,0.64 -0.448,1.28 h -2.096 q 0.624,-1.78 1.184,-3.28 0.56,-1.5 1.088,-2.85 0.544,-1.34 1.072,-2.558 0.528,-1.216 1.088,-2.4 h 1.904 q 0.56,1.184 1.088,2.4 0.528,1.218 1.056,2.558 0.54,1.35 1.1,2.85 0.58,1.5 1.2,3.28 z m -3.266,-8.944 q -0.368,0.848 -0.848,2.064 -0.464,1.22 -0.976,2.64 h 3.648 q -0.512,-1.42 -0.992,-2.66 -0.48,-1.228 -0.832,-2.044 z"/>
    <path d="m 19.49,13.79 q 0,-1.23 -0.5,-1.95 -0.48,-0.72 -1.53,-0.72 -0.48,0 -0.92,0.14 -0.41,0.15 -0.67,0.32 v 4.82 q 0.21,0.1 0.53,0.1 0.34,0 0.8,0 1.07,0 1.68,-0.72 0.61,-0.74 0.61,-2.02 z m 1.98,0 q 0,1.01 -0.3,1.83 -0.29,0.8 -0.85,1.37 -0.54,0.58 -1.33,0.88 -0.78,0.31 -1.77,0.31 -0.96,0 -1.84,-0.15 -0.87,-0.14 -1.44,-0.32 v -11.836 l 1.93,-0.32 v 4.336 q 0.34,-0.176 0.82,-0.32 0.49,-0.144 1.09,-0.144 0.88,0 1.56,0.32 0.71,0.304 1.17,0.884 0.47,0.57 0.71,1.39 0.25,0.8 0.25,1.77 z"/>
    <!--
    <text style="font-family:Ubuntu;font-size:16px;font-weight:500;text-anchor:middle" x="12" y="18">Ab</text>
    -->
  </g>
</svg>
