<svg xmlns="http://www.w3.org/2000/svg" viewBox="0 0 24 24">
  <defs>
    <style id="current-color-scheme" type="text/css">
      .ColorScheme-Text { color: #D8D8D8 }
    </style>
  </defs>
  <g class="ColorScheme-Text" style="fill:currentColor">
    <path d="m 7.136,16.64 q 0.896,0 1.36,-0.1 v -2.14 q -0.16,-0.1 -0.464,-0.1 -0.304,-0 -0.672,-0 -0.32,0 -0.656,0 -0.32,0 -0.592,0.18 -0.256,0.13 -0.416,0.37 -0.16,0.22 -0.16,0.57 0,0.69 0.432,0.96 0.432,0.26 1.168,0.26 z m -0.16,-7.216 q 0.96,0 1.616,0.24 0.656,0.24 1.04,0.676 0.398,0.43 0.558,1.05 0.18,0.61 0.18,1.35 v 5.07 q -0.45,0.1 -1.362,0.22 -0.896,0.15 -2.032,0.15 -0.752,0 -1.376,-0.15 -0.624,-0.14 -1.072,-0.46 -0.432,-0.32 -0.688,-0.83 -0.24,-0.52 -0.24,-1.27 0,-0.72 0.272,-1.21 0.288,-0.5 0.768,-0.8 0.48,-0.32 1.104,-0.45 0.64,-0.15 1.328,-0.15 0.32,0 0.672,0.1 0.352,0 0.752,0.13 v -0.32 q 0,-0.34 -0.08,-0.64 -0.08,-0.3 -0.288,-0.53 -0.192,-0.24 -0.528,-0.37 -0.32,-0.12 -0.816,-0.12 -0.672,0 -1.232,0.1 -0.56,0.1 -0.912,0.23 l -0.24,-1.572 q 0.368,-0.128 1.072,-0.256 0.704,-0.128 1.504,-0.128 z"/>
    <path d="m 18.29,13.79 q 0,-1.23 -0.5,-1.95 -0.48,-0.72 -1.53,-0.72 -0.48,0 -0.92,0.14 -0.41,0.15 -0.67,0.32 v 4.82 q 0.21,0.1 0.53,0.1 0.34,0 0.8,0 1.07,0 1.68,-0.72 0.61,-0.74 0.61,-2.02 z m 1.98,0 q 0,1.01 -0.3,1.83 -0.29,0.8 -0.85,1.37 -0.54,0.58 -1.33,0.88 -0.78,0.31 -1.77,0.31 -0.96,0 -1.84,-0.15 -0.87,-0.14 -1.44,-0.32 v -11.836 l 1.93,-0.32 v 4.336 q 0.34,-0.176 0.82,-0.32 0.49,-0.144 1.09,-0.144 0.88,0 1.56,0.32 0.71,0.304 1.17,0.884 0.47,0.57 0.71,1.39 0.25,0.8 0.25,1.77 z"/>
    <!--
    <text style="font-family:Ubuntu;font-size:16px;font-weight:500;text-anchor:middle" x="12" y="18">ab</text>
    -->
  </g>
</svg>
