<svg xmlns="http://www.w3.org/2000/svg" viewBox="0 0 24 24">
  <defs>
    <style id="current-color-scheme" type="text/css">
      .ColorScheme-Text { color: #D8D8D8 }
    </style>
  </defs>
  <g class="ColorScheme-Text" style="fill:currentColor">
    <path d="m 3,3 a 1,1 0 0 0 -1,1 v 16 a 1,1 0 0 0 1,1 h 18 a 1,1 0 0 0 1,-1 v -16 a 1,1 0 0 0 -1,-1 z
             m 1,3 h 4 v 3 h -4 z m 6,0 h 4 v 3 h -4 z m 6,0 h 4 v 3 h -4 z
             m -12,5 h 4 v 3 h -4 z m 6,0 h 4 v 3 h -4 z m 6,0 h 4 v 3 h -4 z
             m -12,5 h 4 v 3 h -4 z m 6,0 h 4 v 3 h -4 z m 6,0 h 4 v 3 h -4 z"/>
  </g>
</svg>
