<svg xmlns="http://www.w3.org/2000/svg" viewBox="0 0 24 24">
  <defs>
    <style id="current-color-scheme" type="text/css">
      .ColorScheme-Text { color: #D8D8D8 }
    </style>
  </defs>
  <g class="ColorScheme-Text" style="fill:currentColor">
    <!-- Paper plane -->
    <path transform="translate(-2,-2)"
          d="M 22 2 L 2 9.5 L 7 14.5 L 8.25 19.5 L 10.13 17.63 L 12.02 19.52 A 7 7 0 0 1 12 19 A 7 7 0 0 1 18.23 12.05 L 22 2 z M 19.5 4.5 L 9.5 17 L 8.562 13.25 L 19.5 4.5 z"/>

    <!-- Clock -->
    <path transform="translate(18,18)"
          d="M -6,0 a 6,6 0 0 0 12,0 a 6,6 0 0 0 -12,0
             M -1,-4 a 1,1 0 0 1 2,0 v 3.6 l 1.8,1.8 a 1,1 0 0 1 -1.4,1.4 l -2.1,-2.1 c -0.15,-0.15 -0.3,-0.3 -0.3,-0.6"/>
  </g>
</svg>
