<svg xmlns="http://www.w3.org/2000/svg" viewBox="0 0 24 24">
  <defs>
    <style id="current-color-scheme" type="text/css">
      .ColorScheme-Text { color: #D8D8D8 }
    </style>
  </defs>
  <!-- Mail -->
  <g class="ColorScheme-Text" style="fill:currentColor">
    <path d="m 1,6 a 2,2 0 0 1 2,-2 h 18 a 2,2 0 0 1 2,2 l -10,7.25 c -0.9,0.64 -1.1,0.64 -2,0 z"/>
    <path d="M 1 7.86 L 1 18 A 2 2 0 0 0 3 20 L 15 20 A 5 5 0 0 1 20 15 A 5 5 0 0 1 23 16 L 23 7.86 L 13 15.11 C 12.1 15.75 11.9 15.75 11 15.11 L 1 7.86 z"/>
  </g>
  <!-- Marker -->
  <circle style="fill:#2670D0" cx="20" cy="20" r="3"/>
</svg>
