<svg xmlns="http://www.w3.org/2000/svg" viewBox="0 0 24 24">
  <defs>
    <style id="current-color-scheme" type="text/css">
      .ColorScheme-Text { color: #D8D8D8 }
    </style>
  </defs>
  <g class="ColorScheme-Text" style="fill:currentColor">
    <path d="m 6,6 a 4,4 0 0 0 -4,4 v 4 a 4,4 0 0 0 4,4 v -2 a 2,2 0 0 1 -2,-2 v -4 a 2,2 0 0 1 2,-2 h 6
             v 1.79 c 0,0.45 0.54,0.67 0.85,0.36 l 2.79,-2.79 c 0.2,-0.2 0.2,-0.52 0,-0.72 l -2.79,-2.79 c -0.31,-0.31 -0.85,-0.09 -0.85,0.36 v 1.79"/>

    <path d="m 12,16 v -1.79 c 0,-0.45 -0.54,-0.67 -0.85,-0.36 l -2.79,2.79 c -0.2,0.2 -0.2,0.52 0,0.72 l 2.79,2.79 c 0.31,0.31 0.85,0.09 0.85,-0.36 v -1.79
             h 6 a 4,4 0 0 0 4,-4 v -4 a 4,4 0 0 0 -4,-4 v 2 a 2,2 0 0 1 2,2 v 4 a 2,2 0 0 1 -2,2"/>
  </g>
</svg>
