<svg xmlns="http://www.w3.org/2000/svg" viewBox="0 0 24 24">
  <defs>
    <style id="current-color-scheme" type="text/css">
      .ColorScheme-Text { color: #D8D8D8 }
    </style>
  </defs>
  <g class="ColorScheme-Text" style="fill:currentColor">
    <path style="fill-opacity:0.5" d="M 10.29 5.006 A 7 7 0 0 0 9.338 5.109 L 11.3 7.068 A 5 5 0 0 1 15.43 11.2 L 17.39 13.16 A 7 7 0 0 0 17.42 13 L 22 13 A 1 1 0 0 0 22 11 L 17.42 11 A 7 7 0 0 0 10.29 5.006 z
      M 7.229 5.82 A 7 7 0 0 0 7 5.939 L 8 7.67 A 5 5 0 0 1 8.736 7.328 L 7.229 5.82 z
      M 9.533 8.125 A 4 4 0 0 0 6.633 11 L 2 11 A 1 1 0 0 0 2 13 L 6.631 13 A 4 4 0 0 0 10.5 16 A 4 4 0 0 0 14.38 12.97 L 9.533 8.125 z
      M 15.17 13.76 A 5 5 0 0 1 8 16.33 L 7 18.06 A 7 7 0 0 0 16.68 15.27 L 15.17 13.76 z "/>
    <path d="m 4.54,3.13 a 0.5,0.5 0 0 0 -1.41,1.41 l 16.33,16.33 a 0.5,0.5 0 0 0 1.41,-1.41 z"/>
  </g>
</svg>
