<svg xmlns="http://www.w3.org/2000/svg" viewBox="0 0 24 24">
  <defs>
    <style id="current-color-scheme" type="text/css">
      .ColorScheme-Text { color: #D8D8D8 }
    </style>
  </defs>
  <g class="ColorScheme-Text" style="fill:currentColor">
    <path d="m 10.5,4 a 1.5,1.5 0 0 1 3,0 v 1.2 a 6,6 0 0 1 4.5,5.8 c 0,2.67 1,5 2,6 c 0.32,0.32 0.5,0.45 0.5,1 c 0,0.55 -0.45,1 -1,1
             h -15 c -0.55,0 -1,-0.45 -1,-1 c 0,-0.55 0.18,-0.68 0.5,-1 c 1,-1 2,-3.33 2,-6 a 6,6 0 0 1 4.5,-5.8"/>
    <path d="m 10,20 a 2,2 0 0 0 4,0"/>
  </g>
</svg>
