<svg xmlns="http://www.w3.org/2000/svg" viewBox="0 0 24 24">
  <defs>
    <style id="current-color-scheme" type="text/css">
      .ColorScheme-Text { color: #D8D8D8 }
    </style>
  </defs>
  <g class="ColorScheme-Text" style="fill:currentColor">
    <path d="m 4,3 a 2,2 0 0 0 -2,2 v 14 a 2,2 0 0 0 2,2 h 16 a 2,2 0 0 0 2,-2 v -14 a 2,2 0 0 0 -2,-2 z
             m 0,4 h 7 v 3 h 2 v -3 h 7 v 12 h -7 v -3 h -2 v 3 h -7 z"/>
    <path d="m 9,12 v -1.79 c 0,-0.45 -0.54,-0.67 -0.85,-0.36 l -2.79,2.79 c -0.2,0.2 -0.2,0.52 0,0.72 l 2.79,2.79 c 0.31,0.31 0.85,0.09 0.85,-0.36 v -1.79
             h 6 v 1.79 c 0,0.45 0.54,0.67 0.85,0.36 l 2.79,-2.79 c 0.2,-0.2 0.2,-0.52 0,-0.72 l -2.79,-2.79 c -0.31,-0.31 -0.85,-0.09 -0.85,0.36 v 1.79"/>
  </g>
</svg>
