<svg xmlns="http://www.w3.org/2000/svg" viewBox="0 0 24 24">
  <defs>
    <style id="current-color-scheme" type="text/css">
      .ColorScheme-Text { color: #D8D8D8 }
    </style>
  </defs>
  <g class="ColorScheme-Text" style="fill:currentColor">
    <path d="m 4,3 a 2,2 0 0 0 -2,2 v 14 a 2,2 0 0 0 2,2 h 8 v -2 h -8 v -14 h 8 v 4 h 8 v 2 h 2 v -6 a 2,2 0 0 0 -2,-2"/>
    <path d="m 18,12 a 1,1 0 0 0 -2,0 v 3 h -3 a 1,1 0 0 0 0,2 h 3 v 3 a 1,1 0 0 0 2,0 v -3 h 3 a 1,1 0 0 0 0,-2 h -3"/>
  </g>
</svg>
