<svg xmlns="http://www.w3.org/2000/svg" viewBox="0 0 24 24">
  <defs>
    <style id="current-color-scheme" type="text/css">
      .ColorScheme-Text { color: #D8D8D8 }
    </style>
  </defs>
  <g class="ColorScheme-Text" style="fill:currentColor">
    <path d="m 4,2 a 2,2 0 0 0 -2,2 v 16 a 2,2 0 0 0 2,2 h 16 a 2,2 0 0 0 2,-2 v -16 a 2,2 0 0 0 -2,-2 z
             m 0,2 h 16 v 16 h -16"/>
    <path d="m 7,6 a 1,1 0 0 0 -1,1 v 4 a 1,1 0 0 0 2,0 v -3 h 3 a 1,1 0 0 0 0,-2"/>
    <path d="m 13,16 a 1,1 0 0 0 0,2 h 4 a 1,1 0 0 0 1,-1 v -4 a 1,1 0 0 0 -2,0 v 3"/>
  </g>
</svg>
