<svg xmlns="http://www.w3.org/2000/svg" viewBox="0 0 24 24">
  <defs>
    <style id="current-color-scheme" type="text/css">
      .ColorScheme-Text { color: #D8D8D8 }
    </style>
  </defs>
  <g class="ColorScheme-Text" style="fill:currentColor">
    <!-- Arrow up -->
    <path d="m 11,9 a 1,1 0 0 0 2,0 v -3.59 l 1,1 a 1,1 0 0 0 1.41,-1.41 l -2.705,-2.705 c -0.38,-0.38 -1.03,-0.38 -1.41,0 l -2.705,2.705 a 1,1 0 0 0 1.41,1.41 l 1,-1"/>

    <!-- Arrow down -->
    <path transform="rotate(180,12,18)" d="m 11,21 a 1,1 0 0 0 2,0 v -3.59 l 1,1 a 1,1 0 0 0 1.41,-1.41 l -2.705,-2.705 c -0.38,-0.38 -1.03,-0.38 -1.41,0 l -2.705,2.705 a 1,1 0 0 0 1.41,1.41 l 1,-1"/>

    <!-- Arrow left -->
    <path transform="rotate(-90,6,12)" d="m 5,15 a 1,1 0 0 0 2,0 v -3.59 l 1,1 a 1,1 0 0 0 1.41,-1.41 l -2.705,-2.705 c -0.38,-0.38 -1.03,-0.38 -1.41,0 l -2.705,2.705 a 1,1 0 0 0 1.41,1.41 l 1,-1"/>

    <!-- Arrow right -->
    <path transform="rotate(90,18,12)" d="m 17,15 a 1,1 0 0 0 2,0 v -3.59 l 1,1 a 1,1 0 0 0 1.41,-1.41 l -2.705,-2.705 c -0.38,-0.38 -1.03,-0.38 -1.41,0 l -2.705,2.705 a 1,1 0 0 0 1.41,1.41 l 1,-1"/>
  </g>
</svg>
