<svg xmlns="http://www.w3.org/2000/svg" viewBox="0 0 24 24">
  <defs>
    <style id="current-color-scheme" type="text/css">
      .ColorScheme-Text { color: #D8D8D8 }
    </style>
  </defs>
  <g class="ColorScheme-Text" style="fill:currentColor" transform="translate(12,12)">
    <path d="m 0,-10 a 10,10 0 0 0 0,20 a 10,10 0 0 0 0,-20 m 0,2 a 8,8 0 0 1 0,16 a 8,8 0 0 1 0,-16"/>
    <path d="m 0,-1.414 l -2.293,-2.293 a 1,1 0 0 0 -1.414,1.414 l 2.293,2.293 -2.293,2.293 a 1,1 0 0 0 1.414,1.414
             l 2.293,-2.293 2.293,2.293 a 1,1 0 0 0 1.414,-1.414 l -2.293,-2.293 2.293,-2.293 a 1,1 0 0 0 -1.414,-1.414"/>
  </g>
</svg>
