<svg xmlns="http://www.w3.org/2000/svg" viewBox="0 0 24 24">
  <defs>
    <style id="current-color-scheme" type="text/css">
      .ColorScheme-Text { color: #D8D8D8 }
    </style>
  </defs>
  <g class="ColorScheme-Text" style="fill:currentColor">
    <path d="M 6,10 a 2,2 0 0 0 -2,2 v 8 a 2,2 0 0 0 2,2 h 12 a 2,2 0 0 0 2,-2 v -8 a 2,2 0 0 0 -2,-2 v -2
             a 6,6 0 0 0 -11.2,-3 a 1,1 0 0 0 1.73,1 a 4,4 0 0 1 7.47,2 v 2
             M 10,16 a 2,2 0 0 1 4,0 a 2,2 0 0 1 -4,0"/>
  </g>
</svg>
