<svg xmlns="http://www.w3.org/2000/svg" viewBox="0 0 24 24">
  <defs>
    <style id="current-color-scheme" type="text/css">
      .ColorScheme-Text { color: #D8D8D8 }
    </style>
  </defs>
  <g class="ColorScheme-Text" style="fill:currentColor">
    <path d="m 5,16 h -1.79 c -0.45,0 -0.67,0.54 -0.36,0.85 l 2.79,2.79 c 0.2,0.2 0.52,0.2 0.72,0 l 2.79,-2.79 c 0.31,-0.31 0.1,-0.85 -0.36,-0.85 h -1.79
             v -10 a 1,1 0 0 0 -2,0"/>

    <path d="m 17.84,10.5 q -0.11,-0.36 -0.25,-0.74 -0.13,-0.38 -0.26,-0.76 h -2.7 q -0.13,0.38 -0.27,0.76 -0.13,0.38 -0.24,0.74 h -1.62 q 0.39,-1.12 0.74,-2.07 0.35,-0.95 0.68,-1.79 0.34,-0.84 0.66,-1.59 0.33,-0.76 0.68,-1.48 h 1.49 q 0.34,0.72 0.67,1.48 0.33,0.75 0.66,1.59 0.34,0.84 0.69,1.79 0.35,0.95 0.74,2.07 z m -1.87,-5.36 q -0.1,0.15 -0.15,0.41 -0.1,0.26 -0.23,0.6 -0.13,0.34 -0.29,0.75 -0.15,0.41 -0.31,0.86 h 1.97 q -0.16,-0.45 -0.31,-0.86 -0.15,-0.41 -0.29,-0.75 -0.13,-0.34 -0.23,-0.6 -0.1,-0.26 -0.16,-0.41 z"/>
    <path d="m 18.64,14.65 q -0.32,0.33 -0.76,0.86 -0.44,0.52 -0.91,1.14 -0.47,0.62 -0.93,1.28 -0.46,0.66 -0.82,1.26 h 3.53 v 1.31 h -5.45 v -0.93 q 0.28,-0.51 0.68,-1.13 0.41,-0.63 0.85,-1.26 0.44,-0.64 0.89,-1.23 0.46,-0.6 0.85,-1.07 h -3.11 v -1.31 h 5.18 z"/>
    <!--
    <g style="font-family:Ubuntu;font-size:10px;font-weight:bold;text-anchor:middle">
      <text x="16" y="10.5">A</text>
      <text x="16" y="20.5">Z</text>
    </g>
    -->
  </g>
</svg>
