<svg xmlns="http://www.w3.org/2000/svg" viewBox="0 0 24 24">
  <defs>
    <style id="current-color-scheme" type="text/css">
      .ColorScheme-Text { color: #D8D8D8 }
    </style>
  </defs>
  <g class="ColorScheme-Text" style="fill:currentColor">
    <path d="m 5,3 a 2,2 0 0 0 -2,2 v 4 a 2,2 0 0 0 2,2 h 4 a 2,2 0 0 0 2,-2 v -4 a 2,2 0 0 0 -2,-2 z m 0,2 h 4 v 4 h -4 z"/>
    <path d="m 15,3 a 2,2 0 0 0 -2,2 v 4 a 2,2 0 0 0 2,2 h 4 a 2,2 0 0 0 2,-2 v -4 a 2,2 0 0 0 -2,-2 z m 0,2 h 4 v 4 h -4 z"/>
    <path d="m 5,13 a 2,2 0 0 0 -2,2 v 4 a 2,2 0 0 0 2,2 h 4 a 2,2 0 0 0 2,-2 v -4 a 2,2 0 0 0 -2,-2 z m 0,2 h 4 v 4 h -4 z"/>
    <path d="m 15,13 a 2,2 0 0 0 -2,2 v 4 a 2,2 0 0 0 2,2 h 4 a 2,2 0 0 0 2,-2 v -4 a 2,2 0 0 0 -2,-2 z m 0,2 h 4 v 4 h -4 z"/>
  </g>
</svg>
