<svg xmlns="http://www.w3.org/2000/svg" viewBox="0 0 24 24">
  <defs>
    <style id="current-color-scheme" type="text/css">
      .ColorScheme-Text { color: #D8D8D8 }
    </style>
  </defs>
  <g class="ColorScheme-Text" style="fill:currentColor">
    <path d="m 2,6 a 1,1 0 0 0 -1,1 v 11 a 1,1 0 0 0 1,1 h 8 a 1,1 0 0 0 1,-1 v -11 a 1,1 0 0 0 -1,-1 z
             m 1,2 h 6 v 9 h -6"/>
    <path d="m 14,6 a 1,1 0 0 0 -1,1 v 11 a 1,1 0 0 0 1,1 h 8 a 1,1 0 0 0 1,-1 v -11 a 1,1 0 0 0 -1,-1 z
             m 1,2 h 6 v 9 h -6"/>
  </g>
</svg>
