<svg xmlns="http://www.w3.org/2000/svg" viewBox="0 0 24 24">
  <defs>
    <style id="current-color-scheme" type="text/css">
      .ColorScheme-Text { color: #D8D8D8 }
    </style>
  </defs>
  <g class="ColorScheme-Text" style="fill:currentColor">
    <path d="m 9,1 a 1,1 0 0 0 -1,1 v 8 a 1,1 0 0 0 1,1 h 6 a 1,1 0 0 0 1,-1 v -8 a 1,1 0 0 0 -1,-1 z
             m 1,2 h 4 v 6 h -4"/>
    <path d="m 4,13 a 1,1 0 0 0 -1,1 v 8 a 1,1 0 0 0 1,1 h 6 a 1,1 0 0 0 1,-1 v -8 a 1,1 0 0 0 -1,-1 z
             m 1,2 h 4 v 6 h -4"/>
    <path d="m 14,13 a 1,1 0 0 0 -1,1 v 8 a 1,1 0 0 0 1,1 h 6 a 1,1 0 0 0 1,-1 v -8 a 1,1 0 0 0 -1,-1 z
             m 1,2 h 4 v 6 h -4"/>
  </g>
</svg>
