<svg xmlns="http://www.w3.org/2000/svg" viewBox="0 0 24 24">
  <defs>
    <style id="current-color-scheme" type="text/css">
      .ColorScheme-Text { color: #D8D8D8 }
    </style>
  </defs>
  <!--
    The 'visibility' icon is used in Plasma's lock screen to hide the password.
  -->
  <g class="ColorScheme-Text" style="fill:currentColor">
    <path d="M 12 4.5 C 11 4.5 10.03 4.631 9.096 4.867 L 10.81 6.582 C 11.2 6.535 11.6 6.5 12 6.5 C 15.79 6.5 19.17 8.63 20.82 12 C 20.32 13.01 19.66 13.89 18.89 14.66 L 20.3 16.07 C 21.46 14.93 22.39 13.55 23 12 C 21.27 7.61 17 4.5 12 4.5 z M 7.018 5.609 C 4.283 6.887 2.113 9.175 1 12 C 2.73 16.39 7 19.5 12 19.5 C 14.52 19.5 16.85 18.71 18.77 17.36 L 17.33 15.93 C 15.78 16.93 13.95 17.5 12 17.5 C 8.21 17.5 4.83 15.37 3.18 12 C 4.303 9.705 6.239 8.006 8.551 7.143 L 7.018 5.609 z"/>
    <path d="M 12 7.5 A 4.5 4.5 0 0 0 11.74 7.51 L 16.49 12.26 A 4.5 4.5 0 0 0 16.5 12 A 4.5 4.5 0 0 0 12 7.5 z M 9.602 8.193 A 4.5 4.5 0 0 0 7.5 12 A 4.5 4.5 0 0 0 12 16.5 A 4.5 4.5 0 0 0 15.8 14.4 L 9.602 8.193 z"/>
    <path d="m 4.54,3.13 a 0.5,0.5 0 0 0 -1.41,1.41 l 16.33,16.33 a 0.5,0.5 0 0 0 1.41,-1.41 z"/>
  </g>
</svg>
