<svg xmlns="http://www.w3.org/2000/svg" viewBox="0 0 24 24">
  <defs>
    <style id="current-color-scheme" type="text/css">
      .ColorScheme-Text { color: #D8D8D8 }
    </style>
  </defs>
  <g class="ColorScheme-Text" style="fill:currentColor">
    <path d="m 4,8 a 2,2 0 0 0 -2,2 v 10 a 2,2 0 0 0 2,2 h 10 a 2,2 0 0 0 2,-2 v -10 a 2,2 0 0 0 -2,-2 z
           m 0,2 h 10 v 10 h -10 z"/>

    <path d="m 10,2 a 2,2 0 0 0 -2,2 v 2 h 2 v -2 h 10 v 10 h -2 v 2 h 2 a 2,2 0 0 0 2,-2 v -10 a 2,2 0 0 0 -2,-2  z"/>
  </g>
</svg>
