<svg xmlns="http://www.w3.org/2000/svg" viewBox="0 0 24 24">
  <defs>
    <style id="current-color-scheme" type="text/css">
      .ColorScheme-Text { color: #D8D8D8 }
    </style>
  </defs>
  <g class="ColorScheme-Text" style="fill:currentColor">
    <path d="m 4,3 a 2,2 0 0 0 -2,2 v 10 a 2,2 0 0 0 2,2 h 12 a 2,2 0 0 0 2,-2 v -10 a 2,2 0 0 0 -2,-2 z m 0,4 h 12 v 8 h -12"/>
    <path style="fill-opacity:0.625" d="m 6,19 a 2,2 0 0 0 2,2 h 12 a 2,2 0 0 0 2,-2 v -10 a 2,2 0 0 0 -2,-2 v 8 a 4,4 0 0 1 -4,4"/>
  </g>
</svg>
