<svg xmlns="http://www.w3.org/2000/svg" viewBox="0 0 24 24">
  <defs>
    <style id="current-color-scheme" type="text/css">
      .ColorScheme-Text { color: #D8D8D8 }
    </style>
  </defs>
  <g class="ColorScheme-Text" style="fill:currentColor">
    <g transform="rotate(45,12,12)">
      <path d="m 6,4 a 2,2 0 0 0 2,2 v 3 h 8 v -3 a 2,2 0 0 0 2,-2 z"/>
      <path d="m 8,11 v 2 a 3,3 0 0 0 -3,3 h 14 a 3,3 0 0 0 -3,-3 v -2  z"/>
      <path d="m 11,17 v 6 a 1,1 0 0 0 2,0 v -6"/>
    </g>
    <path d="m 4.54,3.13 a 0.5,0.5 0 0 0 -1.41,1.41 l 16.33,16.33 a 0.5,0.5 0 0 0 1.41,-1.41 z"/>
  </g>
</svg>
