<svg xmlns="http://www.w3.org/2000/svg" viewBox="0 0 24 24">
  <defs>
    <style id="current-color-scheme" type="text/css">
      .ColorScheme-Text { color: #D8D8D8 }
    </style>
  </defs>
  <g class="ColorScheme-Text" style="fill:currentColor">
    <path transform="rotate(-45,4,4)"
          d="m 5,8 h 1.79 c 0.45,0 0.67,-0.54 0.36,-0.85 l -2.79,-2.79 c -0.2,-0.2 -0.52,-0.2 -0.72,0 l -2.79,2.79 c -0.31,0.31 -0.09,0.85 0.36,0.85 h 1.79 v 3 a 1,1 0 0 0 2,0 z"/>
    <path transform="rotate(45,20,4)"
          d="m 21,8 h 1.79 c 0.45,0 0.67,-0.54 0.36,-0.85 l -2.79,-2.79 c -0.2,-0.2 -0.52,-0.2 -0.72,0 l -2.79,2.79 c -0.31,0.31 -0.09,0.85 0.36,0.85 h 1.79 v 3 a 1,1 0 0 0 2,0 z"/>

    <path transform="rotate(45,4,20)"
          d="m 3,16 h -1.79 c -0.45,0 -0.67,0.54 -0.36,0.85 l 2.79,2.79 c 0.2,0.2 0.52,0.2 0.72,0 l 2.79,-2.79 c 0.31,-0.31 0.1,-0.85 -0.36,-0.85 h -1.79 v -3 a 1,1 0 0 0 -2,0"/>

    <path transform="rotate(-45,20,20)"
          d="m 19,16 h -1.79 c -0.45,0 -0.67,0.54 -0.36,0.85 l 2.79,2.79 c 0.2,0.2 0.52,0.2 0.72,0 l 2.79,-2.79 c 0.31,-0.31 0.1,-0.85 -0.36,-0.85 h -1.79 v -3 a 1,1 0 0 0 -2,0"/>
  </g>
</svg>
