<svg xmlns="http://www.w3.org/2000/svg" viewBox="0 0 24 24">
  <defs>
    <style id="current-color-scheme" type="text/css">
      .ColorScheme-Text { color: #D8D8D8 }
    </style>
  </defs>
  <g class="ColorScheme-Text" style="fill:currentColor">
    <path d="m 5,2 a 1,1 0 0 0 0,2 h 14 a 1,1 0 0 0 0,-2"/>
    <path d="m 5,20 a 1,1 0 0 0 0,2 h 14 a 1,1 0 0 0 0,-2"/>
    <path d="m 13,8 h 1.79 c 0.45,0 0.67,-0.54 0.36,-0.85 l -2.79,-2.79 c -0.2,-0.2 -0.52,-0.2 -0.72,0 l -2.79,2.79 c -0.31,0.31 -0.09,0.85 0.36,0.85 l 1.79,0
       v 8 h -1.79 c -0.45,0 -0.67,0.54 -0.36,0.85 l 2.79,2.79 c 0.2,0.2 0.52,0.2 0.72,0 l 2.79,-2.79 c 0.31,-0.31 0.1,-0.85 -0.36,-0.85 h -1.79 z"/>
  </g>
</svg>
