<svg xmlns="http://www.w3.org/2000/svg" viewBox="0 0 24 24">
  <defs>
    <style id="current-color-scheme" type="text/css">
      .ColorScheme-Text { color: #484848 }
    </style>
  </defs>
  <g class="ColorScheme-Text" style="fill:currentColor">
    <!-- today (rounded) -->
    <path d="M19,4h-1V3c0-0.55-0.45-1-1-1s-1,0.45-1,1v1H8V3c0-0.55-0.45-1-1-1S6,2.45,6,3v1H5C3.89,4,3.01,4.9,3.01,6L3,20 c0,1.1,0.89,2,2,2h14c1.1,0,2-0.9,2-2V6C21,4.9,20.1,4,19,4z M19,20H5V10h14V20z M8,12h3c0.55,0,1,0.45,1,1v3c0,0.55-0.45,1-1,1H8 c-0.55,0-1-0.45-1-1v-3C7,12.45,7.45,12,8,12z"/>
  </g>
</svg>
