<svg xmlns="http://www.w3.org/2000/svg" viewBox="0 0 24 24">
  <defs>
    <style id="current-color-scheme" type="text/css">
      .ColorScheme-Text { color: #484848 }
    </style>
  </defs>
  <g class="ColorScheme-Text" style="fill:currentColor">
    <!-- calendar_today (rounded) -->
    <path d="M19,4h-1V3c0-0.55-0.45-1-1-1h0c-0.55,0-1,0.45-1,1v1H8V3c0-0.55-0.45-1-1-1h0C6.45,2,6,2.45,6,3v1H5 C3.89,4,3.01,4.9,3.01,6L3,20c0,1.1,0.89,2,2,2h14c1.1,0,2-0.9,2-2V6C21,4.9,20.1,4,19,4z M19,20H5V10h14V20z"/>
  </g>
</svg>
