<svg xmlns="http://www.w3.org/2000/svg" viewBox="0 0 24 24">
  <defs>
    <linearGradient id="board" x1="0%" y1="0%" x2="0%" y2="100%">
      <stop offset="0%" style="stop-color:#9E9E9E"/> <!-- Gray 500 -->
      <stop offset="100%" style="stop-color:#616161"/> <!-- Gray 700 -->
    </linearGradient>
    <linearGradient id="clip" x1="0%" y1="0%" x2="0%" y2="100%">
      <stop offset="0%" style="stop-color:#E0E0E0"/> <!-- Gray 300 -->
      <stop offset="100%" style="stop-color:#BDBDBD"/> <!-- Gray 400 -->
    </linearGradient>
  </defs>
  <path style="fill:url(#board)"
        d="m 6,3 h -1 a 2,2 0 0 0 -2,2 v 16 a 2,2 0 0 0 2,2 h 14 a 2,2 0 0 0 2,-2 v -16 a 2,2 0 0 0 -2,-2
           h -1 v 4 a 2,2 0 0 1 -2,2 h -8 a 2,2 0 0 1 -2,-2 z"/>
  <path style="fill:url(#clip)"
        d="m 7,3 v 4 a 1,1 0 0 0 1,1 h 8 a 1,1 0 0 0 1,-1 v -4 h -2.175 a 3,3 0 0 0 -5.65,0 z
           m 5,0 a 1,1 0 0 1 0,2 a 1,1 0 0 1 0,-2"/>
</svg>
