<svg xmlns="http://www.w3.org/2000/svg" viewBox="0 0 32 32">
  <defs>
    <linearGradient id="shackle-inner" x1="0" y1="0" x2="100%" y2="0">
      <stop offset="0%" style="stop-color:black;stop-opacity:0.25"/>
      <stop offset="100%" style="stop-color:black;stop-opacity:0"/>
    </linearGradient>
    <linearGradient id="body" x1="0%" y1="0%" x2="100%" y2="0%">
      <stop offset="0%" style="stop-color:#FBC02D"/> <!-- Yellow 700 -->
      <stop offset="25%" style="stop-color:#FFA000"/> <!-- Amber 700 -->
      <stop offset="75%" style="stop-color:#FFA000"/>
      <stop offset="100%" style="stop-color:#FBC02D"/>
    </linearGradient>
    <style type="text/css">
      .shackle { fill: #9E9E9E /* Gray 500 */ }
      .lighten-strongly { fill: white; fill-opacity: 0.25 }
      .darken { fill: black; fill-opacity: 0.125 }
    </style>
  </defs>

  <!-- Shackle (16x12px) -->
  <g transform="translate(8,3)">
    <path class="shackle" d="m 0,8 v 4 h 3 v -4 a 5,5 0 0 1 10,0 v 4 h 3 v -4 a 8,8 0 0 0 -16,0"/>
    <path style="fill:url(#shackle-inner)" d ="m 1.5,8 v 4 h 1.5 v -4 a 5,5 0 0 1 10,0 v 4 h 1.5 v -4 a 6.5,6.5 0 0 0 -13,0"/>
  </g>

  <!-- Body (20x14px) -->
  <g transform="translate(6,15)">
    <path style="fill:url(#body)" d="m 2,0 a 2,2 0 0 0 -2,2 v 10 a 2,2 0 0 0 2,2 h 16 a 2,2 0 0 0 2,-2 v -10 a 2,2 0 0 0 -2,-2"/>
    <path class="lighten-strongly" d="m 2,0 a 2,2 0 0 0 -2,2 a 2,1 0 0 1 2,-1 h 16 a 2,2 0 0 1 2,1 a 2,2 0 0 0 -2,-2"/>
    <path class="darken" d="m 2,13 a 2,1 0 0 1 -2,-1 a 2,2 0 0 0 2,2 h 16 a 2,2 0 0 0 2,-2 a 2,1 0 0 1 -2,1"/>
  </g>
</svg>
