<svg xmlns="http://www.w3.org/2000/svg" viewBox="0 0 96 96">
  <defs>
    <linearGradient id="monitor-border" x1="0%" y1="0%" x2="0%" y2="100%">
      <stop offset="0%" style="stop-color:#BDBDBD"/> <!-- Gray 400 -->
      <stop offset="100%" style="stop-color:#9E9E9E"/> <!-- Gray 500 -->
    </linearGradient>
    <linearGradient id="screen-border" x1="0%" y1="0%" x2="0%" y2="100%">
      <stop offset="0%" style="stop-color:#424242"/> <!-- Gray 800 -->
      <stop offset="100%" style="stop-color:#212121"/> <!-- Gray 900 -->
    </linearGradient>
    <linearGradient id="login-screen-background" x1="0%" y1="0%" x2="100%" y2="100%">
      <stop offset="0%" style="stop-color:#9C27B0"/> <!-- Purple 500 -->
      <stop offset="100%" style="stop-color:#283593"/> <!-- Indigo 800 -->
    </linearGradient>
    <style type="text/css">
      .monitor-stand { fill: #808080 }
      .login-screen-foreground { color: white }
      .lighten { fill: white; fill-opacity: 0.125 }
      .darken-slightly { fill: black; fill-opacity: 0.0625 }
      .darken { fill: black; fill-opacity: 0.125 }
      .darken-strongly { fill: black; fill-opacity: 0.25 }
    </style>
  </defs>

  <!-- Monitor -->
  <g transform="scale(2)">
    <path style="fill:url(#monitor-border)" d="m 4,7 a 2,2 0 0 0 -2,2 v 30 a 2,2 0 0 0 2,2 h 40 a 2,2 0 0 0 2,-2 v -30 a 2,2 0 0 0 -2,-2 z m 0,2 h 40 v 30 h -40 z"/>
    <rect style="fill:url(#screen)" x="5" y="10" width="38" height="28"/>
    <path style="fill:url(#screen-border)" d="m 4,9 v 30 h 40 v -30 z m 1,1 h 38 v 28 h -38"/>
    <path class="monitor-stand" d="m 16,41 v 3 a 2,2 0 0 0 2,2 h 12 a 2,2 0 0 0 2,-2 v -3 z"/>
    <rect class="darken-strongly" x="16" y="41" width="16" height="1"/>
  </g>

  <!-- Login screen -->
  <rect style="fill:url(#login-screen-background)" x="10" y="20" width="76" height="56"/>
  <g class="login-screen-foreground">
    <g transform="translate(48,40)" style="fill:currentColor">
      <circle style="fill-opacity:0.25" r="12"/>
      <circle cy="-4" r="5"/>
      <path d="M -10.4,6 A 12,12 0 0 0 10.4,6 A 12,6 0 0 0 -10.4,6"/>
    </g>
    <g transform="translate(48,60)">
      <rect style="fill:currentColor;fill-opacity:0.5" x="-12" width="24" height="6" rx="1" ry="1"/>
      <path style="fill:none;stroke:currentColor;stroke-linecap:round;stroke-linejoin:round" d="m 16,1 2,2 -2,2"/>
    </g>
  </g>
</svg>
