<svg xmlns="http://www.w3.org/2000/svg" viewBox="0 0 24 24">
  <defs>
    <linearGradient id="symbol" x1="0" y1="0" x2="0" y2="24" gradientUnits="userSpaceOnUse">
      <stop offset="0%" style="stop-color:#BBDEFB"/> <!-- Blue 100 -->
      <stop offset="100%" style="stop-color:#90CAF9"/> <!-- Blue 200 -->
    </linearGradient>
  </defs>
  <path style="fill:url(#symbol)"
        d="M 3,3 a 1,1 0 0 0 -1,1 v 16 a 1,1 0 0 0 1,1 h 18 a 1,1 0 0 0 1,-1 v -16 a 1,1 0 0 0 -1,-1
           M 7,6 a 2,2 0 0 1 0,4 a 2,2 0 0 1 0,-4
           M 4,19 l 0,-1 4,-4 5,5 m 1,0 -3.5,-3.5 3.5,-3.5 6,6 0,1"/>
</svg>
