<svg xmlns="http://www.w3.org/2000/svg" viewBox="0 0 24 24">
  <defs>
    <linearGradient id="symbol" x1="0" y1="0" x2="0" y2="24" gradientUnits="userSpaceOnUse">      
      <stop offset="0%" style="stop-color:#BBDEFB"/> <!-- Blue 100 -->
      <stop offset="100%" style="stop-color:#90CAF9"/> <!-- Blue 200 -->
    </linearGradient>
  </defs>
  <path style="fill:url(#symbol)"
        d="m 4,5 a 1,1 0 0 0 -1,1 v 16 a 1,1 0 0 0 1,1 h 12 a 1,1 0 0 0 1,-1 v -12 l -5,-5 z
           m 2,9 a 1,1 0 0 1 0,-2 h 8 a 1,1 0 0 1 0,2 z
           m 0,3 a 1,1 0 0 1 0,-2 h 8 a 1,1 0 0 1 0,2 z
           m 0,3 a 1,1 0 0 1 0,-2 h 4 a 1,1 0 0 1 0,2 z
           M 8,1 a 1,1 0 0 0 -1,1 v 1 h 5.8 l 6.2,6.2 v 9.8 h 1 a 1,1 0 0 0 1,-1 v -12 l -5,-5"/>
</svg>
