<svg xmlns="http://www.w3.org/2000/svg" viewBox="0 0 24 24">
  <defs>
    <linearGradient id="background" x1="0" y1="0" x2="0" y2="100%">
      <stop offset="0%" style="stop-color:#BBDEFB"/> <!-- Blue 100 -->
      <stop offset="100%" style="stop-color:#90CAF9"/> <!-- Blue 200 -->
    </linearGradient>
    <style type="text/css">
      .background { fill: url(#background); stroke: #1976D2 /* Blue 700 */ }
      .symbol { fill: #0D47A1 /* Blue 900 */ }
    </style>
  </defs>
  <g transform="translate(12,12)">
    <circle class="background" r="11.5"/>
    <path class="symbol"
          transform="scale(0.8)"
          d="M  2.69, -3.71 l -1.76, -5.40 a 1,1 0 0 0 -1.90, 0
             L -2.69, -3.71 h -5.68        a 1,1 0 0 0 -0.59, 1.80
             L -4.35,  1.40 l -1.76,  5.40 a 1,1 0 0 0  1.54, 1.12
             L     0,  4.59 l  4.60,  3.33 a 1,1 0 0 0  1.54,-1.12
             L  4.35,  1.40 l  4.60, -3.33 a 1,1 0 0 0 -0.59,-1.80"/>
  </g>
</svg>
