<svg xmlns="http://www.w3.org/2000/svg" viewBox="0 0 64 64">
  <defs>
    <linearGradient id="folder-front" x1="0%" y1="0%" x2="0%" y2="100%">
      <stop offset="0%" style="stop-color:#64B5F6"/> <!-- Blue 300 -->
      <stop offset="100%" style="stop-color:#42A5F5"/> <!-- Blue 400 -->
    </linearGradient>
    <style type="text/css">
      .folder-back { fill: #1976D2 /* Blue 700 */ }
      .folder-front { fill: url(#folder-front) }
      .symbol { fill: black; opacity: 0.5 }
      .lighten { fill: white; fill-opacity: 0.125 }
      .darken { fill: black; fill-opacity: 0.125 }
    </style>
  </defs>

  <!-- Folder -->
  <path class="folder-back" d="m 6,12.67 a 2.67,2.67 0 0 1 2.67,-2.67 h 15.33 c 2,0 2,0 4,2 l 4,4 h 23.33 a 2.67,2.67 0 0 1 2.67,2.67 v 6 a 2.67,2.67 0 0 0 -2.67,-2.67 h -46.66 a 2.67,2.67 0 0 0 -2.67,2.67"/>
  <path class="darken" d="m 8.67,21 a 3.67,3.67 0 0 0 -2.67,1.15 v 2.52 a 2.67,2.67 0 0 1 2.67,-2.67 h 46.66 a 2.67,2.67 0 0 1 2.67,2.67 v -2.52 a 3.67,3.67 0 0 0 -2.67,-1.15"/>
  <rect class="folder-front" x="6" y="22" width="52" height="32" rx="2.67" ry="2.67"/>
  <path class="lighten" d="m 8.67,22 a 2.67,2.67 0 0 0 -2.67,2.67 a 2.67,1.67 0 0 1 2.67,-1.67 h 46.66 a 2.67,1.67 0 0 1 2.67,1.67 a 2.67,2.67 0 0 0 -2.67,-2.67"/>
  <path class="darken" d="m 8.67,53 a 2.67,1.67 0 0 1 -2.67,-1.67 a 2.67,2.67 0 0 0 2.67,2.67 h 46.66 a 2.67,2.67 0 0 0 2.67,-2.67 a 2.67,1.67 0 0 1 -2.67,1.67"/>

  <!-- Symbol (24x24) -->
  <g class="symbol" transform="translate(20,26)">
    <!--
    <path d="M 19 1 A 4 4 0 0 0 15 5 A 4 4 0 0 0 15.11 5.889
             L 8.049 9.418 A 4 4 0 0 0 5 8 A 4 4 0 0 0 1 12 A 4 4 0 0 0 5 16 A 4 4 0 0 0 8.053 14.58
             L 15.1 18.11 A 4 4 0 0 0 15 19 A 4 4 0 0 0 19 23 A 4 4 0 0 0 23 19 A 4 4 0 0 0 19 15 A 4 4 0 0 0 15.95 16.42
             L 8.896 12.89 A 4 4 0 0 0 9 12 A 4 4 0 0 0 8.895 11.11 L 15.95 7.582 A 4 4 0 0 0 19 9 A 4 4 0 0 0 23 5 A 4 4 0 0 0 19 1 z"/>
    -->
    <circle cx="5" cy="12" r="4"/>
    <circle cx="19" cy="5" r="4"/>
    <circle cx="19" cy="19" r="4"/>

    <path d="M 14.17 6.287 L 8.926 8.912 A 5 5 0 0 1 9.826 10.71 L 15.07 8.088 A 5 5 0 0 1 14.17 6.287 z
             M 9.83 13.29 A 5 5 0 0 1 8.93 15.09 L 14.17 17.71 A 5 5 0 0 1 15.07 15.91 L 9.83 13.29 z"/>
  </g>
</svg>
