<svg xmlns="http://www.w3.org/2000/svg" viewBox="0 0 24 24">
  <defs>
    <style id="current-color-scheme" type="text/css">
      .ColorScheme-Text { color: #D8D8D8 }
    </style>
  </defs>
  <g class="ColorScheme-Text" style="fill:currentColor">
    <!-- inbox (rounded) -->
    <path d="M19 3H4.99c-1.11 0-1.98.89-1.98 2L3 19c0 1.1.88 2 1.99 2H19c1.1 0 2-.9 2-2V5c0-1.11-.9-2-2-2zm0 12h-3.13c-.47 0-.85.34-.98.8-.35 1.27-1.52 2.2-2.89 2.2s-2.54-.93-2.89-2.2c-.13-.46-.51-.8-.98-.8H5V6c0-.55.45-1 1-1h12c.55 0 1 .45 1 1v9z"/>

    <!-- arrow up -->
    <path transform="translate(0,-8)" d="M9.21 19H11v3c0 .55.45 1 1 1s1-.45 1-1v-3h1.79c.45 0 .67-.54.35-.85l-2.79-2.79c-.2-.2-.51-.2-.71 0l-2.79 2.79c-.31.31-.09.85.36.85"/>
  </g>
</svg>
