<svg xmlns="http://www.w3.org/2000/svg" viewBox="0 0 24 24">
  <defs>
    <style type="text/css">
      .symbol { fill: #BBDEFB; /* Blue 100 */ }
    </style>
  </defs>
  <g class="symbol">
    <path d="m 1,15 a 2,2 0 0 0 2,2 h 1 a 2,2 0 0 0 2,-2 v -3 a 2,2 0 0 0 -2,-2 h -1 a 2,2 0 0 0 -2,2 z
             m 2,1 a 1,1 0 0 1 -1,-1v -3 a 1,1 0 0 1 1,-1 h 1 a 1,1 0 0 1 1,1 v 3 a 1,1 0 0 1 -1,1"/>
    <circle cx="3.5" cy="13.5" r="0.5"/>
    <path d="m 9,16 h -2 v 1 h 5 v -1 h -2 v -6 h -3 v 1 h 2"/>
    <path d="m 13,15 a 2,2 0 0 0 2,2 h 1 a 2,2 0 0 0 2,-2 v -3 a 2,2 0 0 0 -2,-2 h -1 a 2,2 0 0 0 -2,2 z
             m 2,1 a 1,1 0 0 1 -1,-1v -3 a 1,1 0 0 1 1,-1 h 1 a 1,1 0 0 1 1,1 v 3 a 1,1 0 0 1 -1,1"/>
    <circle cx="15.5" cy="13.5" r="0.5"/>
    <path d="m 21,16 h -2 v 1 h 5 v -1 h -2 v -6 h -3 v 1 h 2"/>
  </g>
</svg>
