<svg xmlns="http://www.w3.org/2000/svg" viewBox="0 0 24 24">
  <defs>
    <style type="text/css">
      .symbol {
        fill: none;
        stroke: #FFF59D; /* Yellow 200 */
        stroke-width: 2;
      }
    </style>
  </defs>
  <g class="symbol">
    <path d="M 9.75,3.75 h -0.75 a 3,3 0 0 0 -3,3 v 0.75 a 4.5,4.5 0 0 1 -4.5,4.5 a 4.5,4.5 0 0 1 4.5,4.5 v 0.75 a 3,3 0 0 0 3,3 h 0.75
             M 14.25,3.75 h 0.75 a 3,3 0 0 1 3,3 v 0.75 a 4.5,4.5 0 0 0 4.5,4.5 a 4.5,4.5 0 0 0 -4.5,4.5 v 0.75 a 3,3 0 0 1 -3,3 h -0.75"/>
  </g>
</svg>
