<svg xmlns="http://www.w3.org/2000/svg" viewBox="0 0 24 24">
  <defs>
    <style type="text/css">
      .symbol { fill: #90CAF9 /* Blue 200 */ }
    </style>
  </defs>
  <g class="symbol">
    <path d="m 11.93,5.776 v 2.394 h -3.764 v 10.08 h -2.808 v -10.08 h -3.762 v -2.394 z"/>
    <path d="m 17.13,16.11 q 0.59,0 0.97,-0.1 0.4,-0.11 0.63,-0.27 0.24,-0.18 0.33,-0.42 0.1,-0.23 0.1,-0.52 0,-0.61 -0.58,-1.01 -0.58,-0.41 -1.98,-0.88 -0.61,-0.21 -1.22,-0.48 -0.62,-0.29 -1.1,-0.71 -0.49,-0.43 -0.79,-1.02 -0.31,-0.61 -0.31,-1.478 0,-0.864 0.32,-1.548 0.33,-0.702 0.92,-1.188 0.6,-0.486 1.44,-0.738 0.85,-0.27 1.91,-0.27 1.26,0 2.18,0.27 0.92,0.27 1.51,0.594 l -0.81,2.214 q -0.52,-0.27 -1.17,-0.468 -0.63,-0.216 -1.53,-0.216 -1.01,0 -1.46,0.288 -0.43,0.27 -0.43,0.846 0,0.342 0.16,0.576 0.16,0.234 0.45,0.428 0.31,0.18 0.69,0.35 0.39,0.14 0.86,0.3 0.97,0.36 1.69,0.72 0.72,0.34 1.19,0.81 0.49,0.47 0.72,1.1 0.23,0.63 0.23,1.53 0,1.75 -1.22,2.72 -1.22,0.95 -3.69,0.95 -0.83,0 -1.49,-0.11 -0.67,-0.1 -1.19,-0.23 -0.51,-0.14 -0.88,-0.31 -0.36,-0.16 -0.62,-0.3 l 0.8,-2.23 q 0.55,0.3 1.36,0.55 0.83,0.24 2.02,0.24 z"/>
  </g>
  <!--
  <text style="font-family:Ubuntu;font-size:18px;font-weight:bold;text-anchor:middle" x="12" y="18.25">TS</text>
  -->
</svg>
