<svg xmlns="http://www.w3.org/2000/svg" viewBox="0 0 32 32">
  <defs>
    <linearGradient id="camera-housing" x1="0%" y1="0%" x2="0%" y2="100%">
      <stop offset="0%" style="stop-color:#BDBDBD"/> <!-- Gray 400 -->
      <stop offset="100%" style="stop-color:#757575"/> <!-- Gray 600 -->
    </linearGradient>
    <linearGradient id="camera-objective-border" x1="0%" y1="0%" x2="0%" y2="100%">
      <stop offset="0%" style="stop-color:#F5F5F5"/> <!-- Gray 100 -->
      <stop offset="100%" style="stop-color:#BDBDBD"/> <!-- Gray 400 -->
    </linearGradient>
    <radialGradient id="camera-objective" r="50%">
      <stop offset="0%" style="stop-color:#424242"/> <!-- Gray 800 -->
      <stop offset="100%" style="stop-color:#616161"/> <!-- Gray 700 -->
    </radialGradient>
    <style type="text/css">
      .camera-housing-top { fill: #BDBDBD }
      .lighten { fill: white; fill-opacity: 0.125 }
      .darken { fill: black; fill-opacity: 0.125 }
      .darken-slightly { fill: black; fill-opacity: 0.0625 }
    </style>
  </defs>

  <!-- Camera housing -->
  <path style="fill:url(#camera-housing)" d="m 5,6 a 2,2 0 0 0 -2,2 v 16 a 2,2 0 0 0 2,2 h 22 a 2,2 0 0 0 2,-2 v -16 a 2,2 0 0 0 -2,-2"/>
  <path class="lighten" d="m 5,6 a 2,2 0 0 0 -2,2 a 2,1 0 0 1 2,-1 h 22 a 2,1 0 0 1 2,1 a 2,2 0 0 0 -2,-2"/>
  <path class="darken" d="m 5,25 a 2,1 0 0 1 -2,-1 a 2,2 0 0 0 2,2 h 22 a 2,2 0 0 0 2,-2 a 2,1 0 0 1 -2,1"/>

  <path class="camera-housing-top" d="m 9,6 h 14 l -3,-3 h -8"/>

  <!-- Objective -->
  <g transform="translate(16,16)">
    <circle class="darken-slightly" r="9"/>
    <path class="darken-slightly" d="m -8,0 a 9,9 0 0 0 16,0 a 8,9 0 0 1 -16,0"/>
    <circle style="fill:url(#camera-objective-border)" r="8"/>
    <circle style="fill:url(#camera-objective)" r="5" />
  </g>
</svg>
