<svg xmlns="http://www.w3.org/2000/svg" viewBox="0 0 32 32">
  <defs>
    <linearGradient id="camera-housing" x1="0%" y1="0%" x2="0%" y2="100%">
      <stop offset="0%" style="stop-color:#E0E0E0"/> <!-- Gray 300 -->
      <stop offset="100%" style="stop-color:#9E9E9E"/> <!-- Gray 500 -->
    </linearGradient>
    <linearGradient id="camera-objective" x1="0%" y1="0%" x2="0%" y2="100%">
      <stop offset="0%" style="stop-color:#BDBDBD"/> <!-- Gray 400 -->
      <stop offset="100%" style="stop-color:#757575"/> <!-- Gray 600 -->
    </linearGradient>
    <style type="text/css">
      .lighten { fill: white; fill-opacity: 0.125 }
      .darken { fill: black; fill-opacity: 0.125 }
    </style>
  </defs>
  <path style="fill:url(#camera-housing)" d="m 4,7 a 2,2 0 0 0 -2,2 v 14 a 2,2 0 0 0 2,2 h 18 a 2,2 0 0 0 2,-2 v -14 a 2,2 0 0 0 -2,-2"/>
  <path class="lighten" d="m 4,7 a 2,2 0 0 0 -2,2 a 2,1 0 0 1 2,-1 h 18 a 2,1 0 0 1 2,1 a 2,2 0 0 0 -2,-2"/>
  <path class="darken" d="m 4,24 a 2,1 0 0 1 -2,-1 a 2,2 0 0 0 2,2 h 18 a 2,2 0 0 0 2,-2 a 2,1 0 0 1 -2,1"/>
  <path style="fill:url(#camera-objective)" d="m 30,16 v -7.58 c 0,-0.45 -0.54,-0.67 -0.85,-0.36 l -5.15,5.15 v 6 l 5.15,5.15 c 0.31,0.31 0.85,0.09 0.85,-0.36"/>
</svg>
