<svg xmlns="http://www.w3.org/2000/svg" viewBox="0 0 32 32">
  <defs>
    <linearGradient id="usb-stick" x1="0%" y1="0%" x2="0%" y2="100%">
      <stop offset="0%" style="stop-color:#9E9E9E"/> <!-- Gray 500 -->
      <stop offset="100%" style="stop-color:#616161"/> <!-- Gray 700 -->
    </linearGradient>
    <linearGradient id="usb-plug" x1="0%" y1="0%" x2="0%" y2="100%">
      <stop offset="0%" style="stop-color:#E0E0E0"/> <!-- Gray 300 -->
      <stop offset="100%" style="stop-color:#9E9E9E"/> <!-- Gray 500 -->
    </linearGradient>
    <linearGradient id="notch" x1="0%" y1="0%" x2="0%" y2="100%">
      <stop offset="0%" style="stop-color:#616161"/> <!-- Gray 700 -->
      <stop offset="100%" style="stop-color:#757575"/> <!-- Gray 600 -->
    </linearGradient>
    <style type="text/css">
      .lighten { fill: white; fill-opacity: 0.125 }
      .darken { fill: black; fill-opacity: 0.125 }
    </style>
  </defs>

  <!-- USB Stick -->
  <path style="fill:url(#usb-stick)" d="m 8,8 a 6,6 0 0 0 -6,6 v 4 a 6,6 0 0 0 6,6 h 14 a 2,2 0 0 0 2,-2 v -12 a 2,2 0 0 0 -2,-2"/>
  <path class="lighten" d="m 8,8 a 6,6 0 0 0 -6,6 a 6,5 0 0 1 6,-5 h 14 a 2,1 0 0 1 2,1 a 2,2 0 0 0 -2,-2"/>
  <path class="darken" d="m 8,23 a 6,5 0 0 1 -6,-5 a 6,6 0 0 0 6,6 h 14 a 2,2 0 0 0 2,-2 a 2,1 0 0 1 -2,1"/>

  <!-- USB Plug -->
  <path style="fill:url(#usb-plug)" d="m 24,11 v 10 h 4 a 2,2 0 0 0 2,-2 v -6 a 2,2 0 0 0 -2,-2"/>
  <rect class="darken" x="24" y="11" width="1" height="10"/>

  <rect style="fill:url(#notch)" x="26" y="12" width="2" height="3"/>
  <rect class="darken" x="26" y="12" width="2" height="1"/>

  <rect style="fill:url(#notch)" x="26" y="17" width="2" height="3"/>
  <rect class="darken" x="26" y="17" width="2" height="1"/>
</svg>
