<svg xmlns="http://www.w3.org/2000/svg" viewBox="0 0 32 32">
  <defs>
    <linearGradient id="tablet-border" x1="0%" y1="0%" x2="0%" y2="100%">
      <stop offset="0%" style="stop-color:#BDBDBD"/> <!-- Gray 400 -->
      <stop offset="100%" style="stop-color:#9E9E9E"/> <!-- Gray 500 -->
    </linearGradient>
    <linearGradient id="screen" x1="0%" y1="0%" x2="0%" y2="100%">
      <stop offset="0%" style="stop-color:#616161"/> <!-- Gray 700 -->
      <stop offset="100%" style="stop-color:#212121"/> <!-- Gray 900 -->
    </linearGradient>
    <style type="text/css">
      .home-button { fill: #424242 } /* Gray 800 */
      .lighten { fill: white; fill-opacity: 0.125 }
      .darken { fill: black; fill-opacity: 0.125 }
    </style>
  </defs>
  <path style="fill:url(#tablet-border)" d="m 7,2 a 2,2 0 0 0 -2,2 v 24 a 2,2 0 0 0 2,2 h 18 a 2,2 0 0 0 2,-2 v -24 a 2,2 0 0 0 -2,-2 z m 0,4 h 18 v 20 h -18 z"/>
  <rect style="fill:url(#screen)" x="7" y="6" width="18" height="20"/>
  <circle class="home-button" cx="16" cy="28" r="1"/>
  <path class="lighten" d="m 7,2 a 2,2 0 0 0 -2,2 a 2,1 0 0 1 2,-1 h 18 a 2,1 0 0 1 2,1 a 2,2 0 0 0 -2,-2"/>
  <path class="darken" d="m 7,29 a 2,1 0 0 1 -2,-1 a 2,2 0 0 0 2,2 h 18 a 2,2 0 0 0 2,-2 a 2,1 0 0 1 -2,1"/>
</svg>
