<svg xmlns="http://www.w3.org/2000/svg" viewBox="0 0 32 32">
  <defs>
    <linearGradient id="surface" x1="0%" y1="0%" x2="0%" y2="100%">
      <stop offset="0%" style="stop-color:#E0E0E0"/> <!-- Gray 300 -->
      <stop offset="100%" style="stop-color:#9E9E9E"/> <!-- Gray 500 -->
    </linearGradient>
    <style type="text/css">
      .lighten-very-strongly { fill: white; fill-opacity: 0.375 }
      .darken-very-strongly { fill:black; fill-opacity: 0.375 }
      .darken { fill:black; fill-opacity: 0.125 }
    </style>
  </defs>

  <!-- Surface -->
  <path style="fill:url(#surface)" d="m 26,12 a 10,10 0 0 0 -20,0 v 8 a 10,10 0 0 0 20,0"/>
  <path class="darken" d="m 6,20 a 10,10 0 0 0 20,0 a 10,9 0 0 1 -20,0"/>

  <!-- Mouse button borders -->
  <path class="darken-very-strongly" d="m 6,13 v -1 h 9 v -9.94 a 16,16 0 0 1 1,-0.06 v 11"/>
  <path class="lighten-very-strongly" d="m 16,2 v 11 l 1,-1 v -9.94 a 16,16 0 0 1 -1,-0.06"/>
  <path class="darken-very-strongly" d="m 16,13 h 10 v -1 h -9"/>
  <rect class="lighten-very-strongly" x="6" y="13" width="20" height="1"/>
</svg>
