<svg xmlns="http://www.w3.org/2000/svg" viewBox="0 0 32 32">
  <defs>
    <linearGradient id="printer-housing" x1="0%" y1="0%" x2="0%" y2="100%">
      <stop offset="0%" style="stop-color:#BDBDBD"/> <!-- Gray 400 -->
      <stop offset="100%" style="stop-color:#9E9E9E"/> <!-- Gray 500 -->
    </linearGradient>
    <linearGradient id="paper-output-tray" x1="0%" y1="0%" x2="0%" y2="100%">
      <stop offset="0%" style="stop-color:#424242"/> <!-- Gray 800 -->
      <stop offset="100%" style="stop-color:#616161"/> <!-- Gray 700 -->
    </linearGradient>
    <linearGradient id="paper-feed" x1="0%" y1="0%" x2="0%" y2="100%">
      <stop offset="0%" style="stop-color:#9E9E9E"/> <!-- Gray 500 -->
      <stop offset="100%" style="stop-color:#757575"/> <!-- Gray 600 -->
    </linearGradient>
    <linearGradient id="paper-output" x1="0%" y1="0%" x2="0%" y2="100%">
      <stop offset="0%" style="stop-color:#E0E0E0"/> <!-- Gray 300 -->
      <stop offset="100%" style="stop-color:#BDBDBD"/> <!-- Gray 400 -->
    </linearGradient>
    <linearGradient id="led-green" x1="0%" y1="0%" x2="0%" y2="100%">
      <stop offset="0%" style="stop-color:#2E7D32"/> <!-- Green 800 -->
      <stop offset="100%" style="stop-color:#1B5E20"/> <!-- Green 900 -->
    </linearGradient>
    <style type="text/css">
      .lighten { fill: white; fill-opacity: 0.125 }
      .darken { fill: black; fill-opacity: 0.125 }
    </style>
  </defs>
  <path style="fill:url(#paper-feed)" d="m 9,4 a 1,1 0 0 0 -1,1 v 6 h 16 v -6 a 1,1 0 0 0 -1,-1 z"/>
  <path style="fill:url(#printer-housing)" d="m 5,11 a 2,2 0 0 0 -2,2 v 8 a 2,2 0 0 0 2,2 h 22 a 2,2 0 0 0 2,-2 v -8 a 2,2 0 0 0 -2,-2"/>
  <circle style="fill:url(#led-green)" cx="26" cy="14" r="1"/>
  <path class="lighten" d="m 5,11 a 2,2 0 0 0 -2,2 a 2,1 0 0 1 2,-1 h 22 a 2,1 0 0 1 2,1 a 2,2 0 0 0 -2,-2"/>
  <path class="darken" d="m 5,22 a 2,1 0 0 1 -2,-1 a 2,2 0 0 0 2,2 h 22 a 2,2 0 0 0 2,-2 a 2,1 0 0 1 -2,1"/>

  <rect style="fill:url(#paper-output-tray)" x="7" y="19" width="18" height="4"/>
  <path style="fill:url(#paper-output)" d="m 8,20 v 7 a 1,1 0 0 0 1,1 h 14 a 1,1 0 0 0 1,-1 v -7 z"/>
  <rect class="darken" x="8" y="20" width="16" height="1"/>
</svg>
