<svg xmlns="http://www.w3.org/2000/svg" viewBox="0 0 48 48">
  <defs>
    <linearGradient id="window-background" x1="0%" y1="0%" x2="0%" y2="100%">
      <stop offset="0%" style="stop-color:#E0E0E0"/> <!-- Gray 300 -->
      <stop offset="100%" style="stop-color:#BDBDBD"/> <!-- Gray 400 -->
    </linearGradient>
    <linearGradient id="titlebar-background" x1="0%" y1="0%" x2="0%" y2="100%">
      <stop offset="0%" style="stop-color:#9E9E9E"/> <!-- Gray 500 -->
      <stop offset="100%" style="stop-color:#757575"/> <!-- Gray 600 -->
    </linearGradient>
    <linearGradient id="titlebar-button" x1="0%" y1="0%" x2="0%" y2="100%">
      <stop offset="0%" style="stop-color:#424242"/> <!-- Gray 800 -->
      <stop offset="100%" style="stop-color:#212121"/> <!-- Gray 900 -->
    </linearGradient>
    <style type="text/css">
      .window-border { fill: none }
      .lighten { fill: white; fill-opacity: 0.125 }
      .darken { fill: black; fill-opacity: 0.125 }
    </style>
  </defs>
  <g transform="translate(4,14)">
    <path style="fill:url(#window-background)" d="m 2,0 a 2,2 0 0 0 -2,2 v 24 a 2,2 0 0 0 2,2 h 30 a 2,2 0 0 0 2,-2 v -24 a 2,2 0 0 0 -2,-2"/>
    <path class="window-border" d="m 1,6 h -1 v 20 a 2,2 0 0 0 2,2 h 30 a 2,2 0 0 0 2,-2 v -20 h -1 v 20 a 1,1 0 0 1 -1,1 h -30 a 1,1 0 0 1 -1,-1"/>
    <path style="fill:url(#titlebar-background)" d="m 2,0 a 2,2 0 0 0 -2,2 v 4 h 34 v -4 a 2,2 0 0 0 -2,-2"/>
    <path style="fill:url(#titlebar-button)"
          d="m 2,3 a 1.5,1.5 0 0 1 3,0 a 1.5,1.5 0 0 1 -3,0
             m 4.5,0 a 1.5,1.5 0 0 1 3,0 a 1.5,1.5 0 0 1 -3,0
             m 4.5,0 a 1.5,1.5 0 0 1 3,0 a 1.5,1.5 0 0 1 -3,0"/>
    <path class="lighten" d="m 2,0 a 2,2 0 0 0 -2,2 a 2,1 0 0 1 2,-1 h 30 a 2,1 0 0 1 2,1 a 2,2 0 0 0 -2,-2"/>
    <path class="darken" d="m 2,27 a 2,1 0 0 1 -2,-1 a 2,2 0 0 0 2,2 h 30 a 2,2 0 0 0 2,-2 a 2,1 0 0 1 -2,1"/>
  </g>

  <g style="opacity:0.5" transform="translate(10,6)">
    <path style="fill:url(#window-background)" d="m 26,6 a 4,4 0 0 1 4,4 v 18 h 2 a 2,2 0 0 0 2,-2 v -20"/>
    <path class="window-border" d="m 30,27 v 1 h 2 a 2,2 0 0 0 2,-2 v -20 h -1 v 20 a 1,1 0 0 1 -1,1 "/>
    <path style="fill:url(#titlebar-background)" d="m 2,0 a 2,2 0 0 0 -2,2 v 4 h 34 v -4 a 2,2 0 0 0 -2,-2"/>
    <path style="fill:url(#titlebar-button)"
          d="m 2,3 a 1.5,1.5 0 0 1 3,0 a 1.5,1.5 0 0 1 -3,0
             m 4.5,0 a 1.5,1.5 0 0 1 3,0 a 1.5,1.5 0 0 1 -3,0
             m 4.5,0 a 1.5,1.5 0 0 1 3,0 a 1.5,1.5 0 0 1 -3,0"/>
    <path class="lighten" d="m 2,0 a 2,2 0 0 0 -2,2 a 2,1 0 0 1 2,-1 h 30 a 2,1 0 0 1 2,1 a 2,2 0 0 0 -2,-2"/>
    <path class="darken" d="m 30,27 v 1 h 2 a 2,2 0 0 0 2,-2 a 2,1 0 0 1 -2,1"/>
  </g>
</svg>
