<svg xmlns="http://www.w3.org/2000/svg" viewBox="0 0 48 48">
  <defs>
    <linearGradient id="window-background-light" x1="0%" y1="0%" x2="0%" y2="100%">
      <stop offset="0%" style="stop-color:#E0E0E0"/> <!-- Gray 300 -->
      <stop offset="100%" style="stop-color:#BDBDBD"/> <!-- Gray 400 -->
    </linearGradient>
    <linearGradient id="titlebar-background-light" x1="0%" y1="0%" x2="0%" y2="100%">
      <stop offset="0%" style="stop-color:#9E9E9E"/> <!-- Gray 500 -->
      <stop offset="100%" style="stop-color:#757575"/> <!-- Gray 600 -->
    </linearGradient>
    <linearGradient id="titlebar-button" x1="0%" y1="0%" x2="0%" y2="100%">
      <stop offset="0%" style="stop-color:#424242"/> <!-- Gray 800 -->
      <stop offset="100%" style="stop-color:#212121"/> <!-- Gray 900 -->
    </linearGradient>

    <linearGradient id="window-background-dark" x1="0%" y1="0%" x2="0%" y2="100%">
      <stop offset="0%" style="stop-color:#424242"/> <!-- Gray 800 -->
      <stop offset="100%" style="stop-color:#212121"/> <!-- Gray 900 -->
    </linearGradient>
    <linearGradient id="titlebar-background-dark" x1="0%" y1="0%" x2="0%" y2="100%">
      <stop offset="0%" style="stop-color:#757575"/> <!-- Gray 500 -->
      <stop offset="100%" style="stop-color:#616161"/> <!-- Gray 600 -->
    </linearGradient>
    <style type="text/css">
      .window-border-light { fill: #9E9E9E }
      .window-border-dark { fill: #424242 }
      .lighten { fill: white; fill-opacity: 0.125 }
      .darken { fill: black; fill-opacity: 0.125 }
    </style>
  </defs>

  <!-- Light theme -->
  <path style="fill:url(#window-background-light)" d="m 5,6 a 2,2 0 0 0 -2,2 v 32 a 2,2 0 0 0 2,2 h 19 v -32"/>
  <path style="fill:url(#titlebar-background-light)" d="m 5,6 a 2,2 0 0 0 -2,2 v 6 h 21 v -8"/>
  <path style="fill:url(#titlebar-button)" d="m 5,10 a 2,2 0 0 1 4,0 a 2,2 0 0 1 -4,0"/>
  <path class="window-border-light" d="m 4,14 h -1 v 26 a 2,2 0 0 0 2,2 h 19 v -1 h -19 a 1,1 0 0 1 -1,-1"/>

  <!-- Dark theme -->
  <path style="fill:url(#window-background-dark)" d="m 24,6 v 36 h 19 a 2,2 0 0 0 2,-2 v -32 a 2,2 0 0 0 -2,-2"/>
  <path style="fill:url(#titlebar-background-dark)" d="m 24,6 v 8 h 21 v -6 a 2,2 0 0 0 -2,-2"/>
  <path class="window-border-dark" d="m 24,41 v 1 h 19 a 2,2 0 0 0 2,-2 v -26 h -1 v 26 a 1,1 0 0 1 -1,1"/>

  <!-- Input field -->
  <path style="fill:#9E9E9E" d="m 9,19 a 1,1 0 0 0 -1,1 v 4 a 1,1 0 0 0 1,1 h 15 v -6"/>
  <path style="fill:#616161" d="m 24,19 v 6 h 15 a 1,1 0 0 0 1,-1 v -4 a 1,1 0 0 0 -1,-1"/>
  <path class="darken" d="m 9,19 a 1,1 0 0 0 -1,1 h 32 a 1,1 0 0 0 -1,-1"/>

  <!-- Button -->
  <path style="fill:#757575" d="m 29,30 a 1,1 0 0 0 -1,1 v 4 a 1,1 0 0 0 1,1 h 10 a 1,1 0 0 0 1,-1 v -4 a 1,1 0 0 0 -1,-1"/>
  <path class="lighten" d="m 29,30 a 1,1 0 0 0 -1,1 h 12 a 1,1 0 0 0 -1,-1"/>

  <path class="lighten" d="m 5,6 a 2,2 0 0 0 -2,2 a 2,1 0 0 1 2,-1 h 38 a 2,1 0 0 1 2,1 a 2,2 0 0 0 -2,-2"/>
  <path class="darken" d="m 5,41 a 2,1 0 0 1 -2,-1 a 2,2 0 0 0 2,2 h 38 a 2,2 0 0 0 2,-2 a 2,1 0 0 1 -2,1"/>
</svg>
