<svg xmlns="http://www.w3.org/2000/svg" viewBox="0 0 48 48">
  <defs>
    <linearGradient id="window-background" x1="0%" y1="0%" x2="0%" y2="100%">
      <stop offset="0%" style="stop-color:#E0E0E0"/> <!-- Gray 300 -->
      <stop offset="100%" style="stop-color:#BDBDBD"/> <!-- Gray 400 -->
    </linearGradient>
    <linearGradient id="titlebar-background" x1="0%" y1="0%" x2="0%" y2="100%">
      <stop offset="0%" style="stop-color:#9E9E9E"/> <!-- Gray 500 -->
      <stop offset="100%" style="stop-color:#757575"/> <!-- Gray 600 -->
    </linearGradient>
    <linearGradient id="titlebar-button" x1="0%" y1="0%" x2="0%" y2="100%">
      <stop offset="0%" style="stop-color:#424242"/> <!-- Gray 800 -->
      <stop offset="100%" style="stop-color:#212121"/> <!-- Gray 900 -->
    </linearGradient>
    <linearGradient id="toolbar-background" x1="0%" y1="0%" x2="0%" y2="100%">
      <stop offset="0%" style="stop-color:#BDBDBD"/> <!-- Gray 500 -->
      <stop offset="100%" style="stop-color:#9E9E9E"/> <!-- Gray 600 -->
    </linearGradient>
    <linearGradient id="keyboard-surface" x1="0%" y1="0%" x2="0%" y2="100%">
      <stop offset="0%" style="stop-color:#E0E0E0"/> <!-- Gray 300 -->
      <stop offset="100%" style="stop-color:#9E9E9E"/> <!-- Gray 500 -->
    </linearGradient>
    <style type="text/css">
      .window-border { fill: none }
      .toolbar-field { fill: #E0E0E0 }
      .keyboard-keys { fill: #212121 }
      .lighten { fill: white; fill-opacity: 0.125 }
      .darken { fill: black; fill-opacity: 0.125 }
      .darken-very-strongly { fill: black; fill-opacity: 0.375 }
    </style>
  </defs>

  <!-- Web browser -->
  <path style="fill:url(#window-background)" d="M 5 6 A 2 2 0 0 0 3 8 L 3 40 A 2 2 0 0 0 5 42 L 17 42 L 17 29 A 4 4 0 0 1 21 25 L 43 25 A 4 4 0 0 1 45 25.54 L 45 8 A 2 2 0 0 0 43 6 L 5 6"/>
  <path class="window-border" d="M 3 14 L 3 40 A 2 2 0 0 0 5 42 L 17 42 L 17 41 L 5 41 A 1 1 0 0 1 4 40 L 4 14 L 3 14 z M 44 14 L 44 25.13 A 4 4 0 0 1 45 25.54 L 45 14 L 44 14"/>

  <path style="fill:url(#titlebar-background)" d="m 5,6 a 2,2 0 0 0 -2,2 v 6 h 42 v -6 a 2,2 0 0 0 -2,-2"/>
  <path style="fill:url(#titlebar-button)"
        d="m 5,10 a 2,2 0 0 1 4,0 a 2,2 0 0 1 -4,0
           m 6,0 a 2,2 0 0 1 4,0 a 2,2 0 0 1 -4,0
           m 6,0 a 2,2 0 0 1 4,0 a 2,2 0 0 1 -4,0"/>

  <path style="fill:url(#toolbar-background)" d="m 3,14 v 8 h 42 v -8"/>
  <path class="toolbar-field" d="m 9,16 a 1,1 0 0 0 -1,1 v 2 a 1,1 0 0 0 1,1 h 30 a 1,1 0 0 0 1,-1 v -2 a 1,1 0 0 0 -1,-1"/>
  <path class="darken-very-strongly" d="m 9,16 a 1,1 0 0 0 -1,1 h 32 a 1,1 0 0 0 -1,-1"/>

  <path class="lighten" d="m 5,6 a 2,2 0 0 0 -2,2 a 2,1 0 0 1 2,-1 h 38 a 2,1 0 0 1 2,1 a 2,2 0 0 0 -2,-2"/>
  <path class="darken" d="M 3 40 A 2 2 0 0 0 5 42 L 17 42 L 17 41 L 5 41 A 2 1 0 0 1 3 40"/>

  <!-- Keyboard -->
  <g transform="translate(19,27)">
    <path style="fill:url(#keyboard-surface)" d="M 1.5,0 a 1.5,1.5 0 0 0 -1.5,1.5 v 15 a 1.5,1.5 0 0 0 1.5,1.5 h 23 a 1.5,1.5 0 0 0 1.5,-1.5 v -15 a 1.5,1.5 0 0 0 -1.5,-1.5 z"/>
    <path class="lighten" d="m 1.5,0 a 1.5,1.5 0 0 0 -1.5,1.5 a 1.5,0.5 0 0 1 1.5,-0.5 h 23 a 1.5,0.5 0 0 1 1.5,0.5 a 1.5,1.5 0 0 0 -1.5,-1.5"/>
    <path class="darken" d="m 1.5,17 a 1.5,0.5 0 0 1 -1.5,-0.5 a 1.5,1.5 0 0 0 1.5,1.5 h 23 a 1.5,1.5 0 0 0 1.5,-1.5 a 1.5,0.5 0 0 1 -1.5,0.5"/>

    <g class="keyboard-keys">
      <path d="M 2.5,3 l 3 0 0 3 -3 0 0 -3 m 4.5,0 l 3 0 0 3 -3 0 0 -3 m 4.5,0 l 3 0 0 3 -3 0 0 -3 m 4.5,0 l 3 0 0 3 -3 0 0 -3 m 4.5,0 l 3 0 0 3 -3 0 0 -3"/>
      <path d="M 2.5,7.5 l 3 0 0 3 -3 0 0 -3 m 4.5,0 l 3 0 0 3 -3 0 0 -3 m 4.5,0 l 3 0 0 3 -3 0 0 -3 m 4.5,0 l 3 0 0 3 -3 0 0 -3 m 4.5,0 l 3 0 0 3 -3 0 0 -3"/>
      <path d="M 7,12 l 12 0 0 3 -12 0"/>
    </g>
  </g>
</svg>
