<svg xmlns="http://www.w3.org/2000/svg" viewBox="0 0 48 48">
  <defs>
    <linearGradient id="window-background" x1="0%" y1="0%" x2="0%" y2="100%">
      <stop offset="0%" style="stop-color:#E0E0E0"/> <!-- Gray 300 -->
      <stop offset="100%" style="stop-color:#BDBDBD"/> <!-- Gray 400 -->
    </linearGradient>
    <linearGradient id="titlebar-background" x1="0%" y1="0%" x2="0%" y2="100%">
      <stop offset="0%" style="stop-color:#9E9E9E"/> <!-- Gray 500 -->
      <stop offset="100%" style="stop-color:#757575"/> <!-- Gray 600 -->
    </linearGradient>
    <linearGradient id="titlebar-button" x1="0%" y1="0%" x2="0%" y2="100%">
      <stop offset="0%" style="stop-color:#424242"/> <!-- Gray 800 -->
      <stop offset="100%" style="stop-color:#212121"/> <!-- Gray 900 -->
    </linearGradient>
    <linearGradient id="toolbar-background" x1="0%" y1="0%" x2="0%" y2="100%">
      <stop offset="0%" style="stop-color:#BDBDBD"/> <!-- Gray 500 -->
      <stop offset="100%" style="stop-color:#9E9E9E"/> <!-- Gray 600 -->
    </linearGradient>
    <linearGradient id="store-front" x1="0%" y1="0%" x2="100%" y2="0%">
      <stop offset="0%" style="stop-color:#9E9E9E"/> <!-- Gray 500 -->
      <stop offset="50%" style="stop-color:#BDBDBD"/> <!-- Gray 400 -->
      <stop offset="100%" style="stop-color:#9E9E9E"/> <!-- Gray 500 -->
    </linearGradient>
    <style type="text/css">
      .window-border { fill: none }
      .toolbar-field { fill: #E0E0E0 }
      .store-top { fill: #BDBDBD; }
      .lighten { fill: white; fill-opacity: 0.125 }
      .darken { fill: black; fill-opacity: 0.125 }
      .darken-strongly { fill: black; fill-opacity: 0.25 }
      .darken-very-strongly { fill: black; fill-opacity: 0.375 }
    </style>
  </defs>

  <!-- Window -->
  <path style="fill:url(#window-background)" d="m 3,22 v 18 a 2,2 0 0 0 2,2 h 20 v -12.5 c 0,-3.6 5.5,-5.5 11,-5.5 h 9 v -2"/>
  <path class="window-border" d="m 4,22 h -1 v 18 a 2,2 0 0 0 2,2 h 20 v -1 h -20 a 1,1 0 0 1 -1,-1 z m 40,0 v 2 h 1 v -2"/>

  <path style="fill:url(#titlebar-background)" d="m 5,6 a 2,2 0 0 0 -2,2 v 6 h 42 v -6 a 2,2 0 0 0 -2,-2"/>
  <path style="fill:url(#titlebar-button)"
        d="m 5,10 a 2,2 0 0 1 4,0 a 2,2 0 0 1 -4,0
           m 6,0 a 2,2 0 0 1 4,0 a 2,2 0 0 1 -4,0
           m 6,0 a 2,2 0 0 1 4,0 a 2,2 0 0 1 -4,0"/>

  <path class="lighten" d="m 5,6 a 2,2 0 0 0 -2,2 a 2,1 0 0 1 2,-1 h 38 a 2,1 0 0 1 2,1 a 2,2 0 0 0 -2,-2"/>
  <path class="darken" d="m 5,41 a 2,1 0 0 1 -2,-1 a 2,2 0 0 0 2,2 h 20 v -1"/>

  <!-- Toolbar -->
  <path style="fill:url(#toolbar-background)" d="m 3,14 v 8 h 42 v -8"/>
  <path class="toolbar-field" d="m 9,16 a 1,1 0 0 0 -1,1 v 2 a 1,1 0 0 0 1,1 h 30 a 1,1 0 0 0 1,-1 v -2 a 1,1 0 0 0 -1,-1"/>
  <path class="darken-very-strongly" d="m 9,16 a 1,1 0 0 0 -1,1 h 32 a 1,1 0 0 0 -1,-1"/>

  <!-- Store -->
  <g transform="translate(27,26)">
    <path class="store-top" d="m 0,3 c 0,1.35 4.5,3 9,3 c 4.5,0 9,-1.65 9,-3 c 0,-1.35 -4.5,-3 -9,-3 c -4.5,0 -9,1.65 -9,3"/>
    <path style="fill:url(#store-front)" d="m 0,3 v 13 c 0,1.35 4.5,3 9,3 c 4.5,0 9,-1.65 9,-3 v -13 c 0,1.35 -4.5,3 -9,3 c -4.5,0 -9,-1.65 -9,-3"/>
    <path class="darken-strongly"
          d="m 0,6.667 v 1 c 0,1.35 4.5,3 9,3 c 4.5,0 9,-1.65 9,-3 v -1 c 0,1.35 -4.5,3 -9,3 c -4.5,0 -9,-1.65 -9,-3 z
             m 0,4.667 v 1 c 0,1.35 4.5,3 9,3 c 4.5,0 9,-1.65 9,-3 v -1 c 0,1.35 -4.5,3 -9,3 c -4.5,0 -9,-1.65 -9,-3"/>
  </g>
</svg>
