<svg xmlns="http://www.w3.org/2000/svg" viewBox="0 0 24 24">
  <defs>
    <style id="current-color-scheme" type="text/css">
      .ColorScheme-Text { color: #D8D8D8 }
    </style>
  </defs>
  <g class="ColorScheme-Text" style="fill:currentColor" transform="translate(3,6)">
    <path d="M 1,0 a 1,1 0 0 0 -1,1 v 10 a 1,1 0 0 0 1,1 h 16 a 1,1 0 0 0 1,-1 v -10 a 1,1 0 0 0 -1,-1 z
      M 2,2 l 2 0 0 2 -2 0 0 -2 m 3,0 l 2 0 0 2 -2 0 0 -2 m 3,0 l 2 0 0 2 -2 0 0 -2 m 3,0 l 2 0 0 2 -2 0 0 -2 m 3,0 l 2 0 0 2 -2 0 0 -2
      M 2,5 l 2 0 0 2 -2 0 0 -2 m 3,0 l 2 0 0 2 -2 0 0 -2 m 3,0 l 2 0 0 2 -2 0 0 -2 m 3,0 l 2 0 0 2 -2 0 0 -2 m 3,0 l 2 0 0 2 -2 0 0 -2
      M 5,8 l 8 0 0 2 -8 0"/>
  </g>  
</svg>
