<svg xmlns="http://www.w3.org/2000/svg" viewBox="0 0 24 24">
  <defs>
    <style id="current-color-scheme" type="text/css">
      .ColorScheme-Text { color: #D8D8D8 }
    </style>
  </defs>
  <g class="ColorScheme-Text" style="fill:currentColor">
    <path style="fill-opacity:0.5" d="m 7,3 a 1,1 0 0 0 -1,1 v 3 h 12 v -3 a 1,1 0 0 0 -1,-1 z"/>
    <path style="fill-opacity:0.75" d="m 3,8 a 1,1 0 0 0 -1,1 v 8 a 1,1 0 0 0 1,1 h 2 v -4 h 14 v 4 h 2 a 1,1 0 0 0 1,-1 v -8 a 1,1 0 0 0 -1,-1 z m 16,2 a 1,1 0 0 1 0,2 a 1,1 0 0 1 0,-2"/>
    <path d="m 6,15 v 5 a 1,1 0 0 0 1,1 h 10 a 1,1 0 0 0 1,-1 v -5 z"/>
  </g>
</svg>
