<svg xmlns="http://www.w3.org/2000/svg" viewBox="0 0 22 22">
  <defs>
    <linearGradient id="chip-surface" x1="0%" y1="0%" x2="0%" y2="100%">
      <stop offset="0%" style="stop-color:#757575"/> <!-- Gray 600 -->
      <stop offset="100%" style="stop-color:#616161"/> <!-- Gray 700 -->
    </linearGradient>
    <linearGradient id="chip-border" x1="0%" y1="0%" x2="0%" y2="100%">
      <stop offset="0%" style="stop-color:#9E9E9E"/> <!-- Gray 500 -->
      <stop offset="100%" style="stop-color:#757575"/> <!-- Gray 600 -->
    </linearGradient>
  </defs>
  <g transform="translate(-1,-1)">
    <!-- Chip -->
    <path style="fill:url(#chip-surface)"
          d="m 2,3 a 1,1 0 0 1 1,-1 h 18 a 1,1 0 0 1 1,1 v 18 a 1,1 0 0 1 -1,1 h -18 a 1,1 0 0 1 -1,-1"/>
    <path style="fill:url(#chip-border)"
          d="m 3,1 a 2,2 0 0 0 -2,2 v 18 a 2,2 0 0 0 2,2 h 18 a 2,2 0 0 0 2,-2 v -18 a 2,2 0 0 0 -2,-2 z
             m -1,2 a 1,1 0 0 1 1,-1 h 18 a 1,1 0 0 1 1,1 v 18 a 1,1 0 0 1 -1,1 h -18 a 1,1 0 0 1 -1,-1"/>

    <!-- Info icon -->
    <g style="fill:#E0E0E0">
      <path d="m 12,3 a 9,9 0 0 0 0,18 a 9,9 0 0 0 0,-18 m 0,2 a 7,7 0 0 1 0,14 a 7,7 0 0 1 0,-14"/>
      <rect x="11" y="7" width="2" height="2"/>
      <path d="M 11,12 a 1,1 0 0 1 2,0 v 4 a 1,1 0 0 1 -2,0"/>
    </g>
  </g>
</svg>
