<svg xmlns="http://www.w3.org/2000/svg" viewBox="0 0 22 22">
  <defs>
    <linearGradient id="wallet-surface" x1="0" y1="0%" x2="0" y2="100%">
      <stop offset="0%" style="stop-color:#A1887F"/> <!-- Brown 300 -->
      <stop offset="100%" style="stop-color:#795548"/> <!-- Brown 500 -->
    </linearGradient>
    <linearGradient id="wallet-border" x1="0" y1="0%" x2="0" y2="100%">
      <stop offset="0%" style="stop-color:#D7CCC8"/> <!-- Brown 100 -->
      <stop offset="100%" style="stop-color:#A1887F"/> <!-- Brown 300 -->
    </linearGradient>
    <linearGradient id="closure" x1="0" y1="0%" x2="0" y2="100%">
      <stop offset="0%" style="stop-color:#E0E0E0"/> <!-- Gray 300 -->
      <stop offset="100%" style="stop-color:#9E9E9E"/> <!-- Gray 500 -->
    </linearGradient>
  </defs>
  <g transform="translate(-1,-1)">
    <!-- Wallet -->
    <path style="fill:url(#wallet-surface)"
          d="m 6,3 a 1,1 0 0 0 -1,1 v 16 a 1,1 0 0 0 1,1 h 12 a 1,1 0 0 0 1,-1 v -4
             h -5 a 2,2 0 0 1 -2,-2 v -4 a 2,2 0 0 1 2,-2 h 5 v -4 a 1,1 0 0 0 -1,-1"/>
    <path style="fill:url(#wallet-border)"
          d="m 6,2 a 2,2 0 0 0 -2,2 v 16 a 2,2 0 0 0 2,2 h 12 a 2,2 0 0 0 2,-2 v -4
             h -1 v 4 a 1,1 0 0 1 -1,1 h -12 a 1,1 0 0 1 -1,-1 v -16 a 1,1 0 0 1 1,-1
             h 12 a 1,1 0 0 1 1,1 v 4 h 1 v -4 a 2,2 0 0 0 -2,-2"/>

    <!-- Closure -->
    <path style="fill:url(#closure)"
          d="m 14,9 a 1,1 0 0 0 -1,1 v 4 a 1,1 0 0 0 1,1 h 6 a 1,1 0 0 0 1,-1 v -4 a 1,1 0 0 0 -1,-1"/>
    <circle style="fill:#424242" cx="16" cy="12" r="1"/>
  </g>
</svg>
