<svg xmlns="http://www.w3.org/2000/svg" viewBox="0 0 22 22">
  <defs>
    <linearGradient id="document-background" x1="0%" y1="0%" x2="0%" y2="100%">
      <stop offset="0%" style="stop-color:#E64A19"/> <!-- Deep Orange 700 -->
      <stop offset="100%" style="stop-color:#BF360C"/> <!-- Deep Orange 900 -->
    </linearGradient>
    <linearGradient id="document-border" x1="0%" y1="0%" x2="0%" y2="100%">
      <stop offset="0%" style="stop-color:#FF8A65"/> <!-- Deep Orange 300 -->
      <stop offset="100%" style="stop-color:#FF5722"/> <!-- Deep Orange 500 -->
    </linearGradient>
    <style type="text/css">
      .document-background { fill: url(#document-background) }
      .document-border { fill: url(#document-border) }
    </style>
  </defs>
  <g transform="translate(-1,-1)">
    <path class="document-border"
          d="M 4,1 a 1,1 0 0 0 -1,1 v 20 a 1,1 0 0 0 1,1 h 16 a 1,1 0 0 0 1,-1 v -13 l -8,-8 z
             M 5,3 h 7 l 7,7 v 11 h -14
             M 15,1 h 5 a 1,1 0 0 1 1,1 v 5"/>
    <path class="document-background"
          d="M 5,3 h 7 l 7,7 v 11 h -14"/>
  </g>
</svg>
