<svg xmlns="http://www.w3.org/2000/svg" viewBox="0 0 22 22">
  <defs>
    <linearGradient id="dark-gray" x1="0%" y1="0%" x2="100%" y2="100%">
      <stop offset="0%" style="stop-color:#757575"/> <!-- Gray 600 -->
      <stop offset="100%" style="stop-color:#616161"/> <!-- Gray 700 -->
    </linearGradient>
    <linearGradient id="gray" x1="0%" y1="0%" x2="100%" y2="100%">
      <stop offset="0%" style="stop-color:#E0E0E0"/> <!-- Gray 300 -->
      <stop offset="100%" style="stop-color:#BDBDBD"/> <!-- Gray 400 -->
    </linearGradient>
    <linearGradient id="teal" x1="0%" y1="0%" x2="100%" y2="100%">
      <stop offset="0%" style="stop-color:#80CBC4"/> <!-- Teal 200 -->
      <stop offset="100%" style="stop-color:#009688"/> <!-- Teal 500 -->
    </linearGradient>
  </defs>
  <g transform="translate(11,11)">
    <path style="fill:url(#teal)"
          d="M 0,-6 A 6,6 0 0 0 0,6 A 6,6 0 0 0 0,-6
             M 0,-3 A 3,3 0 0 1 0,3 A 3,3 0 0 1 0,-3"/>
    <path style="fill:url(#gray)"
          d="M 0,-7 A 7,7 0 1 0 7,0 L 9,0 A 9,9 0 1 1 0,-9"/>
    <path style="fill:url(#dark-gray)"
          d="M 0,-9 A 9,9 0 0 0 -9,0 L -11,0 A 11,11 0 0 1 0,-11
             M 0,9 A 9,9 0 0 0 9,0 L 11,0 A 11,11 0 0 1 0,11"/>
  </g>
</svg>
