<svg xmlns="http://www.w3.org/2000/svg" viewBox="0 0 22 22">
  <defs>
    <style id="current-color-scheme" type="text/css">
      .ColorScheme-Text { color: #D8D8D8 }
    </style>
  </defs>
  <g class="ColorScheme-Text" style="fill:currentColor" transform="translate(-1,-1)">
    <!-- Toggle off -->
    <path d="m 8,2 a 4,4 0 0 0 0,8 h 8 a 4,4 0 0 0 0,-8 z m 0,1 h 8 a 3,3 0 0 1 0,6 h -8 a 3,3 0 0 1 0,-6 z"/>
    <circle cx="8" cy="6" r="2"/>

    <!-- Toggle on -->
    <path d="m 8,14 a 4,4 0 0 0 0,8 h 8 a 4,4 0 0 0 0,-8 z m 8,1.5 a 2.5,2.5 0 0 1 0,5 a 2.5,2.5 0 0 1 0,-5 z"/>
  </g>
</svg>
