<svg xmlns="http://www.w3.org/2000/svg" viewBox="0 0 24 24">
  <defs>
    <linearGradient id="usb-stick" x1="0%" y1="0%" x2="0%" y2="100%">
      <stop offset="0%" style="stop-color:#29B6F6"/> <!-- Light Blue 400 -->
      <stop offset="100%" style="stop-color:#0288D1"/> <!-- Light Blue 700 -->
    </linearGradient>
    <linearGradient id="usb-plug" x1="0%" y1="0%" x2="0%" y2="100%">
      <stop offset="0%" style="stop-color:#E0E0E0"/> <!-- Gray 300 -->
      <stop offset="100%" style="stop-color:#9E9E9E"/> <!-- Gray 500 -->
    </linearGradient>
  </defs>
  <g class="ColorScheme-Text" style="fill:currentColor" transform="translate(-1,-1)">
    <path style="fill:url(#usb-stick)" d="m 5,6 a 4,4 0 0 0 -4,4 v 4 a 4,4 0 0 0 4,4 h 12 a 1,1 0 0 0 1,-1 v -10 a 1,1 0 0 0 -1,-1"/>
    <path style="fill:url(#usb-plug)" d="m 19,8 v 8 h 3 a 1,1 0 0 0 1,-1 v -6 a 1,1 0 0 0 -1,-1"/>
  </g>
</svg>
