<svg xmlns="http://www.w3.org/2000/svg" viewBox="0 0 22 22">
  <defs>
    <style id="current-color-scheme" type="text/css">
      .ColorScheme-Text { color: #D8D8D8 }
    </style>
  </defs>
  <g class="ColorScheme-Text" style="fill:currentColor" transform="translate(-1,-1)">
    <path d="m 20.42,12.16 c 0,-4.644 -3.76,-8.424 -8.42,-8.424 -4.644,0 -8.424,3.78 -8.424,8.424 0,4.64 3.78,8.42 8.424,8.42 4.66,0 8.42,-3.78 8.42,-8.42 z
            m -9.27,-3.978 c 0,-0.45 0.38,-0.846 0.85,-0.846 0.45,0 0.85,0.396 0.85,0.846 0,0.468 -0.4,0.846 -0.85,0.846 -0.47,0 -0.85,-0.378 -0.85,-0.846 z
            m 8.81,3.978 c 0,4.39 -3.57,7.96 -7.96,7.96 -2.196,0 -3.978,-1.79 -3.978,-3.98 0,-2.2 1.782,-3.98 3.978,-3.98 2.2,0 3.98,-1.78 3.98,-3.978 0,-2.196 -1.78,-3.978 -3.96,-3.978 4.37,0 7.94,3.564 7.94,7.956 z
            m -7.11,3.98 c 0,-0.45 -0.4,-0.85 -0.85,-0.85 -0.47,0 -0.85,0.4 -0.85,0.85 0,0.47 0.38,0.84 0.85,0.84 0.45,0 0.85,-0.37 0.85,-0.84 z"/>
    <!--
    <text style="font-family:Ubuntu;font-size:18px;text-anchor:middle" x="12" y="19">☯</text>
    -->
  </g>
</svg>
