<svg xmlns="http://www.w3.org/2000/svg" viewBox="0 0 48 48">
  <defs>
    <linearGradient id="camera-housing" x1="0%" y1="0%" x2="0%" y2="100%">
      <stop offset="0%" style="stop-color:#BDBDBD"/> <!-- Gray 400 -->
      <stop offset="100%" style="stop-color:#757575"/> <!-- Gray 600 -->
    </linearGradient>
    <linearGradient id="camera-objective-border" x1="0%" y1="0%" x2="0%" y2="100%">
      <stop offset="0%" style="stop-color:#F5F5F5"/> <!-- Gray 100 -->
      <stop offset="100%" style="stop-color:#BDBDBD"/> <!-- Gray 400 -->
    </linearGradient>
    <radialGradient id="camera-objective" r="50%">
      <stop offset="0%" style="stop-color:#424242"/> <!-- Gray 800 -->
      <stop offset="100%" style="stop-color:#616161"/> <!-- Gray 700 -->
    </radialGradient>
    <style type="text/css">
      .camera-housing-top { fill: #BDBDBD }
      .lighten { fill: white; fill-opacity: 0.125 }
      .darken { fill: black; fill-opacity: 0.125 }
      .darken-slightly { fill: black; fill-opacity: 0.0625 }
    </style>
  </defs>

  <!-- Camera housing -->
  <path style="fill:url(#camera-housing)" d="m 7,8 a 3,3 0 0 0 -3,3 v 26 a 3,3 0 0 0 3,3 h 34 a 3,3 0 0 0 3,-3 v -26 a 3,3 0 0 0 -3,-3"/>
  <path class="lighten" d="m 7,8 a 3,3 0 0 0 -3,3 a 3,2 0 0 1 3,-2 h 34 a 3,2 0 0 1 3,2 a 3,3 0 0 0 -3,-3"/>
  <path class="darken" d="m 7,39 a 3,2 0 0 1 -3,-2 a 3,3 0 0 0 3,3 h 34 a 3,3 0 0 0 3,-3 a 3,2 0 0 1 -3,2"/>

  <path class="camera-housing-top" d="m 14,8 h 20 l -4,-4 h -12"/>

  <!-- Objective -->
  <g transform="translate(24,24)">
    <circle class="darken-slightly" r="13"/>
    <path class="darken-slightly" d="m -12,0 a 12,12 0 0 0 24,0 a 12,13 0 0 1 -24,0"/>
    <circle style="fill:url(#camera-objective-border)" r="12"/>
    <circle style="fill:url(#camera-objective)" r="8" />
  </g>
</svg>
