<svg xmlns="http://www.w3.org/2000/svg" viewBox="0 0 48 48">
  <defs>
    <linearGradient id="camera-housing" x1="0%" y1="0%" x2="0%" y2="100%">
      <stop offset="0%" style="stop-color:#E0E0E0"/> <!-- Gray 300 -->
      <stop offset="100%" style="stop-color:#9E9E9E"/> <!-- Gray 500 -->
    </linearGradient>
    <linearGradient id="camera-objective" x1="0%" y1="0%" x2="0%" y2="100%">
      <stop offset="0%" style="stop-color:#BDBDBD"/> <!-- Gray 400 -->
      <stop offset="100%" style="stop-color:#757575"/> <!-- Gray 600 -->
    </linearGradient>
    <style type="text/css">
      .lighten { fill: white; fill-opacity: 0.125 }
      .darken { fill: black; fill-opacity: 0.125 }
    </style>
  </defs>
  <path style="fill:url(#camera-housing)" d="m 5,10 a 2,2 0 0 0 -2,2 v 24 a 2,2 0 0 0 2,2 h 28 a 2,2 0 0 0 2,-2 v -24 a 2,2 0 0 0 -2,-2"/>
  <path class="lighten" d="m 5,10 a 2,2 0 0 0 -2,2 a 2,1 0 0 1 2,-1 h 28 a 2,1 0 0 1 2,1 a 2,2 0 0 0 -2,-2"/>
  <path class="darken" d="m 5,37 a 2,1 0 0 1 -2,-1 a 2,2 0 0 0 2,2 h 28 a 2,2 0 0 0 2,-2 a 2,1 0 0 1 -2,1"/>
  <path style="fill:url(#camera-objective)" d="m 45,24 v -11.58 c 0,-0.9 -1.08,-1.33 -1.7,-0.72 l -8.3,8.3 v 8 l 8.3,8.3 c 0.62,0.62 1.7,0.18 1.7,-0.72"/>
</svg>
