<svg xmlns="http://www.w3.org/2000/svg" viewBox="0 0 48 48">
  <defs>
    <linearGradient id="surface" x1="0%" y1="0%" x2="0%" y2="100%">
      <stop offset="0%" style="stop-color:#BDBDBD"/> <!-- Gray 400 -->
      <stop offset="100%" style="stop-color:#757575"/> <!-- Gray 600 -->
    </linearGradient>
    <linearGradient id="mouse-button" x1="0%" y1="0%" x2="0%" y2="100%">
      <stop offset="0%" style="stop-color:#E0E0E0"/> <!-- Gray 300 -->
      <stop offset="100%" style="stop-color:#BDBDBD"/> <!-- Gray 400 -->
    </linearGradient>
    <style type="text/css">
      .lighten-strongly { fill: white; fill-opacity: 0.25 }
      .lighten-very-strongly { fill: white; fill-opacity: 0.375 }
      .darken-strongly { fill:black; fill-opacity: 0.25 }
      .darken-very-strongly { fill:black; fill-opacity: 0.375 }
    </style>
  </defs>

  <!-- Touchpad -->
  <g transform="translate(4,4)">
    <path style="fill:url(#surface)" d="m 2,0 a 2,2 0 0 0 -2,2 v 28 h 40 v -28 a 2,2 0 0 0 -2,-2 z"/>
    <path class="lighten-strongly" d="m 2,0 a 2,2 0 0 0 -2,2 v 28 l 1,-1 v -27 a 1,1 0 0 1 1,-1 h 36 a 2,1 0 0 1 2,1 a 2,2 0 0 0 -2,-2"/>
    <path class="darken-strongly" d="m 1,29 l -1,1 h 40 v -28 a 2,1 0 0 0 -1,-0.865 v 27.865"/>
  </g>

  <!-- Left mouse button -->
  <g transform="translate(4,34)">
    <path style="fill:url(#mouse-button)" d="m 0,0 v 8 a 2,2 0 0 0 2,2 h 18 v -10 z"/>
    <path class="lighten-very-strongly" d="m 0,0 v 8 a 2,1 0 0 0 1,0.865 v -7.865 h 18 l 1,-1"/>
    <path class="darken-very-strongly" d="m 2,9 a 2,1 0 0 1 -2,-1 a 2,2 0 0 0 2,2 h 18 v -10 l -1,1 v 8"/>
  </g>

  <!-- Right mouse button -->
  <g transform="translate(24,34)">
    <path style="fill:url(#mouse-button)" d="m 0,0 v 10 h 18 a 2,2 0 0 0 2,-2 v -8 z"/>
    <path class="lighten-very-strongly" d="m 0,0 v 10 l 1,-1 v -8 h 18 l 1,-1"/>
    <path class="darken-very-strongly" d="m 1,9 l -1,1 h 18 a 2,2 0 0 0 2,-2 v -8 l -1,1 v 7 a 1,1 0 0 1 -1,1"/>
  </g>
</svg>
