<svg xmlns="http://www.w3.org/2000/svg" viewBox="0 0 48 48">
  <defs>
    <linearGradient id="printer-housing" x1="0%" y1="0%" x2="0%" y2="100%">
      <stop offset="0%" style="stop-color:#BDBDBD"/> <!-- Gray 400 -->
      <stop offset="100%" style="stop-color:#9E9E9E"/> <!-- Gray 500 -->
    </linearGradient>
    <linearGradient id="paper-output-tray" x1="0%" y1="0%" x2="0%" y2="100%">
      <stop offset="0%" style="stop-color:#424242"/> <!-- Gray 800 -->
      <stop offset="100%" style="stop-color:#616161"/> <!-- Gray 700 -->
    </linearGradient>
    <linearGradient id="paper-feed" x1="0%" y1="0%" x2="0%" y2="100%">
      <stop offset="0%" style="stop-color:#9E9E9E"/> <!-- Gray 500 -->
      <stop offset="100%" style="stop-color:#757575"/> <!-- Gray 600 -->
    </linearGradient>
    <linearGradient id="paper-output" x1="0%" y1="0%" x2="0%" y2="100%">
      <stop offset="0%" style="stop-color:#E0E0E0"/> <!-- Gray 300 -->
      <stop offset="100%" style="stop-color:#BDBDBD"/> <!-- Gray 400 -->
    </linearGradient>
    <linearGradient id="led-green" x1="0%" y1="0%" x2="0%" y2="100%">
      <stop offset="0%" style="stop-color:#2E7D32"/> <!-- Green 800 -->
      <stop offset="100%" style="stop-color:#1B5E20"/> <!-- Green 900 -->
    </linearGradient>
    <style type="text/css">
      .lighten { fill: white; fill-opacity: 0.125 }
      .darken { fill: black; fill-opacity: 0.125 }
    </style>
  </defs>
  <path style="fill:url(#paper-feed)" d="m 14,6 a 2,2 0 0 0 -2,2 v 8 h 24 v -8 a 2,2 0 0 0 -2,-2 z"/>
  <path style="fill:url(#printer-housing)" d="m 6,16 a 2,2 0 0 0 -2,2 v 14 a 2,2 0 0 0 2,2 h 36 a 2,2 0 0 0 2,-2 v -14 a 2,2 0 0 0 -2,-2"/>
  <circle style="fill:url(#led-green)" cx="40" cy="20.5" r="1.5"/>
  <path class="lighten" d="m 6,16 a 2,2 0 0 0 -2,2 a 2,1 0 0 1 2,-1 h 36 a 2,1 0 0 1 2,1 a 2,2 0 0 0 -2,-2"/>
  <path class="darken" d="m 6,33 a 2,1 0 0 1 -2,-1 a 2,2 0 0 0 2,2 h 36 a 2,2 0 0 0 2,-2 a 2,1 0 0 1 -2,1"/>

  <rect style="fill:url(#paper-output-tray)" x="11" y="28" width="26" height="6"/>
  <path style="fill:url(#paper-output)" d="m 12,29 v 11 a 2,2 0 0 0 2,2 h 20 a 2,2 0 0 0 2,-2 v -11 z"/>
  <rect class="darken" x="12" y="29" width="24" height="2"/>
</svg>
