<svg xmlns="http://www.w3.org/2000/svg" viewBox="0 0 24 24">
  <defs>
    <style id="current-color-scheme" type="text/css">
      .ColorScheme-Text { color: #D8D8D8 }
    </style>
  </defs>
  <g class="ColorScheme-Text" style="fill:currentColor">
    <circle style="fill:none;stroke:currentColor" cx="12" cy="12" r="10"/>

    <!-- Continents from the Breeze 'applications-internet' icon -->
    <path transform="scale(0.75)" d="M16 2a14 14 0 0 0-13.059 9H3l3-1 1 1 1 1v-2l2-1V8l2-1 2-2v1l1-1-1-1h2v1l2-1-1-1v-.95A14 14 0 0 0 16 2zm10.375 4.625L26 7v1h1.469a14 14 0 0 0-1.094-1.375zm1.316 1.684L27 9l-2 2-1 1-1 3v1l1 1 1 1 2 1 2.791-.688A14 14 0 0 0 30 16a14 14 0 0 0-2.309-7.691zM4 13l-1 1h-.838c-.05.34-.088.681-.113 1.023v.002L4 16l1 1 2 1 1 1-1 1v2l1 2 2 2v2.629A14 14 0 0 0 16 30c.17-.003.34-.009.51-.018L17 29v-1l2-1 1-1v-2l1-1v-1l-1-1-3-1-1-1-1-1h-1l-1-1-3-1-2 1H6v-2H5v-2z"/>
  </g>
</svg>
