<svg xmlns="http://www.w3.org/2000/svg" viewBox="0 0 24 24">
  <defs>
    <style id="current-color-scheme" type="text/css">
      .ColorScheme-Text { color: #D8D8D8 }
    </style>
  </defs>
  <g class="ColorScheme-Text" style="fill:currentColor" transform="translate(12,12)">
    <path d="m 0,-8 a 8,8 0 0 1 0,16 a 8,8 0 0 1 0,-16 m 0,2 a 6,6 0 0 0 0,12 a 6,6 0 0 0 0,-12"/>
    <path style="fill-opacity:0.625" d="m 0,-5 a 5,5 0 0 1 0,10 a 5,5 0 0 1 0,-10 m 0,1 a 4,4 0 0 0 0,8 a 4,4 0 0 0 0,-8"/>

    <path d="m -2.5,-7 1.5,-3 2,0 1.5,3"/>
    <path transform="rotate(45)" d="m -2.5,-7 1.5,-3 2,0 1.5,3"/>
    <path transform="rotate(90)" d="m -2.5,-7 1.5,-3 2,0 1.5,3"/>
    <path transform="rotate(135)" d="m -2.5,-7 1.5,-3 2,0 1.5,3"/>
    <path transform="rotate(180)" d="m -2.5,-7 1.5,-3 2,0 1.5,3"/>
    <path transform="rotate(226)" d="m -2.5,-7 1.5,-3 2,0 1.5,3"/>
    <path transform="rotate(270)" d="m -2.5,-7 1.5,-3 2,0 1.5,3"/>
    <path transform="rotate(315)" d="m -2.5,-7 1.5,-3 2,0 1.5,3"/>
  </g>
</svg>
