<svg xmlns="http://www.w3.org/2000/svg" viewBox="0 0 48 48">
  <defs>
    <linearGradient id="folder-front" x1="0%" y1="0%" x2="0%" y2="100%">
      <stop offset="0%" style="stop-color:#90CAF9"/> <!-- Blue 200 -->
      <stop offset="100%" style="stop-color:#64B5F6"/> <!-- Blue 300 -->
    </linearGradient>
    <style type="text/css">
      .folder-back { fill: #2196F3 /* Blue 500 */ }
      .folder-front { fill: url(#folder-front) }
      .symbol { fill: black; opacity: 0.5 }
      .lighten { fill: white; fill-opacity: 0.125 }
      .darken { fill: black; fill-opacity: 0.125 }
    </style>
  </defs>

  <!-- Folder -->
  <path class="folder-back" d="m 4,11 a 2,2 0 0 1 2,-2 h 12 c 2,0 2,0 4,2 l 2,2 h 18 a 2,2 0 0 1 2,2 v 2 a 2,2 0 0 0 -2,-2 h -36 a 2,2 0 0 0 -2,2"/>
  <path class="darken" d="m 6,14 a 3,3 0 0 0 -2,0.76 v 2.24 a 2,2 0 0 1 2,-2 h 36 a 2,2 0 0 1 2,2 v -2.24 a 3,3 0 0 0 -2,-0.76"/>
  <rect class="folder-front" x="4" y="15" width="40" height="24" rx="2" ry="2"/>
  <path class="lighten" d="m 6,15 a 2,2 0 0 0 -2,2 a 2,1 0 0 1 2,-1 h 36 a 2,1 0 0 1 2,1 a 2,2 0 0 0 -2,-2"/>
  <path class="darken" d="m 6,38 a 2,1 0 0 1 -2,-1 a 2,2 0 0 0 2,2 h 36 a 2,2 0 0 0 2,-2 a 2,1 0 0 1 -2,1"/>

  <!-- Symbol (18x18) -->
  <path class="symbol" transform="translate(0,-1)"
        d="M 30 19 A 3 3 0 0 0 27 22 A 3 3 0 0 0 27.08 22.67
           L 20.29 26.06 A 3 3 0 0 0 18 25 A 3 3 0 0 0 15 28 A 3 3 0 0 0 18 31 A 3 3 0 0 0 20.29 29.94
           L 27.08 33.33 A 3 3 0 0 0 27 34 A 3 3 0 0 0 30 37 A 3 3 0 0 0 33 34 A 3 3 0 0 0 30 31 A 3 3 0 0 0 27.71 32.06
           L 20.92 28.67 A 3 3 0 0 0 21 28 A 3 3 0 0 0 20.92 27.33 L 27.71 23.94 A 3 3 0 0 0 30 25 A 3 3 0 0 0 33 22 A 3 3 0 0 0 30 19 z"/>
</svg>
