<svg xmlns="http://www.w3.org/2000/svg" viewBox="0 0 48 48">
  <defs>
    <linearGradient id="folder-front" x1="0%" y1="0%" x2="0%" y2="100%">
      <stop offset="0%" style="stop-color:#90CAF9"/> <!-- Blue 200 -->
      <stop offset="100%" style="stop-color:#64B5F6"/> <!-- Blue 300 -->
    </linearGradient>
    <style type="text/css">
      .folder-back { fill: #2196F3 /* Blue 500 */ }
      .folder-front { fill: url(#folder-front) }
      .document { fill: #E0E0E0 }
      .lighten { fill: white; fill-opacity: 0.125 }
      .darken { fill: black; fill-opacity: 0.125 }
    </style>
  </defs>

  <!-- Folder back -->
  <path class="folder-back" d="m 4,11 a 2,2 0 0 1 2,-2 h 12 c 2,0 2,0 4,2 l 2,2 h 18 a 2,2 0 0 1 2,2 v 4 h -40"/>

  <!-- Document -->
  <rect class="document" x="8" y="16" width="32" height="3"/>

  <!-- Folder front -->
  <rect class="darken" x="4" y="18" width="40" height="1"/>
  <path class="folder-front" d="m 6,39 c -1.1,0 -1.875,-1 -2,-2 l -2,-16 c -0.125,-1 0.9,-2 2,-2 h 40 c 1.1,0 2.125,1 2,2 l -2,16 c -0.125,1 -0.9,2 -2,2"/>
  <path class="lighten" d="m 2,21 c -0.125,-1 0.9,-2 2,-2 h 40 c 1.1,0 2.125,1 2,2 a 2,1 0 0 0 -2,-1 h -40 a 2,1 0 0 0 -2,1 z"/>
  <path class="darken" d="m 6,39 c -1.1,0 -1.875,-1 -2,-2 a 2,1 0 0 0 2,1 h 36 a 2,1 0 0 0 2,-1 c -0.125,1 -0.9,2 -2,2 z"/>
</svg>
