<svg xmlns="http://www.w3.org/2000/svg" viewBox="0 0 48 48">
  <defs>
    <linearGradient id="light-background-overlay" x1="0%" y1="0%" x2="0%" y2="100%">
      <stop offset="0%" style="stop-color:white;stop-opacity:0.125"/>
      <stop offset="100%" style="stop-color:white;stop-opacity:0"/>
    </linearGradient>
    <linearGradient id="kinked-edge" x1="0%" y1="100%" x2="50%" y2="50%">
      <stop offset="0%" style="stop-color:white;stop-opacity:0.5"/>
      <stop offset="100%" style="stop-color:white;stop-opacity:0.25"/>
    </linearGradient>
    <style type="text/css">
      .document-background { fill: #2196F3 /* Blue 500 */ }
      .symbol-color { color: white }
      .lighten { fill: white; fill-opacity: 0.125 }
      .darken { fill:black; fill-opacity: 0.125 }
    </style>
  </defs>

  <!-- Document -->
  <path class="document-background" d="m 10,4 a 2,2 0 0 0 -2,2 v 36 a 2,2 0 0 0 2,2 h 28 a 2,2 0 0 0 2,-2 v -26 l -12,-12 z"/>
  <path style="fill:url(#light-background-overlay)" d="m 10,4 a 2,2 0 0 0 -2,2 v 36 a 2,2 0 0 0 2,2 h 28 a 2,2 0 0 0 2,-2 v -26 h -10 a 2,2 0 0 1 -2,-2 v -10"/>
  <path class="lighten" d="m 10,4 a 2,2 0 0 0 -2,2 a 2,1 0 0 1 2,-1 h 18 v -1 z"/>
  <path class="darken" d="m 10,43 a 2,1 0 0 1 -2,-1 a 2,2 0 0 0 2,2 h 28 a 2,2 0 0 0 2,-2 a 2,1 0 0 1 -2,1"/>

  <g transform="translate(28,4)">
    <path style="fill:url(#kinked-edge)" d="m 0,0 v 10 a 2,2 0 0 0 2,2 h 10 z"/>
    <path class="darken" d="m 0,0 l -1,1 v 10 a 3,3 0 0 0 3,3 h 8 l 2,-2 h -10 a 2,2 0 0 1 -2,-2"/>
    <path class="darken" d="m 0,10 v 1 a 2,2 0 0 0 2,2 h 9 l 1,-1 h -10 a 2,2 0 0 1 -2,-2 "/>
  </g>

  <!-- Symbol -->
  <g class="symbol-color" transform="translate(24,30)">
    <path style="fill:none;stroke:currentColor;stroke-width:2;stroke-linejoin:bevel"
          d="M -4.5,-3.33 -9.5,0 -4.5,3.33 M 4.5,-3.33 9.5,0 4.5,3.33"/>

    <path style="fill:currentColor" d="M -1.05,0 l 2.33,-7 h 2.1 l -4.66,14 h -2.1"/>
  </g>
</svg>
