<svg xmlns="http://www.w3.org/2000/svg" viewBox="0 0 48 48">
  <defs>
    <linearGradient id="binding" x1="0%" y1="0%" x2="0%" y2="100%">
      <stop offset="0%" style="stop-color:#E53935"/> <!-- Red 600 -->
      <stop offset="100%" style="stop-color:#D32F2F"/> <!-- Red 700 -->
    </linearGradient>
    <linearGradient id="sheet" x1="0%" y1="0%" x2="0%" y2="100%">
      <stop offset="0%" style="stop-color:#EEEEEE"/> <!-- Gray 200 -->
      <stop offset="100%" style="stop-color:#E0E0E0"/> <!-- Gray 300 -->
    </linearGradient>
    <style type="text/css">
      .sheet-border { fill: #BDBDBD /* Gray 400 */ }
      .date { fill: #616161 /* Gray 800 */ }
      .lighten-strongly { fill: white; fill-opacity: 0.25 }
      .darken { fill:black; fill-opacity: 0.125 }
    </style>
  </defs>
  <path style="fill:url(#binding)" d="m 8,6 a 2,2 0 0 0 -2,2 v 8 h 36 v -8 a 2,2 0 0 0 -2,-2"/>
  <path class="lighten-strongly" d="m 8,6 a 2,2 0 0 0 -2,2 a 2,1 0 0 1 2,-1 h 32 a 2,1 0 0 1 2,1 a 2,2 0 0 0 -2,-2"/>

  <path style="fill:url(#sheet)" d="m 6,16 v 24 a 2,2 0 0 0 2,2 h 32 a 2,2 0 0 0 2,-2 v -24"/>
  <path class="sheet-border" d="m 6,16 v 24 a 2,2 0 0 0 2,2 h 32 a 2,2 0 0 0 2,-2 v -24 h -1 v 24 a 1,1 0 0 1 -1,1 h -32 a 1,1 0 0 1 -1,-1 v -24"/>
  <path class="darken" d="m 8,41 a 2,1 0 0 1 -2,-1 a 2,2 0 0 0 2,2 h 32 a 2,2 0 0 0 2,-2 a 2,1 0 0 1 -2,1"/>
  <rect class="darken" x="6" y="15" width="36" height="2"/>

  <path class="date" d="m 19.51,24.47 q 0.61,-0.25 1.26,-0.57 0.67,-0.33 1.3,-0.71 0.63,-0.4 1.2,-0.82 0.58,-0.44 1.05,-0.92 h 2.18 v 14.55 h -3.13 v -10.48 q -0.63,0.42 -1.41,0.78 -0.77,0.33 -1.51,0.59 z"/>
  <!--
  <text class="date" style="font-family:Ubuntu;font-size:21px;font-weight:bold;text-anchor:middle" x="24" y="36">1</text>
  -->
</svg>
