<svg xmlns="http://www.w3.org/2000/svg" viewBox="0 0 48 48">
  <defs>
    <linearGradient id="server-front" x1="0%" y1="0%" x2="0%" y2="100%">
      <stop offset="0%" style="stop-color:#9E9E9E"/> <!-- Gray 500 -->
      <stop offset="100%" style="stop-color:#757575"/> <!-- Gray 600 -->
    </linearGradient>
    <linearGradient id="led-green" x1="0%" y1="0%" x2="0%" y2="100%">
      <stop offset="0%" style="stop-color:#E8F5E9"/> <!-- Green 50 -->
      <stop offset="100%" style="stop-color:#A5D6A7"/> <!-- Green 200 -->
    </linearGradient>
    <style type="text/css">
      .lighten { fill: white; fill-opacity: 0.125 }
      .darken { fill: black; fill-opacity: 0.125 }
    </style>
  </defs>
  <g transform="translate(4,6)">
    <path style="fill:url(#server-front)" d="m 2,0 a 2,2 0 0 0 -2,2 v 6 a 2,2 0 0 0 2,2 h 36 a 2,2 0 0 0 2,-2 v -6 a 2,2 0 0 0 -2,-2"/>
    <circle style="fill:url(#led-green)" cx="4.5" cy="5" r="1.5"/>
    <path class="lighten" d="m 2,0 a 2,2 0 0 0 -2,2 a 2,1 0 0 1 2,-1 h 36 a 2,1 0 0 1 2,1 a 2,2 0 0 0 -2,-2"/>
    <path class="darken" d="m 2,9 a 2,1 0 0 1 -2,-1 a 2,2 0 0 0 2,2 h 36 a 2,2 0 0 0 2,-2 a 2,1 0 0 1 -2,1"/>
  </g>
  <g transform="translate(4,19)">
    <path style="fill:url(#server-front)" d="m 2,0 a 2,2 0 0 0 -2,2 v 6 a 2,2 0 0 0 2,2 h 36 a 2,2 0 0 0 2,-2 v -6 a 2,2 0 0 0 -2,-2"/>
    <circle style="fill:url(#led-green)" cx="4.5" cy="5" r="1.5"/>
    <path class="lighten" d="m 2,0 a 2,2 0 0 0 -2,2 a 2,1 0 0 1 2,-1 h 36 a 2,1 0 0 1 2,1 a 2,2 0 0 0 -2,-2"/>
    <path class="darken" d="m 2,9 a 2,1 0 0 1 -2,-1 a 2,2 0 0 0 2,2 h 36 a 2,2 0 0 0 2,-2 a 2,1 0 0 1 -2,1"/>
  </g>
  <g transform="translate(4,32)">
    <path style="fill:url(#server-front)" d="m 2,0 a 2,2 0 0 0 -2,2 v 6 a 2,2 0 0 0 2,2 h 36 a 2,2 0 0 0 2,-2 v -6 a 2,2 0 0 0 -2,-2"/>
    <circle style="fill:url(#led-green)" cx="4.5" cy="5" r="1.5"/>
    <path class="lighten" d="m 2,0 a 2,2 0 0 0 -2,2 a 2,1 0 0 1 2,-1 h 36 a 2,1 0 0 1 2,1 a 2,2 0 0 0 -2,-2"/>
    <path class="darken" d="m 2,9 a 2,1 0 0 1 -2,-1 a 2,2 0 0 0 2,2 h 36 a 2,2 0 0 0 2,-2 a 2,1 0 0 1 -2,1"/>
  </g>
</svg>
