<svg xmlns="http://www.w3.org/2000/svg" viewBox="0 0 48 48">
  <defs>
    <linearGradient id="gray" x1="0%" y1="0%" x2="0%" y2="100%">
      <stop offset="0%" style="stop-color:#9E9E9E"/> <!-- Gray 500 -->
      <stop offset="100%" style="stop-color:#757575"/> <!-- Gray 600 -->
    </linearGradient>
    <linearGradient id="gray-accent" x1="0%" y1="0%" x2="0%" y2="100%">
      <stop offset="0%" style="stop-color:#616161"/> <!-- Gray 700 -->
      <stop offset="100%" style="stop-color:#424242"/> <!-- Gray 800 -->
    </linearGradient>
    <linearGradient id="blue" x1="0%" y1="0%" x2="0%" y2="100%">
      <stop offset="0%" style="stop-color:#1E88E5"/> <!-- Blue 600 -->
      <stop offset="100%" style="stop-color:#1976D2"/> <!-- Blue 700 -->
    </linearGradient>
    <linearGradient id="blue-accent" x1="0%" y1="0%" x2="0%" y2="100%">
      <stop offset="0%" style="stop-color:#1565C0"/> <!-- Blue 800 -->
      <stop offset="100%" style="stop-color:#0D47A1"/> <!-- Blue 900 -->
    </linearGradient>
    <linearGradient id="green" x1="0%" y1="0%" x2="0%" y2="100%">
      <stop offset="0%" style="stop-color:#43A047"/> <!-- Green 600 -->
      <stop offset="100%" style="stop-color:#388E3C"/> <!-- Green 700 -->
    </linearGradient>
    <linearGradient id="green-accent" x1="0%" y1="0%" x2="0%" y2="100%">
      <stop offset="0%" style="stop-color:#2E7D32"/> <!-- Green 800 -->
      <stop offset="100%" style="stop-color:#1B5E20"/> <!-- Green 900 -->
    </linearGradient>
    <linearGradient id="orange" x1="0%" y1="0%" x2="0%" y2="100%">
      <stop offset="0%" style="stop-color:#FF8A65"/> <!-- Deep orange 300 -->
      <stop offset="100%" style="stop-color:#FF5722"/> <!-- Deep orange 500 -->
    </linearGradient>
    <linearGradient id="orange-accent" x1="0%" y1="0%" x2="0%" y2="100%">
      <stop offset="0%" style="stop-color:#F4511E"/> <!-- Deep orange 600 -->
      <stop offset="100%" style="stop-color:#E64A19"/> <!-- Deep orange 700 -->
    </linearGradient>
  </defs>
  <g transform="translate(5,1)">
    <path style="fill:url(#gray)"
          d="m 1,0 a 1,1 0 0 0 -1,1 v 18 a 1,1 0 0 0 1,1 h 13 a 1,1 0 0 0 1,-1 v -12 h -5 a 2,2 0 0 1 -2,-2 v -5"/>
    <path style="fill:url(#gray-accent)"
          d="M 1,0 a 1,1 0 0 0 -1,1 v 18 a 1,1 0 0 0 1,1 h 13 a 1,1 0 0 0 1,-1 v -12 h -1 v 12 h -13 v -18 h 7 v -1
             M 9,0 l 6,6 h -5 a 1,1 0 0 1 -1,-1"/>
  </g>
  <g transform="translate(28,1)">
    <path style="fill:url(#orange)"
          d="m 1,0 a 1,1 0 0 0 -1,1 v 18 a 1,1 0 0 0 1,1 h 13 a 1,1 0 0 0 1,-1 v -12 h -5 a 2,2 0 0 1 -2,-2 v -5"/>
    <path style="fill:url(#orange-accent)"
          d="M 1,0 a 1,1 0 0 0 -1,1 v 18 a 1,1 0 0 0 1,1 h 13 a 1,1 0 0 0 1,-1 v -12 h -1 v 12 h -13 v -18 h 7 v -1
             M 9,0 l 6,6 h -5 a 1,1 0 0 1 -1,-1"/>
  </g>
  <g transform="translate(5,27)">
    <path style="fill:url(#blue)"
          d="m 1,0 a 1,1 0 0 0 -1,1 v 18 a 1,1 0 0 0 1,1 h 13 a 1,1 0 0 0 1,-1 v -12 h -5 a 2,2 0 0 1 -2,-2 v -5"/>
    <path style="fill:url(#blue-accent)"
          d="M 1,0 a 1,1 0 0 0 -1,1 v 18 a 1,1 0 0 0 1,1 h 13 a 1,1 0 0 0 1,-1 v -12 h -1 v 12 h -13 v -18 h 7 v -1
             M 9,0 l 6,6 h -5 a 1,1 0 0 1 -1,-1"/>
  </g>
  <g transform="translate(28,27)">
    <path style="fill:url(#green)"
          d="m 1,0 a 1,1 0 0 0 -1,1 v 18 a 1,1 0 0 0 1,1 h 13 a 1,1 0 0 0 1,-1 v -12 h -5 a 2,2 0 0 1 -2,-2 v -5"/>
    <path style="fill:url(#green-accent)"
          d="M 1,0 a 1,1 0 0 0 -1,1 v 18 a 1,1 0 0 0 1,1 h 13 a 1,1 0 0 0 1,-1 v -12 h -1 v 12 h -13 v -18 h 7 v -1
             M 9,0 l 6,6 h -5 a 1,1 0 0 1 -1,-1"/>
  </g>
</svg>
