<svg xmlns="http://www.w3.org/2000/svg" viewBox="0 0 22 22">
  <defs>
    <style id="current-color-scheme" type="text/css">
      .ColorScheme-Text { color: #D8D8D8 }
    </style>
  </defs>
  <g transform="translate(-1,-1)">
    <g class="ColorScheme-Text" style="fill:currentColor" transform="rotate(45,12,12)">
      <!-- Wrench -->
      <path d="m 10,17 v 5 a 2,2 0 0 0 4,0 v -8 a 3,3 0 0 1 -3,3"/>
      <path d="m 10,7 h 1 a 3,3 0 0 1 3,3 v -3.25
               c 0.25,-0.125 1.5,-0.5 2,-1.5 c 0.25,-0.5 0.25,-1.5 0,-2 l -1.5,-3
               c -0.08,-0.16 -0.225,-0.25 -0.5,-0.25 c -0.275,0 -0.5,0.225 -0.5,0.5
               v 3 a 2,2 0 0 1 -3,0 v -3
               c 0,-0.275 -0.225,-0.5 -0.5,-0.5 c -0.275,0 -0.42,0.09 -0.5,0.25 l -1.5,3
               c -0.25,0.5 -0.25,1.5 0,2 c 0.5,1 1.75,1.375 2,1.5"/>

      <!-- Screwdriver -->
      <path d="m 1,9 a 1,1 0 0 0 -1,1 v 4 a 1,1 0 0 0 1,1 h 10 a 1,1 0 0 0 1,-1 v -4 a 1,1 0 0 0 -1,-1"/>
      <path d="m 13,13 v -2 h 5 c 0.75,0 1.5,0 3,-1 l 3,0.5 v 3 l -3,0.5 c -1.5,-1 -2.25,-1 -3,-1"/>
    </g>
  </g>
</svg>
