<svg xmlns="http://www.w3.org/2000/svg" viewBox="0 0 22 22">
  <defs>
    <style id="current-color-scheme" type="text/css">
      .ColorScheme-Text { color: #D8D8D8 }
    </style>
  </defs>
  <g class="ColorScheme-Text" style="fill:currentColor" transform="translate(-1,-1)">
    <!-- Frame -->
    <path d="m 3,3 a 1,1 0 0 0 -1,1 v 16 a 1,1 0 0 0 1,1 h 18 a 1,1 0 0 0 1,-1 v -16 a 1,1 0 0 0 -1,-1 z m 0,1 h 18 v 16 h -18 z"/>

    <!-- Picture -->
    <circle cx="7" cy="8" r="2"/>
    <path d="m 4,19 0,-1 4,-4 5,5 m 1,0 -3.5,-3.5 3.5,-3.5 6,6 0,1"/>
  </g>
</svg>
