<svg xmlns="http://www.w3.org/2000/svg" viewBox="0 0 22 22">
  <defs>
    <linearGradient id="folder-front" x1="0%" y1="0%" x2="0%" y2="100%">
      <stop offset="0%" style="stop-color:#90CAF9"/> <!-- Blue 200 -->
      <stop offset="100%" style="stop-color:#64B5F6"/> <!-- Blue 300 -->
    </linearGradient>
    <style type="text/css">
      .folder-back { fill: #2196F3 /* Blue 500 */ }
      .folder-front { fill: url(#folder-front) }
    </style>
  </defs>
  <g transform="translate(-1,-1)">
    <path class="folder-back" d="m 2,5 a 1,1 0 0 1 1,-1 h 5 c 1,0 1,0 2,1 l 2,2 h 9 a 1,1 0 0 1 1,1 v 2 h -20 z"/>
    <path class="folder-front" d="m 3,20 c -0.55,0 -0.9375,-0.5 -1,-1 l -1 -7 c -0.0625,-0.5 0.45,-1 1,-1 h 20 c 0.55,0 1.0625,0.5 1,1 l -1,7 c -0.0625,0.5 -0.45,1 -1,1 z"/>
  </g>
</svg>
