<svg xmlns="http://www.w3.org/2000/svg" viewBox="0 0 22 22">
  <defs>
    <linearGradient id="symbol" x1="0" y1="0" x2="0" y2="22" gradientUnits="userSpaceOnUse">
      <stop offset="0%" style="stop-color:#BBDEFB"/> <!-- Blue 100 -->
      <stop offset="100%" style="stop-color:#90CAF9"/> <!-- Blue 200 -->
    </linearGradient>
  </defs>
  <path style="fill:url(#symbol)" transform="translate(-1,-1)"
        d="M 3,5 a 2,2 0 0 0 -2,2 v 10 a 2,2 0 0 0 2,2 h 12 a 2,2 0 0 0 2,-2 v -10 a 2,2 0 0 0 -2,-2
           M 23,12 v -5.79 c 0,-0.45 -0.54,-0.67 -0.85,-0.36 l -4.15,4.15 l 0,4 l 4.15,4.15 c 0.31,0.31 0.85,0.09 0.85,-0.36 z"/>
</svg>
