<svg xmlns="http://www.w3.org/2000/svg" viewBox="0 0 32 32">
  <defs>
    <linearGradient id="light-reflex" x1="0%" y1="0%" x2="0%" y2="100%">
      <stop offset="0%" style="stop-color:white;stop-opacity:0.125"/>
      <stop offset="50%" style="stop-color:white;stop-opacity:0"/>
    </linearGradient>
    <linearGradient id="kinked-edge" x1="0%" y1="100%" x2="50%" y2="50%">
      <stop offset="0%" style="stop-color:white;stop-opacity:0.5"/>
      <stop offset="100%" style="stop-color:white;stop-opacity:0.25"/>
    </linearGradient>
    <style id="current-color-scheme" type="text/css">
      .ColorScheme-Text { color: #606060 }
    </style>
    <style type="text/css">
      .page-background { fill: #E0E0E0 }
      .lighten { fill: white; fill-opacity: 0.125 }
      .darken { fill:black; fill-opacity: 0.125 }
    </style>
  </defs>

  <!-- Document -->
  <path class="page-background" d="m 8,3 a 2,2 0 0 0 -2,2 v 22 a 2,2 0 0 0 2,2 h 16 a 2,2 0 0 0 2,-2 v -16 l -8,-8 z"/>
  <g class="ColorScheme-Text" style="fill:currentColor;fill-opacity:0.125">
    <path d="m 8,3 a 2,2 0 0 0 -2,2 v 22 a 2,1 0 0 0 1,0.865 v -22.865 a 1,1 0 0 1 1,-1 h 10 v -1"/>
    <path d="m 26,11 h -1 v 16.865 a 2,1 0 0 0 1,-1"/>
  </g>
  <path class="lighten" d="m 8,3 a 2,2 0 0 0 -2,2 a 2,1 0 0 1 2,-1 h 10 v -1 z"/>
  <path class="darken" d="m 8,28 a 2,1 0 0 1 -2,-1 a 2,2 0 0 0 2,2 h 16 a 2,2 0 0 0 2,-2 a 2,1 0 0 1 -2,1"/>
  <path style="fill:url(#light-reflex)" d="m 8,3 a 2,2 0 0 0 -2,2 v 22 a 2,2 0 0 0 2,2 h 16 a 2,2 0 0 0 2,-2 v -16 h -6 a 2,2 0 0 1 -2,-2 v -6"/>

  <g transform="translate(18,3)">
    <path style="fill:url(#kinked-edge)" d="m 0,0 v 6 a 2,2 0 0 0 2,2h 6 z"/>
    <path class="darken" d="m 0,0 l -1,1 v 6 a 3,3 0 0 0 3,3 h 4 l 2,-2 h -6 a 2,2 0 0 1 -2,-2"/>
    <path class="darken" d="m 0,6 v 1 a 2,2 0 0 0 2,2 h 5 l 1,-1 h -6 a 2,2 0 0 1 -2,-2 "/>
  </g>

  <!-- Text -->
  <g style="fill:#303030" transform="translate(10,13)">
    <rect y="2" width="12" height="2" rx="1" ry="1"/>
    <rect y="6" width="12" height="2" rx="1" ry="1"/>
    <rect y="10" width="8" height="2" rx="1" ry="1"/>
  </g>
</svg>
