<svg xmlns="http://www.w3.org/2000/svg" viewBox="0 0 32 32">
  <defs>
    <linearGradient id="background" x1="0" y1="0%" x2="0" y2="100%">
      <stop offset="0%" style="stop-color:#2196F3"/> <!-- Blue 500 -->
      <stop offset="100%" style="stop-color:#1565C0"/> <!-- Blue 800 -->
    </linearGradient>
    <linearGradient id="border" x1="0" y1="0%" x2="0" y2="100%">
      <stop offset="0%" style="stop-color:#1565C0"/> <!-- Blue 800 -->
      <stop offset="100%" style="stop-color:#0D47A1"/> <!-- Blue 900 -->
    </linearGradient>
    <style type="text/css">
      .symbol { fill: white }
    </style>
  </defs>
  <g transform="translate(16,16)">
    <!-- Background and border -->
    <circle style="fill:url(#background)" r="14"/>
    <path style="fill:url(#border)" d="m -15,0 a 15,15 0 0 0 30,0 a 15,15 0 0 0 -30,0 m 2,0 a 13,13 0 0 1 26,0 a 13,13 0 0 1 -26,0"/>

    <!-- Symbol -->
    <path class="symbol" d="M 0,-8.5 a 2,2 0 0 1 0,4 a 2,2 0 0 1 0,-4 M -2,0.5 a 2,2 0 0 1 4,0 v 6 a 2,2 0 0 1 -4,0"/>
  </g>
</svg>
