<svg xmlns="http://www.w3.org/2000/svg" viewBox="0 0 32 32">
  <defs>
    <linearGradient id="background" x1="0%" y1="0%" x2="100%" y2="100%">
      <stop offset="0%" style="stop-color:#EC407A"/> <!-- Pink 400 -->
      <stop offset="100%" style="stop-color:#5C6BC0"/> <!-- Indigo 400 -->
    </linearGradient>
    <style type="text/css">
      .lighten { fill: white; fill-opacity: 0.125 }
      .darken { fill: black; fill-opacity: 0.125 }
    </style>
  </defs>

  <!-- Background -->
  <path style="fill:url(#background)" d="m 4,2 a 2,2 0 0 0 -2,2 v 24 a 2,2 0 0 0 2,2 h 24 a 2,2 0 0 0 2,-2 v -24 a 2,2 0 0 0 -2,-2"/>
  <path class="lighten" d="m 4,2 a 2,2 0 0 0 -2,2 a 2,1 0 0 1 2,-1 h 24 a 2,1 0 0 1 2,1 a 2,2 0 0 0 -2,-2"/>
  <path class="darken" d="m 4,29 a 2,1 0 0 1 -2,-1 a 2,2 0 0 0 2,2 h 24 a 2,2 0 0 0 2,-2 a 2,1 0 0 1 -2,1"/>

  <!-- Eye -->
  <g style="fill:white" transform="translate(4,4)">
    <path transform="translate(0,0.5)" d="M12 6c3.79 0 7.17 2.13 8.82 5.5C19.17 14.87 15.79 17 12 17s-7.17-2.13-8.82-5.5C4.83 8.13 8.21 6 12 6m0-2C7 4 2.73 7.11 1 11.5 2.73 15.89 7 19 12 19s9.27-3.11 11-7.5C21.27 7.11 17 4 12 4z"/>
    <circle cx="12" cy="12" r="4.5"/>
  </g>
</svg>
