<svg xmlns="http://www.w3.org/2000/svg" viewBox="0 0 48 48">
  <defs>
    <linearGradient id="folder-front" x1="0%" y1="0%" x2="0%" y2="100%">
      <stop offset="0%" style="stop-color:#90CAF9"/> <!-- Blue 200 -->
      <stop offset="100%" style="stop-color:#64B5F6"/> <!-- Blue 300 -->
    </linearGradient>
    <linearGradient id="clock" x1="0" y1="0" x2="0" y2="100%">
      <stop offset="0%" style="stop-color:#BBDEFB"/> <!-- Blue 100 -->
      <stop offset="100%" style="stop-color:#90CAF9"/> <!-- Blue 200 -->
    </linearGradient>
    <style type="text/css">
      .folder-back { fill: #2196F3 /* Blue 500 */ }
      .folder-front { fill: url(#folder-front) }
      .document { fill: #E0E0E0 }
      .lighten { fill: white; fill-opacity: 0.125 }
      .darken { fill: black; fill-opacity: 0.125 }
      .clock { fill: url(#clock); stroke: #1976D2 /* Blue 700 */ }
      .clock-hands { fill: none; stroke: #0D47A1 /* Blue 900 */; stroke-width: 3; stroke-linecap: round; stroke-linejoin: round }
    </style>
  </defs>

  <!-- Folder -->
  <path class="folder-back" d="m 4,11 a 2,2 0 0 1 2,-2 h 12 c 2,0 2,0 4,2 l 2,2 h 18 a 2,2 0 0 1 2,2 v 4 h -40"/>
  <rect class="document" x="8" y="16" width="32" height="3"/>
  <rect class="darken" x="4" y="18" width="40" height="1"/>
  <path class="folder-front" d="m 6,39 c -1.1,0 -1.875,-1 -2,-2 l -2,-16 c -0.125,-1 0.9,-2 2,-2 h 40 c 1.1,0 2.125,1 2,2 l -2,16 c -0.125,1 -0.9,2 -2,2"/>
  <path class="lighten" d="m 2,21 c -0.125,-1 0.9,-2 2,-2 h 40 c 1.1,0 2.125,1 2,2 a 2,1 0 0 0 -2,-1 h -40 a 2,1 0 0 0 -2,1 z"/>
  <path class="darken" d="m 6,39 c -1.1,0 -1.875,-1 -2,-2 a 2,1 0 0 0 2,1 h 36 a 2,1 0 0 0 2,-1 c -0.125,1 -0.9,2 -2,2 z"/>

  <!-- Clock -->
  <g transform="translate(34,34)">
    <circle class="clock" r="11.5"/>
    <path class="clock-hands" d="m 0,-7.5 0,7.5 4.87,2.81"/>
  </g>
</svg>
