<svg xmlns="http://www.w3.org/2000/svg" viewBox="0 0 24 24">
  <defs>
    <style id="current-color-scheme" type="text/css">
      .ColorScheme-Text { color: #D8D8D8 }
    </style>
  </defs>
  <g class="ColorScheme-Text" style="fill:currentColor">
    <g style="opacity:0.5">
      <!-- Speaker -->
      <path d="M 11.11 5.414 C 10.83 5.38 10.53 5.463 10.29 5.699 L 10.11 5.881 L 12 7.771 L 12 6.41 C 12 5.854 11.58 5.47 11.11 5.414 z M 8.701 7.293 L 7 9 L 4 9 C 3.45 9 3 9.45 3 10 L 3 14 C 3 14.55 3.45 15 4 15 L 7 15 L 10.29 18.29 C 10.92 18.92 12 18.47 12 17.58 L 12 10.59 L 8.701 7.293 z"/>

      <!-- Sound waves -->
      <path d="M 14.02 6.551 A 0.5 0.5 0 0 0 13.65 7.35 A 6.6 6.6 0 0 1 15.52 11.29 L 16.54 12.31 A 7.6 7.6 0 0 0 14.35 6.65 A 0.5 0.5 0 0 0 14.02 6.551 z M 15.29 13.88 A 6.6 6.6 0 0 1 13.65 16.65 A 0.5 0.5 0 0 0 14.35 17.35 A 7.6 7.6 0 0 0 16.07 14.66 L 15.29 13.88 z"/>
      <path d="M 16.02 4.551 A 0.5 0.5 0 0 0 15.65 5.35 A 9.4 9.4 0 0 1 18.2 13.97 L 19.01 14.78 A 10.4 10.4 0 0 0 16.35 4.65 A 0.5 0.5 0 0 0 16.02 4.551 z M 17.47 16.06 A 9.4 9.4 0 0 1 15.65 18.65 A 0.5 0.5 0 0 0 16.35 19.35 A 10.4 10.4 0 0 0 18.21 16.8 L 17.47 16.06 z"/>
      <path d="M 18.02 2.551 A 0.5 0.5 0 0 0 17.65 3.35 A 12.2 12.2 0 0 1 20.47 16.24 L 21.24 17.01 A 13.2 13.2 0 0 0 18.35 2.65 A 0.5 0.5 0 0 0 18.02 2.551 z M 19.57 18.16 A 12.2 12.2 0 0 1 17.65 20.65 A 0.5 0.5 0 0 0 18.35 21.35 A 13.2 13.2 0 0 0 20.28 18.88 L 19.57 18.16 z"/>
    </g>

    <!-- Strike-through -->
    <path d="m 4.54,3.13 a 0.5,0.5 0 0 0 -1.41,1.41 l 16.33,16.33 a 0.5,0.5 0 0 0 1.41,-1.41 z"/>
  </g>
</svg>
