<svg xmlns="http://www.w3.org/2000/svg" viewBox="0 0 24 24">
  <defs>
    <style id="current-color-scheme" type="text/css">
      .ColorScheme-Text { color: #D8D8D8 }
    </style>
  </defs>
  <g class="ColorScheme-Text" style="fill:currentColor">
    <path d="M 3,16 a 1,1 0 0 0 0,2 h 2 a 4,4 0 0 0 2.82,-1.18 l 8.23,-8.23 a 2,2 0 0 1 1.41,-0.59 h 0.6
             v 1.79 c 0,0.45 0.54,0.67 0.85,0.36 l 2.79,-2.79 c 0.2,-0.2 0.2,-0.52 0,-0.72 l -2.79,-2.79 c -0.31,-0.31 -0.85,-0.09 -0.85,0.36 v 1.79
             h -0.6 a 4,4 0 0 0 -2.82,1.18 l -8.23,8.23 a 2,2 0 0 1 -1.41,0.59"/>

    <path d="M 3,6 a 1,1 0 0 0 0,2 h 2 a 2,2 0 0 1 1.41,0.59 l 2.7,2.7 1.41,-1.41 -2.7,-2.7 a 4,4 0 0 0 -2.82,-1.18
             M 18,16 h -0.6 a 2,2 0 0 1 -1.41,-0.59 l -2.7,-2.7 -1.41,1.41 2.7,2.7 a 4,4 0 0 0 2.82,1.18 h 0.6
             v 1.79 c 0,0.45 0.54,0.67 0.85,0.36 l 2.79,-2.79 c 0.2,-0.2 0.2,-0.52 0,-0.72 l -2.79,-2.79 c -0.31,-0.31 -0.85,-0.09 -0.85,0.36 v 1.79"/>
  </g>  
</svg>
