<svg xmlns="http://www.w3.org/2000/svg" viewBox="0 0 24 24">
  <defs>
    <style id="current-color-scheme" type="text/css">
      .ColorScheme-Text { color: #D8D8D8 }
    </style>
  </defs>
  <g class="ColorScheme-Text" style="fill:currentColor" transform="translate(12,12.71)">
    <path style="fill-opacity:0.5"
          d="M  2.69, -3.71 l -1.76, -5.40 a 1,1 0 0 0 -1.90, 0
             L -2.69, -3.71 h -5.68        a 1,1 0 0 0 -0.59, 1.80
             L -4.35,  1.40 l -1.76,  5.40 a 1,1 0 0 0  1.54, 1.12
             L     0,  4.59 l  4.60,  3.33 a 1,1 0 0 0  1.54,-1.12
             L  4.35,  1.40 l  4.60, -3.33 a 1,1 0 0 0 -0.59,-1.80"/>
    <path d="M     0,  4.59 L  0,-9.795    a 1,1 0 0 0 -0.965,0.695
             L -2.69, -3.71 h -5.68        a 1,1 0 0 0 -0.59, 1.80
             L -4.35,  1.40 l -1.76,  5.40 a 1,1 0 0 0  1.54, 1.12"/>
  </g>
</svg>
