<svg xmlns="http://www.w3.org/2000/svg" viewBox="0 0 48 48">
  <defs>
    <linearGradient id="shackle-inner" x1="0" y1="0" x2="100%" y2="0">
      <stop offset="0%" style="stop-color:black;stop-opacity:0.25"/>
      <stop offset="100%" style="stop-color:black;stop-opacity:0"/>
    </linearGradient>
    <linearGradient id="body" x1="0%" y1="0%" x2="100%" y2="0%">
      <stop offset="0%" style="stop-color:#FBC02D"/> <!-- Yellow 700 -->
      <stop offset="25%" style="stop-color:#FFA000"/> <!-- Amber 700 -->
      <stop offset="75%" style="stop-color:#FFA000"/>
      <stop offset="100%" style="stop-color:#FBC02D"/>
    </linearGradient>
    <style type="text/css">
      .shackle { fill: #9E9E9E /* Gray 500 */ }
      .lighten-strongly { fill: white; fill-opacity: 0.25 }
      .darken { fill: black; fill-opacity: 0.125 }
    </style>
  </defs>

  <!-- Shackle (24x18px) -->
  <g transform="translate(12,4)">
    <path class="shackle" d="m 0,12 v 6 h 4 v -6 a 8,8 0 0 1 16,0 v 6 h 4 v -6 a 12,12 0 0 0 -24,0"/>
    <path style="fill:url(#shackle-inner)" d ="m 2,12 v 6 h 2 v -6 a 8,8 0 0 1 16,0 v 6 h 2 v -6 a 10,10 0 0 0 -20,0"/>
  </g>

  <!-- Body (30x22px) -->
  <g transform="translate(9,22)">
    <path style="fill:url(#body)" d="m 2,0 a 2,2 0 0 0 -2,2 v 18 a 2,2 0 0 0 2,2 h 26 a 2,2 0 0 0 2,-2 v -18 a 2,2 0 0 0 -2,-2"/>
    <path class="lighten-strongly" d="m 2,0 a 2,2 0 0 0 -2,2 a 2,1 0 0 1 2,-1 h 26 a 2,2 0 0 1 2,1 a 2,2 0 0 0 -2,-2"/>
    <path class="darken" d="m 2,21 a 2,1 0 0 1 -2,-1 a 2,2 0 0 0 2,2 h 26 a 2,2 0 0 0 2,-2 a 2,1 0 0 1 -2,1"/>
  </g>
</svg>
