<svg xmlns="http://www.w3.org/2000/svg" viewBox="0 0 48 48">
  <defs>
    <linearGradient id="surface-left" x1="0" y1="0%" x2="100%" y2="100%">
      <stop offset="0%" style="stop-color:#BBDEFB"/> <!-- Blue 100 -->
      <stop offset="100%" style="stop-color:#64B5F6"/> <!-- Blue 300 -->
    </linearGradient>
    <linearGradient id="border-left" x1="0" y1="0%" x2="100%" y2="100%">
      <stop offset="0%" style="stop-color:#90CAF9"/> <!-- Blue 200 -->
      <stop offset="100%" style="stop-color:#42A5F5"/> <!-- Blue 400 -->
    </linearGradient>
    <linearGradient id="surface-right" x1="0" y1="0%" x2="100%" y2="100%">
      <stop offset="0%" style="stop-color:#2196F3"/> <!-- Blue 500 -->
      <stop offset="100%" style="stop-color:#1976D2"/> <!-- Blue 700 -->
    </linearGradient>
    <linearGradient id="border-right" x1="0" y1="0%" x2="100%" y2="100%">
      <stop offset="0%" style="stop-color:#1E88E5"/> <!-- Blue 600 -->
      <stop offset="100%" style="stop-color:#1565C0"/> <!-- Blue 800 -->
    </linearGradient>
    <style type="text/css">
      .darken-strongly { fill: black; fill-opacity: 0.25 }
    </style>
  </defs>
  <path style="fill:url(#surface-left)" d="M 24,4 l -16,5.33 v 14.67 a 16,20 0 0 0 16,20"/>
  <path style="fill:url(#surface-right)" d="M 24,4 l 16,5.33 v 14.67 a 16,20 0 0 1 -16,20"/>
  <path style="fill:url(#border-left)" d="M 24,6 v -2 l -16,5.33 v 14.67 a 16,20 0 0 0 16,20 v -2 a 14,18 0 0 1 -14,-18 v -13.33"/>
  <path style="fill:url(#border-right)" d="M 24,6 v -2 l 16,5.33 v 14.67 a 16,20 0 0 1 -16,20 v -2 a 14,18 0 0 0 14,-18 v -13.33"/>
  <path class="darken-strongly" d="M 24,4 l -16,5.33 v 14.67 a 16,20 0 0 0 32,0 v -14.67 z m 0,2 l 14,4.67 v 13.33 a 14,18 0 0 1 -28,0 v -13.33"/>
</svg>
