<svg xmlns="http://www.w3.org/2000/svg" viewBox="0 0 48 48">
  <defs>
    <linearGradient id="surface-left" x1="0" y1="0%" x2="100%" y2="100%">
      <stop offset="0%" style="stop-color:#FFE082"/> <!-- Amber 200 -->
      <stop offset="100%" style="stop-color:#FFCA28"/> <!-- Amber 400 -->
    </linearGradient>
    <linearGradient id="border-left" x1="0" y1="0%" x2="100%" y2="100%">
      <stop offset="0%" style="stop-color:#FFD54F"/> <!-- Amber 300 -->
      <stop offset="100%" style="stop-color:#FFC107"/> <!-- Amber 500 -->
    </linearGradient>
    <linearGradient id="surface-right" x1="0" y1="0%" x2="100%" y2="100%">
      <stop offset="0%" style="stop-color:#FFB300"/> <!-- Amber 600 -->
      <stop offset="100%" style="stop-color:#FF8F00"/> <!-- Amber 800 -->
    </linearGradient>
    <linearGradient id="border-right" x1="0" y1="0%" x2="100%" y2="100%">
      <stop offset="0%" style="stop-color:#FFA000"/> <!-- Amber 700 -->
      <stop offset="100%" style="stop-color:#FF6F00"/> <!-- Amber 900 -->
    </linearGradient>
    <style type="text/css">
      .darken-strongly { fill: black; fill-opacity: 0.25 }
    </style>
  </defs>
  <path style="fill:url(#surface-left)" d="M 24,4 l -16,5.33 v 14.67 a 16,20 0 0 0 16,20"/>
  <path style="fill:url(#surface-right)" d="M 24,4 l 16,5.33 v 14.67 a 16,20 0 0 1 -16,20"/>
  <path style="fill:url(#border-left)" d="M 24,6 v -2 l -16,5.33 v 14.67 a 16,20 0 0 0 16,20 v -2 a 14,18 0 0 1 -14,-18 v -13.33"/>
  <path style="fill:url(#border-right)" d="M 24,6 v -2 l 16,5.33 v 14.67 a 16,20 0 0 1 -16,20 v -2 a 14,18 0 0 0 14,-18 v -13.33"/>
  <path class="darken-strongly" d="M 24,4 l -16,5.33 v 14.67 a 16,20 0 0 0 32,0 v -14.67 z m 0,2 l 14,4.67 v 13.33 a 14,18 0 0 1 -28,0 v -13.33"/>
</svg>
