<svg xmlns="http://www.w3.org/2000/svg" viewBox="0 0 32 32">
  <defs>
    <linearGradient id="dark-background-overlay" x1="0%" y1="0%" x2="0%" y2="100%">
      <stop offset="0%" style="stop-color:black;stop-opacity:0"/>
      <stop offset="100%" style="stop-color:black;stop-opacity:0.125"/>
    </linearGradient>
    <linearGradient id="kinked-edge" x1="0%" y1="100%" x2="50%" y2="50%">
      <stop offset="0%" style="stop-color:white;stop-opacity:0.5"/>
      <stop offset="100%" style="stop-color:white;stop-opacity:0.25"/>
    </linearGradient>
    <style type="text/css">
      .document-background { fill: #F57F17 /* Yellow 900 */ }
      .symbol { fill: #FFFDE7 /* Yellow 50 */ }
      .lighten-strongly { fill: white; fill-opacity: 0.25 }
      .darken { fill:black; fill-opacity: 0.125 }
    </style>
  </defs>

  <!-- Document -->
  <path class="document-background" d="m 8,3 a 2,2 0 0 0 -2,2 v 22 a 2,2 0 0 0 2,2 h 16 a 2,2 0 0 0 2,-2 v -16 l -8,-8 z"/>
  <path style="fill:url(#dark-background-overlay)" d="m 8,3 a 2,2 0 0 0 -2,2 v 22 a 2,2 0 0 0 2,2 h 16 a 2,2 0 0 0 2,-2 v -16 h -6 a 2,2 0 0 1 -2,-2 v -6"/>
  <path class="lighten-strongly" d="m 8,3 a 2,2 0 0 0 -2,2 a 2,1 0 0 1 2,-1 h 10 v -1 z"/>
  <path class="darken" d="m 8,28 a 2,1 0 0 1 -2,-1 a 2,2 0 0 0 2,2 h 16 a 2,2 0 0 0 2,-2 a 2,1 0 0 1 -2,1"/>

  <g transform="translate(18,3)">
    <path style="fill:url(#kinked-edge)" d="m 0,0 v 6 a 2,2 0 0 0 2,2h 6 z"/>
    <path class="darken" d="m 0,0 l -1,1 v 6 a 3,3 0 0 0 3,3 h 4 l 2,-2 h -6 a 2,2 0 0 1 -2,-2"/>
    <path class="darken" d="m 0,6 v 1 a 2,2 0 0 0 2,2 h 5 l 1,-1 h -6 a 2,2 0 0 1 -2,-2 "/>
  </g>

  <!-- Symbol -->
  <g class="symbol">
    <path d="m 16.68,23.2 q 0,0.62 -0.15,1.16 -0.13,0.54 -0.48,0.94 -0.33,0.4 -0.92,0.64 -0.58,0.23 -1.47,0.23 -0.81,0 -1.4,-0.19 -0.59,-0.21 -0.97,-0.47 l 0.62,-1.45 q 0.35,0.2 0.75,0.36 0.39,0.15 0.86,0.15 0.68,0 0.98,-0.33 0.3,-0.34 0.3,-1.13 v -5.43 h 1.88 z"/>
    <path d="m 20.74,24.57 c 0.4,0 0.82,-0.11 1.14,-0.34 0.32,-0.29 0.34,-0.85 -0,-1.13 -0.66,-0.52 -1.52,-0.65 -2.26,-1.02 -0.75,-0.32 -1.4,-1.01 -1.46,-1.86 -0.12,-0.97 0.41,-2.01 1.32,-2.41 0.94,-0.44 2.03,-0.44 3.03,-0.22 0.39,0.11 0.85,0.23 1.15,0.46 -0.17,0.48 -0.35,0.97 -0.53,1.45 -0.79,-0.41 -1.73,-0.59 -2.6,-0.34 -0.49,0.12 -0.62,0.81 -0.26,1.14 0.42,0.41 1.03,0.5 1.55,0.73 0.78,0.31 1.65,0.67 2.03,1.48 0.29,0.69 0.31,1.51 0,2.2 -0.35,0.82 -1.23,1.24 -2.08,1.35 -0.78,0.12 -1.59,0.1 -2.35,-0.11 -0.5,-0.1 -0.99,-0.23 -1.42,-0.49 0.18,-0.5 0.35,-0.99 0.53,-1.49 0.68,0.39 1.47,0.54 2.25,0.53 -0,0 -0,0.1 -0,0.1 z"/>
  </g>
  <!--
  <text style="font-family:Ubuntu;font-size:12px;font-weight:bold;text-anchor:end" x="24.5" y="26">JS</text>
  -->
</svg>
