<svg xmlns="http://www.w3.org/2000/svg" viewBox="0 0 32 32">
  <defs>
    <linearGradient id="background-overlay" x1="0%" y1="0%" x2="0%" y2="100%">
      <stop offset="0%" style="stop-color:white;stop-opacity:0.125"/>
      <stop offset="100%" style="stop-color:white;stop-opacity:0"/>
    </linearGradient>
    <style type="text/css">
      .background { fill: #F4511E /* Deep orange 600 */ }
      .left-zipper-teeth { fill: white }
      .right-zipper-teeth { fill: #FFCCBC /* Deep orange 100 */ }
      .lighten { fill: white; fill-opacity: 0.125 }
      .darken { fill: black; fill-opacity: 0.125 }
    </style>
  </defs>

  <!-- Background -->
  <path class="background"
        d="m 8,3 a 2,2 0 0 0 -2,2 v 22 a 2,2 0 0 0 2,2 h 16 a 2,2 0 0 0 2,-2 v -22 a 2,2 0 0 0 -2,-2"/>
  <path style="fill:url(#background-overlay)"
        d="m 8,3 a 2,2 0 0 0 -2,2 v 22 a 2,2 0 0 0 2,2 h 16 a 2,2 0 0 0 2,-2 v -22 a 2,2 0 0 0 -2,-2"/>

  <!-- Zipper -->
  <rect class="darken" x="12" y="3" width="8" height="26"/>

  <path class="left-zipper-teeth"
        d="m 13,4 h 3 v 2 h -3
           m 0,2 h 3 v 2 h -3
           m 0,2 h 3 v 2 h -3
           m 0,2 h 3 v 2 h -3
           m 0,2 h 3 v 2 h -3
           m 0,2 h 3 v 2 h -3"/>

  <path class="right-zipper-teeth"
        d="m 16,6 h 3 v 2 h -3
           m 0,2 h 3 v 2 h -3
           m 0,2 h 3 v 2 h -3
           m 0,2 h 3 v 2 h -3
           m 0,2 h 3 v 2 h -3
           m 0,2 h 3 v 2 h -3"/>

  <!-- Borders -->
  <path class="lighten" d="m 8,3 a 2,2 0 0 0 -2,2 a 2,1 0 0 1 2,-1 h 16 a 2,1 0 0 1 2,1 a 2,2 0 0 0 -2,-2"/>
  <path class="darken" d="m 8,28 a 2,1 0 0 1 -2,-1 a 2,2 0 0 0 2,2 h 16 a 2,2 0 0 0 2,-2 a 2,1 0 0 1 -2,1"/>
</svg>
