<svg xmlns="http://www.w3.org/2000/svg" viewBox="0 0 32 32">
  <defs>
    <linearGradient id="symbol" x1="0%" y1="0%" x2="0%" y2="100%">
      <stop offset="0%" style="stop-color:white"/>
      <stop offset="100%" style="stop-color:#EEEEEE"/> <!-- Gray 200 -->
    </linearGradient>
    <linearGradient id="background" x1="0%" y1="0%" x2="100%" y2="100%">
      <stop offset="0%" style="stop-color:#29B6F6"/> <!-- Light blue 400 -->
      <stop offset="100%" style="stop-color:#0277BD"/> <!-- Light blue 800 -->
    </linearGradient>
  </defs>
  <path style="fill:url(#background)"
        d="m 4,4 a 2,2 0 0 0 -2,2 v 20 a 2,2 0 0 0 2,2 h 24 a 2,2 0 0 0 2,-2 v -20 a 2,2 0 0 0 -2,-2 z"/>

  <path style="fill:url(#symbol)" transform="translate(6,9)"
        d="M 5.805,11.3 a 2.275,3.325 60 1 1 -0.35,-0.4375
           M 16.805,11.3 a 2.275,3.325 60 1 1 -0.35,-0.4375
           M 5,0 h 12 v 12 h -1 v -9 h -10 v 9 h -1"/>
</svg>
