<svg xmlns="http://www.w3.org/2000/svg" viewBox="0 0 32 32">
  <defs>
    <linearGradient id="foreground" x1="0%" y1="0%" x2="0%" y2="100%">
      <stop offset="0%" style="stop-color:#616161"/> <!-- Gray 700 -->
      <stop offset="100%" style="stop-color:#424242"/> <!-- Gray 800 -->
    </linearGradient>
    <linearGradient id="background" x1="0%" y1="0%" x2="0%" y2="100%">
      <stop offset="0%" style="stop-color:#E0E0E0"/> <!-- Gray 300 -->
      <stop offset="100%" style="stop-color:#BDBDBD"/> <!-- Gray 400 -->
    </linearGradient>
  </defs>
  <path style="fill:url(#background)"
        d="m 6,4 a 2,2 0 0 0 -2,2 v 20 a 2,2 0 0 0 2,2 h 20 a 2,2 0 0 0 2,-2 v -20 a 2,2 0 0 0 -2,-2 z"/>

  <g style="fill:url(#foreground)">
    <circle cx="11" cy="11" r="3"/>
    <path d="m 6,26 l 0,-1 5,-5 l 6,6"/>
    <path style="fill-opacity:0.75" d="m 18,26 l -3.5,-3.5 4.5,-4.5 7,7 0,1"/>
  </g>
</svg>
