<svg xmlns="http://www.w3.org/2000/svg" viewBox="0 0 64 64">
  <defs>
    <linearGradient id="folder-front" x1="0%" y1="0%" x2="0%" y2="100%">
      <stop offset="0%" style="stop-color:#90CAF9"/> <!-- Blue 200 -->
      <stop offset="100%" style="stop-color:#64B5F6"/> <!-- Blue 300 -->
    </linearGradient>
    <style type="text/css">
      .folder-back { fill: #2196F3 /* Blue 500 */ }
      .folder-front { fill: url(#folder-front) }
      .symbol { fill: black; opacity: 0.5 }
      .lighten { fill: white; fill-opacity: 0.125 }
      .darken { fill: black; fill-opacity: 0.125 }
    </style>
  </defs>

  <!-- Folder -->
  <path class="folder-back" d="m 6,14.67 a 2.67,2.67 0 0 1 2.67,-2.67 h 15.33 c 2,0 2,0 4,2 l 4,4 h 23.33 a 2.67,2.67 0 0 1 2.67,2.67 v 2 a 2.67,2.67 0 0 0 -2.67,-2.67 h -46.66 a 2.67,2.67 0 0 0 -2.67,2.67"/>
  <path class="darken" d="m 8.67,19 a 3.67,3.67 0 0 0 -2.67,1.15 v 2.52 a 2.67,2.67 0 0 1 2.67,-2.67 h 46.66 a 2.67,2.67 0 0 1 2.67,2.67 v -2.52 a 3.67,3.67 0 0 0 -2.67,-1.15"/>
  <rect class="folder-front" x="6" y="20" width="52" height="32" rx="2.67" ry="2.67"/>
  <path class="lighten" d="m 8.67,20 a 2.67,2.67 0 0 0 -2.67,2.67 a 2.67,1.67 0 0 1 2.67,-1.67 h 46.66 a 2.67,1.67 0 0 1 2.67,1.67 a 2.67,2.67 0 0 0 -2.67,-2.67"/>
  <path class="darken" d="m 8.67,51 a 2.67,1.67 0 0 1 -2.67,-1.67 a 2.67,2.67 0 0 0 2.67,2.67 h 46.66 a 2.67,2.67 0 0 0 2.67,-2.67 a 2.67,1.67 0 0 1 -2.67,1.67"/>

  <!-- Symbol (24x24) -->
  <g class="symbol" transform="translate(20,24)">
    <path d="M 20.775,16.1 a 2.6,3.8 60 1 1 -0.4,-0.5
             M 7.775,16.1 a 2.6,3.8 60 1 1 -0.4,-0.5
             M 7,3 h 14 v 14 h -1 v -10 h -12 v 10 h -1"/>
  </g>
</svg>
