<svg xmlns="http://www.w3.org/2000/svg" viewBox="0 0 22 22">
  <defs>
    <linearGradient id="background" x1="0" y1="0" x2="0" y2="100%">
      <stop offset="0%" style="stop-color:#BBDEFB"/> <!-- Blue 100 -->
      <stop offset="100%" style="stop-color:#90CAF9"/> <!-- Blue 200 -->
    </linearGradient>
    <style type="text/css">
      .background { fill: url(#background); stroke: #1976D2 /* Blue 700 */ }
      .symbol { fill: #0D47A1 /* Blue 900 */ }
    </style>
  </defs>
  <g style="opacity:0.75" transform="translate(11,11)">
    <circle class="background" r="10.5"/>

    <g class="symbol">
      <path style="fill-opacity:0.5" d="M -4,0 a 4,4 0 0 0 8,0 a 4,4 0 0 0 -8,0 M -3.5,1 v -2 h -3 a 1,1 0 0 0 0,2"/>
      <path d="M -3.5,6.06 A 7,7 0 1 0 -3.5,-6.06 L -2.5,-4.33 A 5,5 0 1 1 -2.5,4.33 M 6.5,-1 v 2 h 2 a 1,1 0 0 0 0,-2"/>
    </g>
  </g>
</svg>
