<svg xmlns="http://www.w3.org/2000/svg" viewBox="0 0 22 22">
  <defs>
    <linearGradient id="background" x1="0" y1="0" x2="0" y2="100%">
      <stop offset="0%" style="stop-color:#BBDEFB"/> <!-- Blue 100 -->
      <stop offset="100%" style="stop-color:#90CAF9"/> <!-- Blue 200 -->
    </linearGradient>
    <style type="text/css">
      .background { fill: url(#background); stroke: #1976D2 /* Blue 700 */ }
      .symbol { fill: #0D47A1 /* Blue 900 */ }
    </style>
  </defs>
  <g transform="translate(11,11)">
    <circle class="background" r="10.5"/>
    <path class="symbol" d="m -6,0 a 2,2 0 0 1 2,-2 v -1 a 4,4 0 0 1 8,0 v 1 a 2,2 0 0 1 2,2 v 4 a 2,2 0 0 1 -2,2 h -8 a 2,2 0 0 1 -2,-2 z m 4,-2 h 4 v -1 a 2,2 0 0 0 -4,0 z m 2,2.5 a 1.5,1.5 0 0 0 0,3 a 1.5,1.5 0 0 0 0,-3 z"/>
  </g>
</svg>
