<svg xmlns="http://www.w3.org/2000/svg" viewBox="0 0 32 32">
  <defs>
    <linearGradient id="gray" x1="0%" y1="0%" x2="0%" y2="100%">
      <stop offset="0%" style="stop-color:#9E9E9E"/> <!-- Gray 500 -->
      <stop offset="100%" style="stop-color:#757575"/> <!-- Gray 600 -->
    </linearGradient>
    <linearGradient id="blue" x1="0%" y1="0%" x2="0%" y2="100%">
      <stop offset="0%" style="stop-color:#1E88E5"/> <!-- Blue 600 -->
      <stop offset="100%" style="stop-color:#1976D2"/> <!-- Blue 700 -->
    </linearGradient>
    <linearGradient id="green" x1="0%" y1="0%" x2="0%" y2="100%">
      <stop offset="0%" style="stop-color:#43A047"/> <!-- Green 600 -->
      <stop offset="100%" style="stop-color:#388E3C"/> <!-- Green 700 -->
    </linearGradient>
    <linearGradient id="orange" x1="0%" y1="0%" x2="0%" y2="100%">
      <stop offset="0%" style="stop-color:#F4511E"/> <!-- Deep orange 600 -->
      <stop offset="100%" style="stop-color:#E64A19"/> <!-- Deep orange 700 -->
    </linearGradient>
    <style type="text/css">
      .gray-accent { fill: #616161 /* Gray 800 */ }
      .blue-accent { fill: #0D47A1 /* Blue 900 */ }
      .green-accent { fill: #1B5E20 /* Green 900 */ }
      .orange-accent { fill: #BF360C /* Deep Orange 900 */ }
    </style>
  </defs>
  <g transform="translate(3,1)">
    <path style="fill:url(#gray)" d="m 1,0 a 1,1 0 0 0 -1,1 v 11 a 1,1 0 0 0 1,1 h 8 a 1,1 0 0 0 1,-1 v -7 h -3 a 2,2 0 0 1 -2,-2 v -3"/>
    <path class="gray-accent" d="m 6,0 l 4,4 h -3 a 1,1 0 0 1 -1,-1"/>
  </g>
  <g transform="translate(19,1)">
    <path style="fill:url(#orange)" d="m 1,0 a 1,1 0 0 0 -1,1 v 11 a 1,1 0 0 0 1,1 h 8 a 1,1 0 0 0 1,-1 v -7 h -3 a 2,2 0 0 1 -2,-2 v -3"/>
    <path class="orange-accent" d="m 6,0 l 4,4 h -3 a 1,1 0 0 1 -1,-1"/>
  </g>
  <g transform="translate(3,18)">
    <path style="fill:url(#blue)" d="m 1,0 a 1,1 0 0 0 -1,1 v 11 a 1,1 0 0 0 1,1 h 8 a 1,1 0 0 0 1,-1 v -7 h -3 a 2,2 0 0 1 -2,-2 v -3"/>
    <path class="blue-accent" d="m 6,0 l 4,4 h -3 a 1,1 0 0 1 -1,-1"/>
  </g>
  <g transform="translate(19,18)">
    <path style="fill:url(#green)" d="m 1,0 a 1,1 0 0 0 -1,1 v 11 a 1,1 0 0 0 1,1 h 8 a 1,1 0 0 0 1,-1 v -7 h -3 a 2,2 0 0 1 -2,-2 v -3"/>
    <path class="green-accent" d="m 6,0 l 4,4 h -3 a 1,1 0 0 1 -1,-1"/>
  </g>
</svg>
