<svg xmlns="http://www.w3.org/2000/svg" viewBox="0 0 32 32">
  <defs>
    <linearGradient id="server-front" x1="0%" y1="0%" x2="0%" y2="100%">
      <stop offset="0%" style="stop-color:#9E9E9E"/> <!-- Gray 500 -->
      <stop offset="100%" style="stop-color:#757575"/> <!-- Gray 600 -->
    </linearGradient>
    <linearGradient id="led-green" x1="0%" y1="0%" x2="0%" y2="100%">
      <stop offset="0%" style="stop-color:#E8F5E9"/> <!-- Green 50 -->
      <stop offset="100%" style="stop-color:#A5D6A7"/> <!-- Green 200 -->
    </linearGradient>
    <style type="text/css">
      .lighten { fill: white; fill-opacity: 0.125 }
      .darken { fill: black; fill-opacity: 0.125 }
    </style>
  </defs>
  <g transform="translate(4,5)">
    <path style="fill:url(#server-front)" d="m 1,0 a 1,1 0 0 0 -1,1 v 4 a 1,1 0 0 0 1,1 h 22 a 1,1 0 0 0 1,-1 v -4 a 1,1 0 0 0 -1,-1"/>
    <circle style="fill:url(#led-green)" cx="3" cy="3" r="1"/>
    <path class="lighten" d="m 1,0 a 1,1 0 0 0 -1,1 h 24 a 1,1 0 0 0 -1,-1"/>
    <path class="darken" d="m 0,5 a 1,1 0 0 0 1,1 h 22 a 1,1 0 0 0 1,-1"/>
  </g>
  <g transform="translate(4,13)">
    <path style="fill:url(#server-front)" d="m 1,0 a 1,1 0 0 0 -1,1 v 4 a 1,1 0 0 0 1,1 h 22 a 1,1 0 0 0 1,-1 v -4 a 1,1 0 0 0 -1,-1"/>
    <circle style="fill:url(#led-green)" cx="3" cy="3" r="1"/>
    <path class="lighten" d="m 1,0 a 1,1 0 0 0 -1,1 h 24 a 1,1 0 0 0 -1,-1"/>
    <path class="darken" d="m 0,5 a 1,1 0 0 0 1,1 h 22 a 1,1 0 0 0 1,-1"/>
  </g>
  <g transform="translate(4,21)">
    <path style="fill:url(#server-front)" d="m 1,0 a 1,1 0 0 0 -1,1 v 4 a 1,1 0 0 0 1,1 h 22 a 1,1 0 0 0 1,-1 v -4 a 1,1 0 0 0 -1,-1"/>
    <circle style="fill:url(#led-green)" cx="3" cy="3" r="1"/>
    <path class="lighten" d="m 1,0 a 1,1 0 0 0 -1,1 h 24 a 1,1 0 0 0 -1,-1"/>
    <path class="darken" d="m 0,5 a 1,1 0 0 0 1,1 h 22 a 1,1 0 0 0 1,-1"/>
  </g>
</svg>
