<svg xmlns="http://www.w3.org/2000/svg" viewBox="0 0 32 32">
  <defs>
    <linearGradient id="clock-background" x1="0" y1="0%" x2="0" y2="100%">
      <stop offset="0%" style="stop-color:#BBDEFB"/> <!-- Blue 100 -->
      <stop offset="100%" style="stop-color:#64B5F6"/> <!-- Blue 300 -->
    </linearGradient>
    <linearGradient id="clock-border" x1="0" y1="0%" x2="0" y2="100%">
      <stop offset="0%" style="stop-color:#1E88E5"/> <!-- Blue 600 -->
      <stop offset="100%" style="stop-color:#1976D2"/> <!-- Blue 700 -->
    </linearGradient>
    <style type="text/css">
      .clock-hands {
        fill:none;
        stroke: #0D47A1 /* Blue 900 */;
        stroke-width: 3;
        stroke-linecap: round;
        stroke-linejoin: round
      }
      .clock-hands-shadow {
        fill:none;
        stroke: black;
        stroke-opacity: 0.0625;
        stroke-width: 3;
        stroke-linecap: round;
        stroke-linejoin: round
      }
      .lighten { fill: white; fill-opacity: 0.125 }
      .darken { fill: black; fill-opacity: 0.125 }
      .darken-slightly { fill: black; fill-opacity: 0.0625 }
    </style>
  </defs>
  <g transform="translate(16,16)">
    <circle style="fill:url(#clock-background)" r="13"/>
    <path style="fill:url(#clock-border)" d="m 0,-13 a 13,13 0 0 0 0,26 a 13,13 0 0 0 0,-26 m 0,2 a 11,11 0 0 1 0,22 a 11,11 0 0 1 0,-22"/>
    <path class="lighten" d="m 13,0 a 13,13 0 0 0 -26,0 a 13,12 0 0 1 26,0"/>
    <path class="darken" d="m 13,0 a 13,13 0 0 1 -26,0 a 13,12 0 0 0 26,0"/>
    <path class="darken-slightly" d="m 11,0 a 11,11 0 0 0 -22,0 a 11,10 0 0 1 22,0"/>
    <path class="clock-hands-shadow" d="m 0,-6.5 0 7.5 4.33 2.5"/>
    <path class="clock-hands" d="m 0,-7.5 0,7.5 4.87,2.81"/>
  </g>
</svg>
