<svg xmlns="http://www.w3.org/2000/svg" viewBox="0 0 32 32">
  <defs>
    <linearGradient id="folder-front" x1="0%" y1="0%" x2="0%" y2="100%">
      <stop offset="0%" style="stop-color:#90CAF9"/> <!-- Blue 200 -->
      <stop offset="100%" style="stop-color:#64B5F6"/> <!-- Blue 300 -->
    </linearGradient>
    <linearGradient id="clock" x1="0" y1="0" x2="0" y2="100%">
      <stop offset="0%" style="stop-color:#BBDEFB"/> <!-- Blue 100 -->
      <stop offset="100%" style="stop-color:#90CAF9"/> <!-- Blue 200 -->
    </linearGradient>
    <style type="text/css">
      .folder-back { fill: #2196F3 /* Blue 500 */ }
      .folder-front { fill: url(#folder-front) }
      .document { fill: #E0E0E0 }
      .lighten { fill: white; fill-opacity: 0.125 }
      .darken { fill: black; fill-opacity: 0.125 }
      .clock { fill: url(#clock); stroke: #1976D2 /* Blue 700 */ }
      .clock-hands { fill: none; stroke: #0D47A1 /* Blue 900 */; stroke-width: 2; stroke-linecap: round; stroke-linejoin: round }
    </style>
  </defs>

  <!-- Folder -->
  <path class="folder-back" d="m 3,8 a 2,2 0 0 1 2,-2 h 6 c 2,0 2,0 4,2 l 1,1 h 11 a 2,2 0 0 1 2,2 v 3 h -26 "/>
  <rect class="document" x="6" y="11" width="20" height="2"/>
  <path class="darken" d="m 3.75,12 c -0.26,0 -0.51,0.06 -0.75,0.16 v 1 h 26 v -1 c -0.24,-0.1 -0.49,-0.16 -0.75,-0.16"/>
  <path class="folder-front" d="m 5,26 c -1.1,0 -1.875,-1 -2,-2 l -1.25,-9 c -0.125,-1 0.9,-2 2,-2 h 24.5 c 1.1,0 2.125,1 2,2 l -1.25,9 c -0.125,1 -0.9,2 -2,2"/>
  <path class="lighten" d="m 1.75,15 c -0.125,-1 0.9,-2 2,-2 h 24.5 c 1.1,0 2.125,1 2,2 a 2,1 0 0 0 -2,-1 h -24.5 a 2,1 0 0 0 -2,1 z"/>
  <path class="darken" d="m 5,26 c -1.1,0 -1.875,-1 -2,-2 a 2,1 0 0 0 2,1 h 22 a 2,1 0 0 0 2,-1 c -0.125,1 -0.9,2 -2,2 z"/>

  <!-- Clock -->

  <g transform="translate(22,22)">
    <circle class="clock" r="7.5"/>
    <path class="clock-hands" d="m 0,-5 0,5 3.25,1.875"/>
  </g>
</svg>
