<svg xmlns="http://www.w3.org/2000/svg" viewBox="0 0 24 24">
  <defs>
    <style id="current-color-scheme" type="text/css">
      .ColorScheme-Text { color: #D8D8D8 }
    </style>
  </defs>
  <g class="ColorScheme-Text" style="fill:currentColor">
    <!-- Mail -->
    <path d="m 1,6 a 2,2 0 0 1 2,-2 h 18 a 2,2 0 0 1 2,2 l -10,7.25 c -0.9,0.64 -1.1,0.64 -2,0 z"/>
    <path d="M 1 7.86 L 1 18 A 2 2 0 0 0 3 20 L 12.65 20 A 3.023 3.023 0 0 1 17.75 17.36 L 20.52 14.59 A 3 3 0 0 1 23 13.92 L 23 7.86 L 13 15.11 C 12.1 15.75 11.9 15.75 11 15.11 L 1 7.86 z"/>

    <!-- Checkmark -->
    <path d="m 17.75,23 l 5,-5 a 1,1 0 0 0 -1.41,-1.41 l -3.59,3.59 -1.59,-1.59 a 1,1 0 0 0 -1.41,1.41 "/>
  </g>
</svg>
