<svg xmlns="http://www.w3.org/2000/svg" viewBox="0 0 24 24">
  <defs>
    <linearGradient id="speaker" x1="0" y1="0%" x2="0" y2="100%">
      <stop offset="0%" style="stop-color:#9E9E9E"/> <!-- Gray 500 -->
      <stop offset="100%" style="stop-color:#616161"/> <!-- Gray 700 -->
    </linearGradient>
    <linearGradient id="sound-waves" x1="0" y1="0%" x2="100%" y2="0%">
      <stop offset="0%" style="stop-color:#1565C0"/> <!-- Blue 800 -->
      <stop offset="100%" style="stop-color:#1976D2"/> <!-- Blue 700 -->
    </linearGradient>
    <style type="text/css">
      .darken { fill: black; fill-opacity: 0.125 }
    </style>
  </defs>

  <!-- Speaker -->
  <path style="fill:url(#speaker)"
        d="m 3,10 v 4 a 1,1 0 0 0 1,1 h 3 l 3.29,3.29 c 0.63,0.63 1.71,0.18 1.71,-0.71 v -11.17
           c 0,-0.89 -1.08,-1.34 -1.71,-0.71 l -3.29,3.3 h -3 a 1,1 0 0 0 -1,1 z"/>
  <path class="darken" d="m 4,9 a 1,1 0 0 0 -1,1 v 4 a 1,1 0 0 0 1,1 h 3 v -6"/>

  <!-- Sound waves -->
  <path style="fill:url(#sound-waves)"
        d="M 14.35,6.65 a 0.5,0.5 0 0 0 -0.7,0.7 a 6.6,6.6 0 0 1 0,9.3 a 0.5,0.5 0 0 0 0.7,0.7 a 7.6,7.6 0 0 0 0,-10.7
           M 16.35,4.65 a 0.5,0.5 0 0 0 -0.7,0.7 a 9.4,9.4 0 0 1 0,13.3 a 0.5,0.5 0 0 0 0.7,0.7 a 10.4,10.4 0 0 0 0,-14.7
           M 18.35,2.65 a 0.5,0.5 0 0 0 -0.7,0.7 a 12.2,12.2 0 0 1 0,17.3 a 0.5,0.5 0 0 0 0.7,0.7 a 13.2,13.2 0 0 0 0,-18.7"/>
</svg>
