<svg xmlns="http://www.w3.org/2000/svg" viewBox="0 0 24 24">
  <defs>
    <linearGradient id="button-background" x1="0%" y1="0%" x2="0%" y2="100%">
      <stop offset="0%" style="stop-color:#757575"/> <!-- Gray 600 -->
      <stop offset="100%" style="stop-color:#616161"/> <!-- Gray 700 -->
    </linearGradient>
    <linearGradient id="equal-button-background" x1="0%" y1="0%" x2="0%" y2="100%">
      <stop offset="0%" style="stop-color:#F57C00"/> <!-- Orange 700 -->
      <stop offset="100%" style="stop-color:#EF6C00"/> <!-- Orange 800 -->
    </linearGradient>
    <style type="text/css">
      .button-text { fill: white }
    </style>
  </defs>
  <g class="ColorScheme-Text" style="fill:currentColor">
    <!-- Plus -->
    <g transform="translate(2,2)">
      <path style="fill:url(#button-background)" d="m 2,0 a 2,2 0 0 0 -2,2 v 8 h 10 v -10"/>
      <path class="button-text" d="m 6,3 v 2 h 2 v 1 h -2 v 2 h -1 v -2 h -2 v -1 h 2 v -2"/>
    </g>
    <!-- Minus -->
    <g transform="translate(2,12)">
      <path style="fill:url(#button-background)" d="m 0,0 v 8 a 2,2 0 0 0 2,2 h 8 v -10 z"/>
      <rect class="button-text" x="3" y="4" width="5" height="1"/>
    </g>
    <!-- Equal -->
    <g transform="translate(12,2)">
      <path style="fill:url(#equal-button-background)" d="m 0,0 v 20 h 8 a 2,2 0 0 0 2,-2 v -16 a 2,2 0 0 0 -2,-2"/>
      <g class="button-text">
        <rect x="2" y="8" width="5" height="1"/>
        <rect x="2" y="11" width="5" height="1"/>
      </g>
    </g>
  </g>
</svg>
