<svg xmlns="http://www.w3.org/2000/svg" viewBox="0 0 48 48">
  <defs>
    <linearGradient id="background-overlay" x1="0%" y1="0%" x2="0%" y2="100%">
      <stop offset="0%" style="stop-color:white;stop-opacity:0.125"/>
      <stop offset="100%" style="stop-color:white;stop-opacity:0"/>
    </linearGradient>
    <style type="text/css">
      .background { fill: #78909C /* Blue gray 400 */ }
      .left-zipper-teeth { fill: white }
      .right-zipper-teeth { fill: #CFD8DC; /* Blue gray 100 */ }
      .lighten { fill: white; fill-opacity: 0.125 }
      .darken { fill: black; fill-opacity: 0.125 }
    </style>
  </defs>

  <!-- Background -->
  <path class="background"
        d="m 10,4 a 2,2 0 0 0 -2,2 v 36 a 2,2 0 0 0 2,2 h 28 a 2,2 0 0 0 2,-2 v -36 a 2,2 0 0 0 -2,-2"/>
  <path style="fill:url(#background-overlay)"
        d="m 10,4 a 2,2 0 0 0 -2,2 v 36 a 2,2 0 0 0 2,2 h 28 a 2,2 0 0 0 2,-2 v -36 a 2,2 0 0 0 -2,-2"/>

  <!-- Zipper -->
  <rect class="darken" x="19" y="4" width="10" height="40"/>

  <path class="left-zipper-teeth"
        d="m 20,6 h 4 v 3 h -4
           m 0,3 h 4 v 3 h -4
           m 0,3 h 4 v 3 h -4
           m 0,3 h 4 v 3 h -4
           m 0,3 h 4 v 3 h -4
           m 0,3 h 4 v 3 h -4"/>

  <path class="right-zipper-teeth"
        d="m 24,9 h 4 v 3 h -4
           m 0,3 h 4 v 3 h -4
           m 0,3 h 4 v 3 h -4
           m 0,3 h 4 v 3 h -4
           m 0,3 h 4 v 3 h -4
           m 0,3 h 4 v 3 h -4"/>

  <!-- Borders -->
  <path class="lighten" d="m 10,4 a 2,2 0 0 0 -2,2 a 2,1 0 0 1 2,-1 h 28 a 2,1 0 0 1 2,1 a 2,2 0 0 0 -2,-2"/>
  <path class="darken" d="m 10,43 a 2,1 0 0 1 -2,-1 a 2,2 0 0 0 2,2 h 28 a 2,2 0 0 0 2,-2 a 2,1 0 0 1 -2,1"/>
</svg>
