<svg xmlns="http://www.w3.org/2000/svg" viewBox="0 0 48 48">
  <defs>
    <linearGradient id="dark-background-overlay" x1="0%" y1="0%" x2="0%" y2="100%">
      <stop offset="0%" style="stop-color:black;stop-opacity:0"/>
      <stop offset="100%" style="stop-color:black;stop-opacity:0.125"/>
    </linearGradient>
    <linearGradient id="kinked-edge" x1="0%" y1="100%" x2="50%" y2="50%">
      <stop offset="0%" style="stop-color:white;stop-opacity:0.5"/>
      <stop offset="100%" style="stop-color:white;stop-opacity:0.25"/>
    </linearGradient>
    <style type="text/css">
      .document-background { fill: #FF8F00 /* Amber 800 */ }
      .symbol { fill: #FFF8E1 /* Amber 50 */ }
      .lighten { fill: white; fill-opacity: 0.125 }
      .darken { fill:black; fill-opacity: 0.125 }
    </style>
  </defs>

  <!-- Document -->
  <path class="document-background" d="m 10,4 a 2,2 0 0 0 -2,2 v 36 a 2,2 0 0 0 2,2 h 28 a 2,2 0 0 0 2,-2 v -26 l -12,-12 z"/>
  <path style="fill:url(#dark-background-overlay)" d="m 10,4 a 2,2 0 0 0 -2,2 v 36 a 2,2 0 0 0 2,2 h 28 a 2,2 0 0 0 2,-2 v -26 h -10 a 2,2 0 0 1 -2,-2 v -10"/>
  <path class="lighten" d="m 10,4 a 2,2 0 0 0 -2,2 a 2,1 0 0 1 2,-1 h 18 v -1 z"/>
  <path class="darken" d="m 10,43 a 2,1 0 0 1 -2,-1 a 2,2 0 0 0 2,2 h 28 a 2,2 0 0 0 2,-2 a 2,1 0 0 1 -2,1"/>

  <g transform="translate(28,4)">
    <path style="fill:url(#kinked-edge)" d="m 0,0 v 10 a 2,2 0 0 0 2,2 h 10 z"/>
    <path class="darken" d="m 0,0 l -1,1 v 10 a 3,3 0 0 0 3,3 h 8 l 2,-2 h -10 a 2,2 0 0 1 -2,-2"/>
    <path class="darken" d="m 0,10 v 1 a 2,2 0 0 0 2,2 h 9 l 1,-1 h -10 a 2,2 0 0 1 -2,-2 "/>
  </g>

  <!-- Symbol -->
  <g class="symbol" transform="translate(12,18)">
    <path style="fill-opacity:0.5" d="M 9 1 A 8 8 0 0 0 1 9 A 8 8 0 0 0 3.834 15.1 L 9 6.15 L 10 7.883 L 10 5 L 15.92 5 A 8 8 0 0 0 9 1 z"/>
    <path style="fill-opacity:0.75" d="M 11 6 L 11 9.615 L 15.84 18 L 23 18 L 23 6 L 11 6 z"/>
    <path d="m 1,22 l 8,-13.86 8,13.86 z"/>
  </g>
</svg>
