<svg xmlns="http://www.w3.org/2000/svg" viewBox="0 0 48 48">
  <defs>
    <linearGradient id="foreground" x1="0%" y1="0%" x2="0%" y2="100%">
      <stop offset="0%" style="stop-color:#616161"/> <!-- Gray 700 -->
      <stop offset="100%" style="stop-color:#424242"/> <!-- Gray 800 -->
    </linearGradient>
    <linearGradient id="background" x1="0%" y1="0%" x2="0%" y2="100%">
      <stop offset="0%" style="stop-color:#E0E0E0"/> <!-- Gray 300 -->
      <stop offset="100%" style="stop-color:#BDBDBD"/> <!-- Gray 400 -->
    </linearGradient>
  </defs>
  <path style="fill:url(#background)"
        d="m 8,6 a 2,2 0 0 0 -2,2 v 32 a 2,2 0 0 0 2,2 h 32 a 2,2 0 0 0 2,-2 v -32 a 2,2 0 0 0 -2,-2 z"/>

  <g style="fill:url(#foreground)">
    <circle cx="16" cy="16" r="4"/>
    <path d="m 9,38 l 0,-2 8,-8 10,10"/>
    <path style="fill-opacity:0.75" d="m 28,38 l -6.5,-6.5 6.5,-6.5 11,11 0,2"/>
  </g>
</svg>
