<svg xmlns="http://www.w3.org/2000/svg" viewBox="0 0 48 48">
  <defs>
    <linearGradient id="foreground" x1="0%" y1="0%" x2="0%" y2="100%">
      <stop offset="0%" style="stop-color:#EEEEEE"/> <!-- Gray 200 -->
      <stop offset="100%" style="stop-color:#E0E0E0"/> <!-- Gray 300 -->
    </linearGradient>
    <linearGradient id="background" x1="0%" y1="0%" x2="0%" y2="100%">
      <stop offset="0%" style="stop-color:#616161"/> <!-- Gray 700 -->
      <stop offset="100%" style="stop-color:#424242"/> <!-- Gray 800 -->
    </linearGradient>
    <linearGradient id="border" x1="0%" y1="0%" x2="0%" y2="100%">
      <stop offset="0%" style="stop-color:#BDBDBD"/> <!-- Gray 400 -->
      <stop offset="100%" style="stop-color:#9E9E9E"/> <!-- Gray 500 -->
    </linearGradient>
  </defs>
  <path style="fill:url(#border)"
        d="m 5,6 a 2,2 0 0 0 -2,2 v 32 a 2,2 0 0 0 2,2 h 38 a 2,2 0 0 0 2,-2 v -32 a 2,2 0 0 0 -2,-2 z
           m 0,2 h 38 v 32 h -38"/>

  <g transform="translate(5,8)">
    <rect style="fill:url(#background)" width="38" height="32"/>
    <g style="fill:url(#foreground)">
      <circle cx="8" cy="8" r="4"/>
      <path d="m 1,31 l 0,-2 10,-10 l 12,12"/>
      <path style="fill-opacity:0.75" d="m 24,31 l -8.5,-8.5 7.5,-7.5 14,14 0,2"/>
    </g>
  </g>
</svg>
