<svg xmlns="http://www.w3.org/2000/svg" viewBox="0 0 48 48">
  <defs>
    <linearGradient id="dark-background-overlay" x1="0%" y1="0%" x2="0%" y2="100%">
      <stop offset="0%" style="stop-color:black;stop-opacity:0"/>
      <stop offset="100%" style="stop-color:black;stop-opacity:0.125"/>
    </linearGradient>
    <linearGradient id="kinked-edge" x1="0%" y1="100%" x2="50%" y2="50%">
      <stop offset="0%" style="stop-color:white;stop-opacity:0.5"/>
      <stop offset="100%" style="stop-color:white;stop-opacity:0.25"/>
    </linearGradient>
    <style type="text/css">
      .document-background { fill: #1E88E5 /* Blue 600 */ }
      .symbol { fill: #E3F2FD /* Blue 50 */ }
      .lighten-strongly { fill: white; fill-opacity: 0.25 }
      .darken { fill:black; fill-opacity: 0.125 }
    </style>
  </defs>

  <!-- Document -->
  <path class="document-background" d="m 10,4 a 2,2 0 0 0 -2,2 v 36 a 2,2 0 0 0 2,2 h 28 a 2,2 0 0 0 2,-2 v -26 l -12,-12 z"/>
  <path style="fill:url(#dark-background-overlay)" d="m 10,4 a 2,2 0 0 0 -2,2 v 36 a 2,2 0 0 0 2,2 h 28 a 2,2 0 0 0 2,-2 v -26 h -10 a 2,2 0 0 1 -2,-2 v -10"/>
  <path class="lighten-strongly" d="m 10,4 a 2,2 0 0 0 -2,2 a 2,1 0 0 1 2,-1 h 18 v -1 z"/>
  <path class="darken" d="m 10,43 a 2,1 0 0 1 -2,-1 a 2,2 0 0 0 2,2 h 28 a 2,2 0 0 0 2,-2 a 2,1 0 0 1 -2,1"/>

  <g transform="translate(28,4)">
    <path style="fill:url(#kinked-edge)" d="m 0,0 v 10 a 2,2 0 0 0 2,2 h 10 z"/>
    <path class="darken" d="m 0,0 l -1,1 v 10 a 3,3 0 0 0 3,3 h 8 l 2,-2 h -10 a 2,2 0 0 1 -2,-2"/>
    <path class="darken" d="m 0,10 v 1 a 2,2 0 0 0 2,2 h 9 l 1,-1 h -10 a 2,2 0 0 1 -2,-2 "/>
  </g>

  <!-- Symbol -->
  <g class="symbol">
    <path d="m 27.99,28.91 v 2.13 h -3.34 v 8.96 h -2.5 v -8.96 h -3.34 v -2.13 z"/>
    <path d="m 32.62,38.1 q 0.53,0 0.86,-0.1 0.35,-0.1 0.56,-0.24 0.21,-0.16 0.29,-0.37 0.1,-0.21 0.1,-0.47 0,-0.54 -0.51,-0.89 -0.51,-0.37 -1.76,-0.79 -0.55,-0.19 -1.09,-0.43 -0.54,-0.25 -0.98,-0.62 -0.43,-0.39 -0.7,-0.91 -0.27,-0.55 -0.27,-1.32 0,-0.76 0.29,-1.37 0.28,-0.63 0.81,-1.06 0.53,-0.43 1.28,-0.65 0.75,-0.24 1.7,-0.24 1.12,0 1.93,0.24 0.82,0.24 1.35,0.52 l -0.72,1.97 q -0.47,-0.24 -1.04,-0.41 -0.56,-0.2 -1.36,-0.2 -0.9,0 -1.3,0.26 -0.38,0.24 -0.38,0.75 0,0.31 0.14,0.51 0.15,0.21 0.4,0.39 0.27,0.16 0.61,0.3 0.35,0.13 0.77,0.27 0.86,0.32 1.5,0.64 0.64,0.31 1.06,0.72 0.43,0.42 0.64,0.98 0.21,0.56 0.21,1.36 0,1.55 -1.09,2.42 -1.09,0.84 -3.28,0.84 -0.74,0 -1.33,-0.1 -0.59,-0.1 -1.06,-0.21 -0.44,-0.13 -0.78,-0.27 -0.32,-0.15 -0.54,-0.27 l 0.7,-1.99 q 0.5,0.27 1.22,0.5 0.73,0.21 1.79,0.21 z"/>
  </g>
  <!--
  <text style="font-family:Ubuntu;font-size:16px;font-weight:bold;text-anchor:end" x="37.625" y="40">TS</text>
  -->
</svg>
