<svg xmlns="http://www.w3.org/2000/svg" viewBox="0 0 48 48">
  <defs>
    <linearGradient id="light-background-overlay" x1="0%" y1="0%" x2="0%" y2="100%">
      <stop offset="0%" style="stop-color:white;stop-opacity:0.125"/>
      <stop offset="50%" style="stop-color:white;stop-opacity:0"/>
    </linearGradient>
    <linearGradient id="kinked-edge" x1="0%" y1="100%" x2="50%" y2="50%">
      <stop offset="0%" style="stop-color:white;stop-opacity:0.5"/>
      <stop offset="100%" style="stop-color:white;stop-opacity:0.25"/>
    </linearGradient>
    <linearGradient id="blue" x1="0%" y1="0%" x2="100%" y2="100%">
      <stop offset="0%" style="stop-color:#E3F2FD"/> <!-- Blue 50 -->
      <stop offset="100%" style="stop-color:#64B5F6"/> <!-- Blue 300 -->
    </linearGradient>
    <linearGradient id="yellow" x1="0%" y1="0%" x2="100%" y2="100%">
      <stop offset="0%" style="stop-color:#FFFDE7"/> <!-- Yellow 50 -->
      <stop offset="100%" style="stop-color:#FFF176"/> <!-- Yellow 300 -->
    </linearGradient>
    <style type="text/css">
      .document-background { fill: #1976D2 /* Blue 700 */ }
      .lighten { fill: white; fill-opacity: 0.125 }
      .darken { fill:black; fill-opacity: 0.125 }
    </style>
  </defs>

  <!-- Document -->
  <path class="document-background" d="m 10,4 a 2,2 0 0 0 -2,2 v 36 a 2,2 0 0 0 2,2 h 28 a 2,2 0 0 0 2,-2 v -26 l -12,-12 z"/>
  <path style="fill:url(#light-background-overlay)" d="m 10,4 a 2,2 0 0 0 -2,2 v 36 a 2,2 0 0 0 2,2 h 28 a 2,2 0 0 0 2,-2 v -26 h -10 a 2,2 0 0 1 -2,-2 v -10"/>
  <path class="lighten" d="m 10,4 a 2,2 0 0 0 -2,2 a 2,1 0 0 1 2,-1 h 18 v -1 z"/>
  <path class="darken" d="m 10,43 a 2,1 0 0 1 -2,-1 a 2,2 0 0 0 2,2 h 28 a 2,2 0 0 0 2,-2 a 2,1 0 0 1 -2,1"/>

  <g transform="translate(28,4)">
    <path style="fill:url(#kinked-edge)" d="m 0,0 v 10 a 2,2 0 0 0 2,2 h 10 z"/>
    <path class="darken" d="m 0,0 l -1,1 v 10 a 3,3 0 0 0 3,3 h 8 l 2,-2 h -10 a 2,2 0 0 1 -2,-2"/>
    <path class="darken" d="m 0,10 v 1 a 2,2 0 0 0 2,2 h 9 l 1,-1 h -10 a 2,2 0 0 1 -2,-2 "/>
  </g>

  <!-- Symbol -->
  <g transform="translate(12,18)">
    <path style="fill:url(#blue)"
          d="m 7,4 v 2 h 5 v 1 h -7 c -0.55,0 -3,0 -3,4.5 c 0,4.5 2.45,4.5 3,4.5 h 1 v -1
             a 4,4 0 0 1 4,-4 h 4 a 3,3 0 0 0 3,-3 v -3 c 0,-0.55 0,-3 -5,-3 c -5,0 -5,2.45 -5,3"/>
    <path style="fill:url(#yellow)"
          d="m 18,7 v 1 a 4,4 0 0 1 -4,4 h -4 a 3,3 0 0 0 -3,3 v 3 c 0,0.55 0,3 5,3 c 5,0 5,-2.45 5,-3
             v -1 h -5 v -1 h 7 c 0.55,0 3,0 3,-4.5 c 0,-4.5 -2.45,-4.5 -3,-4.5"/>
  </g>
</svg>
