<svg xmlns="http://www.w3.org/2000/svg" viewBox="0 0 48 48">
  <defs>
    <linearGradient id="light-background-overlay" x1="0%" y1="0%" x2="0%" y2="100%">
      <stop offset="0%" style="stop-color:white;stop-opacity:0.125"/>
      <stop offset="50%" style="stop-color:white;stop-opacity:0"/>
    </linearGradient>
    <linearGradient id="kinked-edge" x1="0%" y1="100%" x2="50%" y2="50%">
      <stop offset="0%" style="stop-color:white;stop-opacity:0.5"/>
      <stop offset="100%" style="stop-color:white;stop-opacity:0.25"/>
    </linearGradient>
    <style type="text/css">
      .document-background-1 { fill: #2196F3 /* Blue 500 */ }
      .document-background-2 { fill: #1976D2 /* Blue 700 */ }
      .symbol-1 { fill: white }
      .symbol-2 { fill: #BBDEFB /* Blue 100 */ }
      .lighten { fill: white; fill-opacity: 0.125 }
      .darken { fill:black; fill-opacity: 0.125 }
    </style>
  </defs>

  <!-- Document -->
  <path class="document-background-1" d="m 10,4 a 2,2 0 0 0 -2,2 v 36 a 2,2 0 0 0 2,2 h 28 a 2,2 0 0 0 2,-2 v -26 l -12,-12 z"/>
  <path class="document-background-2" d="m 40,16 v 26 a 2,2 0 0 1 -2,2 h -22.09 l 16.17,-28"/>
  <path style="fill:url(#light-background-overlay)" d="m 10,4 a 2,2 0 0 0 -2,2 v 36 a 2,2 0 0 0 2,2 h 28 a 2,2 0 0 0 2,-2 v -26 h -10 a 2,2 0 0 1 -2,-2 v -10"/>
  <path class="lighten" d="m 10,4 a 2,2 0 0 0 -2,2 a 2,1 0 0 1 2,-1 h 18 v -1 z"/>
  <path class="darken" d="m 10,43 a 2,1 0 0 1 -2,-1 a 2,2 0 0 0 2,2 h 28 a 2,2 0 0 0 2,-2 a 2,1 0 0 1 -2,1"/>

  <g transform="translate(28,4)">
    <path style="fill:url(#kinked-edge)" d="m 0,0 v 10 a 2,2 0 0 0 2,2 h 10 z"/>
    <path class="darken" d="m 0,0 l -1,1 v 10 a 3,3 0 0 0 3,3 h 8 l 2,-2 h -10 a 2,2 0 0 1 -2,-2"/>
    <path class="darken" d="m 0,10 v 1 a 2,2 0 0 0 2,2 h 9 l 1,-1 h -10 a 2,2 0 0 1 -2,-2 "/>
  </g>

  <!-- Symbol -->
  <g transform="translate(24,30)">
    <path class="symbol-1" d="M 4.5,-7.79 A 9,9 0 1 0 -4.5,7.79 L -3,5.2 A 6,6 0 1 1 3,-5.2"/>
    <path class="symbol-2" d="M -4.5,7.79 A 9,9 0 0 0 4.5,7.79 L 3,5.2 A 6,6 0 0 1 -3,5.2"/>
  </g>
</svg>
