<svg xmlns="http://www.w3.org/2000/svg" viewBox="0 0 48 48">
  <defs>
    <linearGradient id="symbol" x1="0%" y1="0%" x2="0%" y2="100%">
      <stop offset="0%" style="stop-color:white"/>
      <stop offset="100%" style="stop-color:#EEEEEE"/> <!-- Gray 200 -->
    </linearGradient>
    <linearGradient id="background" x1="0%" y1="0%" x2="100%" y2="100%">
      <stop offset="0%" style="stop-color:#FF9800"/> <!-- Orange 500 -->
      <stop offset="100%" style="stop-color:#9C27B0"/> <!-- Purple 500 -->
    </linearGradient>
  </defs>
  <path style="fill:url(#background)"
        d="m 5,6 a 2,2 0 0 0 -2,2 v 32 a 2,2 0 0 0 2,2 h 38 a 2,2 0 0 0 2,-2 v -32 a 2,2 0 0 0 -2,-2 z"/>

  <path style="fill:url(#symbol)" transform="translate(24,24)"
        d="M -11,0 a 11,11 0 0 1 22,0 a 11,11 0 0 1 -22,0 m 2,0 a 9,9 0 0 0 18,0 a 9,9 0 0 0 -18,0
           M -3,-5.2 -3,5.2 6,0 z"/>
</svg>
