<svg xmlns="http://www.w3.org/2000/svg" viewBox="0 0 32 32">
  <defs>
    <linearGradient id="waste-paper-bin-outside" x1="0%" y1="0%" x2="100%" y2="0%">
      <stop offset="0%" style="stop-color:#2196F3"/> <!-- Blue 500 -->
      <stop offset="45%" style="stop-color:#64B5F6"/> <!-- Blue 300 -->
      <stop offset="100%" style="stop-color:#2196F3"/>
    </linearGradient>
    <linearGradient id="waste-paper-bin-inside" x1="0%" y1="0%" x2="100%" y2="0%">
      <stop offset="0%" style="stop-color:#1565C0"/> <!-- Blue 800 -->
      <stop offset="55%" style="stop-color:#1976D2"/> <!-- Blue 700 -->
      <stop offset="100%" style="stop-color:#1565C0"/>
    </linearGradient>
    <style type="text/css">
      .darken { fill: black; fill-opacity: 0.125 }
    </style>
  </defs>
  <path style="fill:url(#waste-paper-bin-inside)" d="m 6,8 a 10,3.333 0 0 1 20,0 a 10,3.333 0 0 1 -20,0"/>
  <path class="darken" d="M 16.29 4.668 A 10 3.333 0 0 0 6 8 A 10 3.333 0 0 0 6.117 8.5 A 10 3.333 0 0 1 25.87 8.5 A 10 3.333 0 0 0 26 8 A 10 3.333 0 0 0 16.29 4.668 z"/>

  <path style="fill:url(#waste-paper-bin-outside)" d="m 6,8 a 10,3.333 0 0 0 20,0 l -2.5,18 c -0.48,3.87 -14.52,3.87 -15,0"/>
  <path class="darken" d="M 6 8 L 6.236 9.705 A 10 3.333 0 0 0 25.76 9.713 L 26 8 A 10 3.333 0 0 1 6 8 z"/>
</svg>
