<svg xmlns="http://www.w3.org/2000/svg" viewBox="0 0 32 32">
  <defs>
    <linearGradient id="folder-front" x1="0%" y1="0%" x2="0%" y2="100%">
      <stop offset="0%" style="stop-color:#90CAF9"/> <!-- Blue 200 -->
      <stop offset="100%" style="stop-color:#64B5F6"/> <!-- Blue 300 -->
    </linearGradient>
    <style type="text/css">
      .folder-back { fill: #2196F3 /* Blue 500 */ }
      .folder-front { fill: url(#folder-front) }
      .symbol { fill: black; opacity: 0.5 }
      .lighten { fill: white; fill-opacity: 0.125 }
      .darken { fill: black; fill-opacity: 0.125 }
    </style>
  </defs>

  <!-- Folder -->
  <path class="folder-back" d="m 3,8 a 2,2 0 0 1 2,-2 h 6 c 2,0 2,0 4,2 l 1,1 h 11 a 2,2 0 0 1 2,2 v 2 a 2,2 0 0 0 -2,-2 h -22 a 2,2 0 0 0 -2,2"/>
  <path class="darken" d="m 5,9 a 3,3 0 0 0 -2,0.76 v 2.24 a 2,2 0 0 1 2,-2 h 22 a 2,2 0 0 1 2,2 v -2.24 a 3,3 0 0 0 -2,-0.76"/>
  <rect class="folder-front" x="3" y="10" width="26" height="16" rx="2" ry="2"/>
  <path class="lighten" d="m 5,10 a 2,2 0 0 0 -2,2 a 2,1 0 0 1 2,-1 h 22 a 2,1 0 0 1 2,1 a 2,2 0 0 0 -2,-2"/>
  <path class="darken" d="m 5,25 a 2,1 0 0 1 -2,-1 a 2,2 0 0 0 2,2 h 22 a 2,2 0 0 0 2,-2 a 2,1 0 0 1 -2,1"/>

  <!-- Symbol (12x12) -->
  <g class="symbol" transform="translate(10,12)">
    <path d="m 0.5,6 l 5.5,-5.5 5.5,5.5 h -1.5 v 5 h -3 v -4 h -2 v 4 h -3 v -5"/>
  </g>
</svg>
