<svg xmlns="http://www.w3.org/2000/svg" viewBox="0 0 32 32">
  <defs>
    <linearGradient id="pins" x1="0%" y1="0%" x2="0%" y2="100%">
      <stop offset="0%" style="stop-color:#BDBDBD"/> <!-- Gray 400 -->
      <stop offset="100%" style="stop-color:#9E9E9E"/> <!-- Gray 500 -->
    </linearGradient>
    <linearGradient id="chip-surface" x1="0%" y1="0%" x2="0%" y2="100%">
      <stop offset="0%" style="stop-color:#757575"/> <!-- Gray 600 -->
      <stop offset="100%" style="stop-color:#616161"/> <!-- Gray 700 -->
    </linearGradient>
    <linearGradient id="chip-border" x1="0%" y1="0%" x2="0%" y2="100%">
      <stop offset="0%" style="stop-color:#9E9E9E"/> <!-- Gray 500 -->
      <stop offset="100%" style="stop-color:#757575"/> <!-- Gray 600 -->
    </linearGradient>
    <style type="text/css">
      .lighten { fill: white; fill-opacity: 0.125 }
      .darken { fill: black; fill-opacity: 0.125 }
    </style>
  </defs>

  <!-- Pins -->
  <path style="fill:url(#pins)"
        d="M 9,2 a 1,1 0 0 0 -2,0 v 2 h 2 M 13,2 a 1,1 0 0 0 -2,0 v 2 h 2 M 17,2 a 1,1 0 0 0 -2,0 v 2 h 2 M 21,2 a 1,1 0 0 0 -2,0 v 2 h 2 M 25,2 a 1,1 0 0 0 -2,0 v 2 h 2
           M 2,7 a 1,1 0 0 0 0,2 h 2 v -2 M 2,11 a 1,1 0 0 0 0,2 h 2 v -2 M 2,15 a 1,1 0 0 0 0,2 h 2 v -2 M 2,19 a 1,1 0 0 0 0,2 h 2 v -2 M 2,23 a 1,1 0 0 0 0,2 h 2 v -2
           M 28,7 v 2 h 2 a 1,1 0 0 0 0,-2 M 28,11 v 2 h 2 a 1,1 0 0 0 0,-2 M 28,15 v 2 h 2 a 1,1 0 0 0 0,-2 M 28,19 v 2 h 2 a 1,1 0 0 0 0,-2 M 28,23 v 2 h 2 a 1,1 0 0 0 0,-2
           M 7,28 v 2 a 1,1 0 0 0 2,0 v -3 M 11,28 v 2 a 1,1 0 0 0 2,0 v -3 M 15,28 v 2 a 1,1 0 0 0 2,0 v -3 M 19,28 v 2 a 1,1 0 0 0 2,0 v -3 M 23,28 v 2 a 1,1 0 0 0 2,0 v -3"/>

  <!-- Chip -->
  <path style="fill:url(#chip-surface)"
        d="m 5,6 a 1,1 0 0 1 1,-1 h 20 a 1,1 0 0 1 1,1 v 20 a 1,1 0 0 1 -1,1 h -20 a 1,1 0 0 1 -1,-1"/>
  <path style="fill:url(#chip-border)"
        d="m 6,4 a 2,2 0 0 0 -2,2 v 20 a 2,2 0 0 0 2,2 h 20 a 2,2 0 0 0 2,-2 v -20 a 2,2 0 0 0 -2,-2 z
           m -1,2 a 1,1 0 0 1 1,-1 h 20 a 1,1 0 0 1 1,1 v 20 a 1,1 0 0 1 -1,1 h -20 a 1,1 0 0 1 -1,-1"/>
  <path class="lighten" d="m 6,4 a 2,2 0 0 0 -2,2 a 2,1 0 0 1 2,-1 h 20 a 2,1 0 0 1 2,1 a 2,2 0 0 0 -2,-2"/>
  <path class="darken" d="m 6,27 a 2,1 0 0 1 -2,-1 a 2,2 0 0 0 2,2 h 20 a 2,2 0 0 0 2,-2 a 2,1 0 0 1 -2,1"/>

  <!-- Info icon -->
  <g style="fill:#E0E0E0">
    <path d="m 16,7 a 9,9 0 0 0 0,18 a 9,9 0 0 0 0,-18 m 0,2 a 7,7 0 0 1 0,14 a 7,7 0 0 1 0,-14"/>
    <rect x="15" y="11" width="2" height="2"/>
    <path d="M 15,16 a 1,1 0 0 1 2,0 v 4 a 1,1 0 0 1 -2,0"/>
  </g>
</svg>
