<svg xmlns="http://www.w3.org/2000/svg" viewBox="0 0 32 32">
  <defs>
    <linearGradient id="window-background" x1="0%" y1="0%" x2="0%" y2="100%">
      <stop offset="0%" style="stop-color:#E0E0E0"/> <!-- Gray 300 -->
      <stop offset="100%" style="stop-color:#BDBDBD"/> <!-- Gray 400 -->
    </linearGradient>
    <linearGradient id="titlebar-background" x1="0%" y1="0%" x2="0%" y2="100%">
      <stop offset="0%" style="stop-color:#9E9E9E"/> <!-- Gray 500 -->
      <stop offset="100%" style="stop-color:#757575"/> <!-- Gray 600 -->
    </linearGradient>
    <linearGradient id="titlebar-button" x1="0%" y1="0%" x2="0%" y2="100%">
      <stop offset="0%" style="stop-color:#424242"/> <!-- Gray 800 -->
      <stop offset="100%" style="stop-color:#212121"/> <!-- Gray 900 -->
    </linearGradient>
    <linearGradient id="toolbar-background" x1="0%" y1="0%" x2="0%" y2="100%">
      <stop offset="0%" style="stop-color:#BDBDBD"/> <!-- Gray 500 -->
      <stop offset="100%" style="stop-color:#9E9E9E"/> <!-- Gray 600 -->
    </linearGradient>
    <style type="text/css">
      .window-border { fill: none }
      .toolbar-field { fill: #E0E0E0 }
      .lighten { fill: white; fill-opacity: 0.125 }
      .darken { fill: black; fill-opacity: 0.125 }
      .darken-very-strongly { fill: black; fill-opacity: 0.375 }
    </style>
  </defs>

  <!-- Window -->
  <path style="fill:url(#window-background)" d="m 4,4 a 2,2 0 0 0 -2,2 v 20 a 2,2 0 0 0 2,2 h 24 a 2,2 0 0 0 2,-2 v -20 a 2,2 0 0 0 -2,-2"/>
  <path class="window-border" d="m 3,10 h -1 v 16 a 2,2 0 0 0 2,2 h 24 a 2,2 0 0 0 2,-2 v -16 h -1 v 16 a 1,1 0 0 1 -1,1 h -24 a 1,1 0 0 1 -1,-1"/>

  <path style="fill:url(#titlebar-background)" d="m 4,4 a 2,2 0 0 0 -2,2 v 4 h 28 v -4 a 2,2 0 0 0 -2,-2"/>
  <path style="fill:url(#titlebar-button)"
        d="M 4,7 a 1.5,1.5 0 0 1 3,0 a 1.5,1.5 0 0 1 -3,0
           m 4.5,0 a 1.5,1.5 0 0 1 3,0 a 1.5,1.5 0 0 1 -3,0
           m 4.5,0 a 1.5,1.5 0 0 1 3,0 a 1.5,1.5 0 0 1 -3,0"/>

  <path class="lighten" d="m 4,4 a 2,2 0 0 0 -2,2 a 2,1 0 0 1 2,-1 h 24 a 2,1 0 0 1 2,1 a 2,2 0 0 0 -2,-2"/>
  <path class="darken" d="m 4,27 a 2,1 0 0 1 -2,-1 a 2,2 0 0 0 2,2 h 24 a 2,2 0 0 0 2,-2 a 2,1 0 0 1 -2,1"/>

  <!-- Toolbar -->
  <path style="fill:url(#toolbar-background)" d="m 2,10 v 6 h 28 v -6"/>
  <path class="toolbar-field" d="m 8,11 a 1,1 0 0 0 -1,1 v 2 a 1,1 0 0 0 1,1 h 16 a 1,1 0 0 0 1,-1 v -2 a 1,1 0 0 0 -1,-1"/>
  <path class="darken-very-strongly" d="m 8,11 a 1,1 0 0 0 -1,1 h 18 a 1,1 0 0 0 -1,-1"/>
</svg>
