<svg xmlns="http://www.w3.org/2000/svg" viewBox="0 0 32 32">
  <defs>
    <linearGradient id="board" x1="0%" y1="0%" x2="0%" y2="100%">
      <stop offset="0%" style="stop-color:#9E9E9E"/> <!-- Gray 500 -->
      <stop offset="100%" style="stop-color:#616161"/> <!-- Gray 700 -->
    </linearGradient>
    <linearGradient id="clip" x1="0%" y1="0%" x2="0%" y2="100%">
      <stop offset="0%" style="stop-color:#E0E0E0"/> <!-- Gray 300 -->
      <stop offset="100%" style="stop-color:#BDBDBD"/> <!-- Gray 400 -->
    </linearGradient>
    <style type="text/css">
      .lighten { fill: white; fill-opacity: 0.125 }
      .darken { fill: black; fill-opacity: 0.125 }
    </style>
  </defs>

  <!-- Board -->
  <path style="fill:url(#board)" d="m 6,4 a 2,2 0 0 0 -2,2 v 22 a 2,2 0 0 0 2,2 h 20 a 2,2 0 0 0 2,-2 v -22 a 2,2 0 0 0 -2,-2"/>
  <path class="lighten" d="M 6,4 a 2,2 0 0 0 -2,2 a 2,1 0 0 1 2,-1 h 3 v -1 M 23,4 v 1 h 3 a 2,1 0 0 1 2,1 a 2,2 0 0 0 -2,-2"/>
  <path class="darken" d="m 6,29 a 2,1 0 0 1 -2,-1 a 2,2 0 0 0 2,2 h 20 a 2,2 0 0 0 2,-2 a 2,1 0 0 1 -2,1"/>

  <!-- Clip -->
  <path class="darken" d="m 8,4 v 7 a 2,2 0 0 0 2,2 h 12 a 2,2 0 0 0 2,-2 v -7"/>
  <path class="darken" d="m 10,11 a 1,1 0 0 1 -1,-1 v 1 a 1,1 0 0 0 1,1 h 12 a 1,1 0 0 0 1,-1 v -1 a 1,1 0 0 1 -1,1"/>
  <path style="fill:url(#clip)"
        d="m 9,4 v 6 a 1,1 0 0 0 1,1 h 12 a 1,1 0 0 0 1,-1 v -6 h -3.13 a 4,4 0 0 0 -7.74,0 z
           m 7,-1 a 1.5,1.5 0 0 1 0,3 a 1.5,1.5 0 0 1 0,-3"/>
</svg>
