<svg xmlns="http://www.w3.org/2000/svg" viewBox="0 0 32 32">
  <defs>
    <style id="current-color-scheme" type="text/css">
      .ColorScheme-Text { color: #D8D8D8 }
    </style>
  </defs>
  <g class="ColorScheme-Text" style="fill:currentColor">
    <!-- Menu -->
    <g style="fill-opacity:0.625">
      <path d="m 5,6 a 1,1 0 0 0 0,2 h 15 l 2,-2 z"/>
      <path d="m 5,11 a 1,1 0 0 0 0,2 h 10 l 2,-2 z"/>
      <path d="m 5,16 a 1,1 0 0 0 0,2 h 5 l 2,-2 z"/>
    </g>

    <!-- Pencil -->
    <path transform="translate(7,5)" d="M3 17.46v3.04c0 .28.22.5.5.5h3.04c.13 0 .26-.05.35-.15L17.81 9.94l-3.75-3.75L3.15 17.1c-.1.1-.15.22-.15.36zM20.71 7.04c.39-.39.39-1.02 0-1.41l-2.34-2.34c-.39-.39-1.02-.39-1.41 0l-1.83 1.83 3.75 3.75 1.83-1.83z"/>
  </g>
</svg>
