<svg xmlns="http://www.w3.org/2000/svg" viewBox="0 0 32 32">
  <defs>
    <linearGradient id="monitor-border" x1="0%" y1="0%" x2="0%" y2="100%">
      <stop offset="0%" style="stop-color:#BDBDBD"/> <!-- Gray 400 -->
      <stop offset="100%" style="stop-color:#9E9E9E"/> <!-- Gray 500 -->
    </linearGradient>
    <linearGradient id="screen" x1="0%" y1="0%" x2="0%" y2="100%">
      <stop offset="0%" style="stop-color:#616161"/> <!-- Gray 700 -->
      <stop offset="100%" style="stop-color:#212121"/> <!-- Gray 900 -->
    </linearGradient>
    <style type="text/css">
      .symbol { fill: #E0E0E0 }
      .monitor-stand { fill: #808080 }
      .darken-strongly { fill: black; fill-opacity: 0.25 }
    </style>
  </defs>

  <!-- Monitor -->
  <path style="fill:url(#monitor-border)" d="m 4,6 a 2,2 0 0 0 -2,2 v 16 a 2,2 0 0 0 2,2 h 24 a 2,2 0 0 0 2,-2 v -16 a 2,2 0 0 0 -2,-2 z m 0,2 h 24 v 16 h -24 z"/>
  <rect style="fill:url(#screen)" x="4" y="8" width="24" height="16"/>

  <path class="monitor-stand" d="m 10,26 v 1 a 2,2 0 0 0 2,2 h 8 a 2,2 0 0 0 2,-2 v -1"/>
  <rect class="darken-strongly" x="10" y="26" width="12" height="1"/>

  <!-- Network icon -->
  <g class="symbol" transform="translate(8,8),scale(0.6667)">
    <path d="m 1,9 2,2 c 4.97,-4.97 13.03,-4.97 18,0 l 2,-2 c -6.07,-6.07 -15.92,-6.07 -22,0 z m 8,8 3,3 3,-3 c -1.65,-1.66 -4.34,-1.66 -6,0 z m -4,-4 2,2 c 2.76,-2.76 7.24,-2.76 10,0 l 2,-2 c -3.86,-3.86 -10.13,-3.86 -14,0 z"/>
  </g>
</svg>
