<svg xmlns="http://www.w3.org/2000/svg" viewBox="0 0 32 32">
  <defs>
    <linearGradient id="document-background" x1="0%" y1="0%" x2="0%" y2="100%">
      <stop offset="0%" style="stop-color:#FFA000"/> <!-- Amber 700 -->
      <stop offset="100%" style="stop-color:#FF6F00"/> <!-- Amber 900 -->
    </linearGradient>
    <linearGradient id="document-border" x1="0%" y1="0%" x2="0%" y2="100%">
      <stop offset="0%" style="stop-color:#FFD54F"/> <!-- Amber 300 -->
      <stop offset="100%" style="stop-color:#FFC107"/> <!-- Amber 500 -->
    </linearGradient>
    <style type="text/css">
      .document-background { fill: url(#document-background)}
      .document-border { fill: url(#document-border) }
      .symbol { fill: #FFF8E1 } <!-- Amber 50 -->
    </style>
  </defs>

  <!-- Document -->
  <path class="document-border"
        d="M 6,1 a 2,2 0 0 0 -2,2 v 26 a 2,2 0 0 0 2,2 h 20 a 2,2 0 0 0 2,-2 v -17 l -11,-11
           M 6,3 h 10 l 10,10 v 16 h -20
           M 20,1 h 6 a 2,2 0 0 1 2,2 v 6"/>
  <path class="document-background"
        d="M 6,3 h 10 l 10,10 v 16 h -20"/>

  <!-- Symbol -->
  <g class="symbol" transform="translate(8,12)">
    <g transform="scale(0.6667)">
      <path style="fill-opacity:0.5" d="M 9 1 A 8 8 0 0 0 1 9 A 8 8 0 0 0 3.834 15.1 L 9 6.15 L 10 7.883 L 10 5 L 15.92 5 A 8 8 0 0 0 9 1 z"/>
      <path style="fill-opacity:0.75" d="M 11 6 L 11 9.615 L 15.84 18 L 23 18 L 23 6 L 11 6 z"/>
      <path d="m 1,22 l 8,-13.86 8,13.86 z"/>
    </g>
  </g>
</svg>
