<svg xmlns="http://www.w3.org/2000/svg" viewBox="0 0 32 32">
  <defs>
    <linearGradient id="document-background" x1="0%" y1="0%" x2="0%" y2="100%">
      <stop offset="0%" style="stop-color:#1565C0"/> <!-- Blue 700 -->
      <stop offset="100%" style="stop-color:#0D47A1"/> <!-- Blue 900 -->
    </linearGradient>
    <linearGradient id="document-border" x1="0%" y1="0%" x2="0%" y2="100%">
      <stop offset="0%" style="stop-color:#64B5F6"/> <!-- Blue 300 -->
      <stop offset="100%" style="stop-color:#2196F3"/> <!-- Blue 500 -->
    </linearGradient>
    <style type="text/css">
      .document-background { fill: url(#document-background) }
      .document-border { fill: url(#document-border) }
      .symbol { fill: #BBDEFB } <!-- Blue 100 -->
    </style>
  </defs>

  <!-- Document -->
  <path class="document-border"
        d="M 6,1 a 2,2 0 0 0 -2,2 v 26 a 2,2 0 0 0 2,2 h 20 a 2,2 0 0 0 2,-2 v -17 l -11,-11
           M 6,3 h 10 l 10,10 v 16 h -20
           M 20,1 h 6 a 2,2 0 0 1 2,2 v 6"/>
  <path class="document-background"
        d="M 6,3 h 10 l 10,10 v 16 h -20"/>

  <!-- Symbol -->
  <g class="symbol" transform="translate(8,12)">
    <rect x="2" y="3" width="12" height="2" rx="1" ry="1"/>
    <rect x="2" y="7" width="12" height="2" rx="1" ry="1"/>
    <rect x="2" y="11" width="8" height="2" rx="1" ry="1"/>
  </g>
</svg>
