<svg xmlns="http://www.w3.org/2000/svg" viewBox="0 0 32 32">
  <defs>
     <linearGradient id="document-background" x1="0%" y1="0%" x2="0%" y2="100%">
      <stop offset="0%" style="stop-color:#7B1FA2"/> <!-- Purple 700 -->
      <stop offset="100%" style="stop-color:#4A148C"/> <!-- Purple 900 -->
    </linearGradient>
    <linearGradient id="document-border" x1="0%" y1="0%" x2="0%" y2="100%">
      <stop offset="0%" style="stop-color:#BA68C8"/> <!-- Purple 300 -->
      <stop offset="100%" style="stop-color:#9C27B0"/> <!-- Purple 500 -->
    </linearGradient>
    <style type="text/css">
      .document-background { fill: url(#document-background) }
      .document-border { fill: url(#document-border) }
      .symbol { fill: #E1BEE7 } <!-- Purple 50 -->
    </style>
  </defs>

  <!-- Document -->
  <path class="document-border"
        d="M 6,1 a 2,2 0 0 0 -2,2 v 26 a 2,2 0 0 0 2,2 h 20 a 2,2 0 0 0 2,-2 v -17 l -11,-11
           M 6,3 h 10 l 10,10 v 16 h -20
           M 20,1 h 6 a 2,2 0 0 1 2,2 v 6"/>
  <path class="document-background"
        d="M 6,3 h 10 l 10,10 v 16 h -20"/>

  <!-- Symbol -->
  <g class="symbol" transform="translate(8,12)">
    <path d="m 2,3 v 2.33 c 0,0.9 3,2 6,2 c 3,0 6,-1.1 6,-2 v -2.33 c 0,-0.9 -3,-2 -6,-2 c -3,0 -6,1.1 -6,2"/>
    <path d="m 2,6.33 v 2.33 c 0,0.9 3,2 6,2 c 3,0 6,-1.1 6,-2 v -2.33 c 0,0.9 -3,2 -6,2 c -3,0 -6,-1.1 -6,-2"/>
    <path d="m 2,9.67 v 2.33 c 0,0.9 3,2 6,2 c 3,0 6,-1.1 6,-2 v -2.33 c 0,0.9 -3,2 -6,2 c -3,0 -6,-1.1 -6,-2"/>
  </g>
</svg>
