<svg xmlns="http://www.w3.org/2000/svg" viewBox="0 0 32 32">
  <defs>
    <linearGradient id="document-background" x1="0%" y1="0%" x2="0%" y2="100%">
      <stop offset="0%" style="stop-color:#388E3C"/> <!-- Green 700 -->
      <stop offset="100%" style="stop-color:#1B5E20"/> <!-- Green 900 -->
    </linearGradient>
    <linearGradient id="document-border" x1="0%" y1="0%" x2="0%" y2="100%">
      <stop offset="0%" style="stop-color:#81C784"/> <!-- Green 300 -->
      <stop offset="100%" style="stop-color:#4CAF50"/> <!-- Green 500 -->
    </linearGradient>
    <style type="text/css">
      .document-background { fill: url(#document-background) }
      .document-border { fill: url(#document-border) }
      .symbol { fill: #C8E6C9 } <!-- Green 100 -->
    </style>
  </defs>

  <!-- Document -->
  <path class="document-border"
        d="M 6,1 a 2,2 0 0 0 -2,2 v 26 a 2,2 0 0 0 2,2 h 20 a 2,2 0 0 0 2,-2 v -17 l -11,-11
           M 6,3 h 10 l 10,10 v 16 h -20
           M 20,1 h 6 a 2,2 0 0 1 2,2 v 6"/>
  <path class="document-background"
        d="M 6,3 h 10 l 10,10 v 16 h -20"/>

  <!-- Symbol -->
  <g class="symbol" transform="translate(8,12)">
    <rect x="1" y="3" width="4" height="2"/>
    <rect x="6" y="3" width="4" height="2"/>
    <rect x="11" y="3" width="4" height="2"/>

    <g style="fill-opacity:0.75">
      <rect x="1" y="6" width="4" height="2"/>
      <rect x="6" y="6" width="4" height="2"/>
      <rect x="11" y="6" width="4" height="2"/>
      <rect x="1" y="9" width="4" height="2"/>
      <rect x="6" y="9" width="4" height="2"/>
      <rect x="11" y="9" width="4" height="2"/>
      <rect x="1" y="12" width="4" height="2"/>
      <rect x="6" y="12" width="4" height="2"/>
      <rect x="11" y="12" width="4" height="2"/>
    </g>
  </g>
</svg>
