<svg xmlns="http://www.w3.org/2000/svg" viewBox="0 0 32 32">
  <defs>
    <linearGradient id="background" x1="0" y1="0%" x2="0" y2="100%">
      <stop offset="0%" style="stop-color:#03A9F4"/> <!-- Light blue 500 -->
      <stop offset="100%" style="stop-color:#0277BD"/> <!-- Light blue 800 -->
    </linearGradient>
    <linearGradient id="border" x1="0" y1="0%" x2="0" y2="100%">
      <stop offset="0%" style="stop-color:#B3E5FC"/> <!-- Light blue 100 -->
      <stop offset="100%" style="stop-color:#4FC3F7"/> <!-- Light blue 300 -->
    </linearGradient>
    <style type="text/css">
      .symbol { fill: white }
    </style>
  </defs>

  <!-- Background and border -->
  <g transform="translate(16,16)">
    <circle style="fill:url(#background)" r="13"/>
    <path style="fill:url(#border)" d="m -15,0 a 15,15 0 0 0 30,0 a 15,15 0 0 0 -30,0 m 2,0 a 13,13 0 0 1 26,0 a 13,13 0 0 1 -26,0"/>
  </g>

  <!-- Symbol (18x18) -->
  <g class="symbol" transform="translate(7,7)">
    <path d="M 1,5 a 2,2 0 0 1 2,-2 h 12 a 2,2 0 0 1 2,2 l -7,5.075 c -0.9,0.64 -1.1,0.64 -2,0
             M 1,6.86 v 6.14 a 2,2 0 0 0 2,2 h 12 a 2,2 0 0 0 2,-2 v -6.14 l -7,5.075 c -0.9,0.64 -1.1,0.64 -2,0"/>
  </g>
</svg>
