<svg xmlns="http://www.w3.org/2000/svg" viewBox="0 0 32 32">
  <defs>
    <linearGradient id="binding" x1="0%" y1="0%" x2="0%" y2="100%">
      <stop offset="0%" style="stop-color:#E53935"/> <!-- Red 600 -->
      <stop offset="100%" style="stop-color:#D32F2F"/> <!-- Red 700 -->
    </linearGradient>
    <linearGradient id="sheet" x1="0%" y1="0%" x2="0%" y2="100%">
      <stop offset="0%" style="stop-color:#EEEEEE"/> <!-- Gray 200 -->
      <stop offset="100%" style="stop-color:#E0E0E0"/> <!-- Gray 300 -->
    </linearGradient>
    <style type="text/css">
      .dates { fill: #757575 /* Gray 600 */ }
      .lighten-strongly { fill: white; fill-opacity: 0.25 }
      .darken { fill:black; fill-opacity: 0.125 }
    </style>
  </defs>
  <path style="fill:url(#binding)" d="m 4,2 a 2,2 0 0 0 -2,2 v 5 h 28 v -5 a 2,2 0 0 0 -2,-2"/>
  <path class="lighten-strongly" d="m 4,2 a 2,2 0 0 0 -2,2 a 2,1 0 0 1 2,-1 h 24 a 2,1 0 0 1 2,1 a 2,2 0 0 0 -2,-2"/>

  <path style="fill:url(#sheet)" d="m 2,9 v 19 a 2,2 0 0 0 2,2 h 24 a 2,2 0 0 0 2,-2 v -19"/>
  <path class="darken" d="m 4,29 a 2,1 0 0 1 -2,-1 a 2,2 0 0 0 2,2 h 24 a 2,2 0 0 0 2,-2 a 2,1 0 0 1 -2,1"/>
  <rect class="darken" x="2" y="8" width="28" height="2"/>

  <g class="dates">
    <rect x="14" y="14" width="4" height="4"/>
    <rect x="20" y="14" width="4" height="4"/>

    <rect x="8" y="20" width="4" height="4"/>
    <rect x="14" y="20" width="4" height="4"/>
    <rect x="20" y="20" width="4" height="4"/>
  </g>
</svg>
