<svg xmlns="http://www.w3.org/2000/svg" viewBox="0 0 32 32">
  <defs>
    <linearGradient id="cover" x1="0" y1="0%" x2="0" y2="100%">
      <stop offset="0%" style="stop-color:#A1887F"/> <!-- Brown 300 -->
      <stop offset="100%" style="stop-color:#8D6E63"/> <!-- Brown 400 -->
    </linearGradient>
    <style type="text/css">
      .tab1 { fill: #FFD54F } /* Amber 300 */
      .tab2 { fill: #AED581 } /* Light green 300 */
      .tab3 { fill: #7986CB } /* Indigo 300 */
      .lighten { fill: white; fill-opacity: 0.125 }
      .darken { fill: black; fill-opacity: 0.125 }
      .darken-strongly { fill: black; fill-opacity: 0.25 }
    </style>
  </defs>

  <!-- Cover -->
  <path style="fill:url(#cover)" d="M 6,2 a 1,1 0 0 0 -1,1 v 26 a 1,1 0 0 0 1,1 h 18 v -21 h 3 v -5 a 2,2 0 0 0 -2,-2"/>
  <path class="lighten" d="m 6,2 a 1,1 0 0 0 -1,1  h 20 a 2,1 0 0 1 2,1 a 2,2 0 0 0 -2,-2"/>
  <path class="darken" d="m 5,29 a 1,1 0 0 0 1,1 h 18 v -1"/>

  <!-- Tabs -->
  <g transform="translate(24,9)">
    <rect class="tab1" width="3" height="7"/>
    <rect class="tab2" y="7" width="3" height="7"/>
    <path class="tab3" d="m 0,14 v 7 h 1 a 2,2 0 0 0 2,-2 v -5"/>

    <rect class="darken" y="7" width="3" height="1"/>
    <rect class="darken" y="14" width="3" height="1"/>
    <path class="darken-strongly" d="m 0,0 v 21 h 1 v -20 h 2 v -1"/>
  </g>
</svg>
