<svg xmlns="http://www.w3.org/2000/svg" viewBox="0 0 32 32">
  <defs>
    <linearGradient id="dark-gray" x1="0%" y1="0%" x2="100%" y2="100%">
      <stop offset="0%" style="stop-color:#757575"/> <!-- Gray 600 -->
      <stop offset="100%" style="stop-color:#616161"/> <!-- Gray 700 -->
    </linearGradient>
    <linearGradient id="gray" x1="0%" y1="0%" x2="100%" y2="100%">
      <stop offset="0%" style="stop-color:#E0E0E0"/> <!-- Gray 300 -->
      <stop offset="100%" style="stop-color:#BDBDBD"/> <!-- Gray 400 -->
    </linearGradient>
    <linearGradient id="teal" x1="0%" y1="0%" x2="100%" y2="100%">
      <stop offset="0%" style="stop-color:#80CBC4"/> <!-- Teal 200 -->
      <stop offset="100%" style="stop-color:#009688"/> <!-- Teal 500 -->
    </linearGradient>
    <style type="text/css">
      .darken { fill: black; fill-opacity: 0.125 }
    </style>
  </defs>
  <g transform="translate(16,16)">
    <path style="fill:url(#dark-gray)"
          d="M 0,-14 A 14,14 0 0 0 -14,0 L -11,0 A 11,11 0 0 1 0,-11
             M 0,11 A 11,11 0 0 0 11,0 L 14,0 A 14,14 0 0 1 0,14"/>
    <path style="fill:url(#gray)"
          d="M 0,-11 A 11,11 0 1 0 11,0 L 8,0 A 8,8 0 1 1 0,-8"/>
    <path style="fill:url(#teal)"
          d="M 0,-8 A 8,8 0 0 0 0,8 A 8,8 0 0 0 0,-8
             M 0,-4 A 4,4 0 0 1 0,4 A 4,4 0 0 1 0,-4"/>
    <path class="darken"
          d="M 0,-8 A 8,8 0 1 0 8,0 L 9,0 A 9,9 0 1 1 0,-9"/>
  </g>
</svg>
