<svg xmlns="http://www.w3.org/2000/svg" viewBox="0 0 32 32">
  <defs>
    <linearGradient id="folder-front" x1="0%" y1="0%" x2="0%" y2="100%">
      <stop offset="0%" style="stop-color:#90CAF9"/> <!-- Blue 200 -->
      <stop offset="100%" style="stop-color:#64B5F6"/> <!-- Blue 300 -->
    </linearGradient>
    <style type="text/css">
      .folder-back { fill: #2196F3 /* Blue 500 */ }
      .folder-front { fill: url(#folder-front) }
      .lighten { fill: white; fill-opacity: 0.125 }
      .darken { fill: black; fill-opacity: 0.125 }
    </style>
  </defs>
  <path class="folder-back" d="m 2,7 a 2,2 0 0 1 2,-2 h 7 c 2,0 2,0 4,2 l 1,1 h 12 a 2,2 0 0 1 2,2 v 2 a 2,2 0 0 0 -2,-2 h -24 a 2,2 0 0 0 -2,2"/>
  <path class="darken" d="m 4,9 a 3,3 0 0 0 -2,0.76 v 2.24 a 2,2 0 0 1 2,-2 h 24 a 2,2 0 0 1 2,2 v -2.24 a 3,3 0 0 0 -2,-0.76"/>
  <rect class="folder-front" x="2" y="10" width="28" height="17" rx="2" ry="2"/>
  <path class="lighten" d="m 4,10 a 2,2 0 0 0 -2,2 a 2,1 0 0 1 2,-1 h 24 a 2,1 0 0 1 2,1 a 2,2 0 0 0 -2,-2"/>
  <path class="darken" d="m 4,26 a 2,1 0 0 1 -2,-1 a 2,2 0 0 0 2,2 h 24 a 2,2 0 0 0 2,-2 a 2,1 0 0 1 -2,1"/>
</svg>
