<svg xmlns="http://www.w3.org/2000/svg" viewBox="0 0 32 32">
  <defs>
    <linearGradient id="window-background-light" x1="0%" y1="0%" x2="0%" y2="100%">
      <stop offset="0%" style="stop-color:#E0E0E0"/> <!-- Gray 300 -->
      <stop offset="100%" style="stop-color:#BDBDBD"/> <!-- Gray 400 -->
    </linearGradient>
    <linearGradient id="titlebar-background-light" x1="0%" y1="0%" x2="0%" y2="100%">
      <stop offset="0%" style="stop-color:#9E9E9E"/> <!-- Gray 500 -->
      <stop offset="100%" style="stop-color:#757575"/> <!-- Gray 600 -->
    </linearGradient>
    <linearGradient id="titlebar-button" x1="0%" y1="0%" x2="0%" y2="100%">
      <stop offset="0%" style="stop-color:#424242"/> <!-- Gray 800 -->
      <stop offset="100%" style="stop-color:#212121"/> <!-- Gray 900 -->
    </linearGradient>

    <linearGradient id="window-background-dark" x1="0%" y1="0%" x2="0%" y2="100%">
      <stop offset="0%" style="stop-color:#424242"/> <!-- Gray 800 -->
      <stop offset="100%" style="stop-color:#212121"/> <!-- Gray 900 -->
    </linearGradient>
    <linearGradient id="titlebar-background-dark" x1="0%" y1="0%" x2="0%" y2="100%">
      <stop offset="0%" style="stop-color:#757575"/> <!-- Gray 500 -->
      <stop offset="100%" style="stop-color:#616161"/> <!-- Gray 600 -->
    </linearGradient>
    <style type="text/css">
      .window-border-light { fill: #9E9E9E }
      .window-border-dark { fill: #424242 }
      .lighten { fill: white; fill-opacity: 0.125 }
      .darken { fill: black; fill-opacity: 0.125 }
    </style>
  </defs>

  <!-- Light theme -->
  <path style="fill:url(#window-background-light)" d="m 4,4 a 2,2 0 0 0 -2,2 v 20 a 2,2 0 0 0 2,2 h 12 v -24"/>
  <path style="fill:url(#titlebar-background-light)" d="m 4,4 a 2,2 0 0 0 -2,2 v 4 h 14 v -6"/>
  <path style="fill:url(#titlebar-button)" d="M 4,7 a 1.5,1.5 0 0 1 3,0 a 1.5,1.5 0 0 1 -3,0"/>
  <path class="window-border-light" d="m 3,10 h -1 v 16 a 2,2 0 0 0 2,2 h 12 v -1 h -12 a 1,1 0 0 1 -1,-1"/>

  <!-- Dark theme -->
  <path style="fill:url(#window-background-dark)" d="m 16,4 v 24 h 12 a 2,2 0 0 0 2,-2 v -20 a 2,2 0 0 0 -2,-2"/>
  <path style="fill:url(#titlebar-background-dark)" d="m 16,4 v 6 h 14 v -4 a 2,2 0 0 0 -2,-2"/>
  <path class="window-border-dark" d="m 16,27 v 1 h 12 a 2,2 0 0 0 2,-2 v -16 h -1 v 16 a 1,1 0 0 1 -1,1"/>

  <!-- Input field -->
  <path style="fill:#9E9E9E" d="m 6,13 a 1,1 0 0 0 -1,1 v 2 a 1,1 0 0 0 1,1 h 10 v -4"/>
  <path style="fill:#616161" d="m 16,13 v 4 h 10 a 1,1 0 0 0 1,-1 v -2 a 1,1 0 0 0 -1,-1"/>
  <path class="darken" d="m 6,13 a 1,1 0 0 0 -1,1 h 22 a 1,1 0 0 0 -1,-1"/>

  <!-- Button -->
  <path style="fill:#757575" d="m 20,20 a 1,1 0 0 0 -1,1 v 2 a 1,1 0 0 0 1,1 h 6 a 1,1 0 0 0 1,-1 v -2 a 1,1 0 0 0 -1,-1"/>
  <path class="lighten" d="m 20,20 a 1,1 0 0 0 -1,1 h 8 a 1,1 0 0 0 -1,-1"/>

  <path class="lighten" d="m 4,4 a 2,2 0 0 0 -2,2 a 2,1 0 0 1 2,-1 h 24 a 2,1 0 0 1 2,1 a 2,2 0 0 0 -2,-2"/>
  <path class="darken" d="m 4,27 a 2,1 0 0 1 -2,-1 a 2,2 0 0 0 2,2 h 24 a 2,2 0 0 0 2,-2 a 2,1 0 0 1 -2,1"/>
</svg>
