<svg xmlns="http://www.w3.org/2000/svg" viewBox="0 0 32 32">
  <defs>
    <linearGradient id="network-node" x1="0%" y1="0%" x2="0%" y2="100%">
      <stop offset="0%" style="stop-color:#E0E0E0"/> <!-- Gray 300 -->
      <stop offset="100%" style="stop-color:#BDBDBD"/> <!-- Gray 400 -->
    </linearGradient>
    <style type="text/css">
      .network-node { fill:url(#network-node) }
      .network-connection { fill: #9E9E9E /* Gray 500 */ }
      .lighten { fill: white; fill-opacity: 0.125 }
      .darken { fill: black; fill-opacity: 0.125 }
    </style>
  </defs>

  <!-- Nodes -->
  <g transform="translate(6.67,16)">
    <circle class="network-node" r="5.33"/>
    <path class="lighten" d="m -5.33,0 a 5.33,5.33 0 0 1 10.66,0 a 5.33,4.33 0 0 0 -10.66,0"/>
    <path class="darken" d="m -5.33,0 a 5.33,5.33 0 0 0 10.66,0 a 5.33,4.33 0 0 1 -10.66,0"/>
  </g>
  <g transform="translate(25.33,6.67)">
    <circle class="network-node" r="5.33"/>
    <path class="lighten" d="m -5.33,0 a 5.33,5.33 0 0 1 10.66,0 a 5.33,4.33 0 0 0 -10.66,0"/>
    <path class="darken" d="m -5.33,0 a 5.33,5.33 0 0 0 10.66,0 a 5.33,4.33 0 0 1 -10.66,0"/>
  </g>
  <g transform="translate(25.33,25.33)">
    <circle class="network-node" r="5.33"/>
    <path class="lighten" d="m -5.33,0 a 5.33,5.33 0 0 1 10.66,0 a 5.33,4.33 0 0 0 -10.66,0"/>
    <path class="darken" d="m -5.33,0 a 5.33,5.33 0 0 0 10.66,0 a 5.33,4.33 0 0 1 -10.66,0"/>
  </g>

  <!-- Connections -->
  <path class="network-connection"
        d="M 19.21 8.232 L 11.6 12.04 A 6.33 6.33 0 0 1 12.79 14.44 L 20.4 10.63 A 6.33 6.33 0 0 1 19.21 8.232 z
           M 12.8 17.56 A 6.33 6.33 0 0 1 11.6 19.97 L 19.2 23.77 A 6.33 6.33 0 0 1 20.4 21.36 L 12.8 17.56 z"/>

  <path class="lighten"
        d="M 19.21 8.232 L 11.6 12.04 A 6.33 6.33 0 0 1 12.32 13.18 L 19.68 9.494 A 6.33 6.33 0 0 1 19.21 8.232 z M 12.8 17.56 A 6.33 6.33 0 0 1 12.33 18.83 L 19.67 22.5 A 6.33 6.33 0 0 1 20.4 21.36 L 12.8 17.56 z "/>
</svg>
