<svg xmlns="http://www.w3.org/2000/svg" viewBox="0 0 32 32">
  <defs>
    <linearGradient id="window-background" x1="0%" y1="0%" x2="0%" y2="100%">
      <stop offset="0%" style="stop-color:#E0E0E0"/> <!-- Gray 300 -->
      <stop offset="100%" style="stop-color:#BDBDBD"/> <!-- Gray 400 -->
    </linearGradient>
    <linearGradient id="titlebar-background" x1="0%" y1="0%" x2="0%" y2="100%">
      <stop offset="0%" style="stop-color:#9E9E9E"/> <!-- Gray 500 -->
      <stop offset="100%" style="stop-color:#757575"/> <!-- Gray 600 -->
    </linearGradient>
    <linearGradient id="titlebar-button" x1="0%" y1="0%" x2="0%" y2="100%">
      <stop offset="0%" style="stop-color:#424242"/> <!-- Gray 800 -->
      <stop offset="100%" style="stop-color:#212121"/> <!-- Gray 900 -->
    </linearGradient>
    <style type="text/css">
      .symbol { fill: #424242 }
      .window-border { fill: none }
      .lighten { fill: white; fill-opacity: 0.125 }
      .darken { fill: black; fill-opacity: 0.125 }
    </style>
  </defs>

  <!-- Window -->
  <path style="fill:url(#window-background)" d="m 4,4 a 2,2 0 0 0 -2,2 v 20 a 2,2 0 0 0 2,2 h 24 a 2,2 0 0 0 2,-2 v -20 a 2,2 0 0 0 -2,-2"/>
  <path class="window-border" d="m 3,10 h -1 v 16 a 2,2 0 0 0 2,2 h 24 a 2,2 0 0 0 2,-2 v -16 h -1 v 16 a 1,1 0 0 1 -1,1 h -24 a 1,1 0 0 1 -1,-1"/>

  <path style="fill:url(#titlebar-background)" d="m 4,4 a 2,2 0 0 0 -2,2 v 4 h 28 v -4 a 2,2 0 0 0 -2,-2"/>
  <path style="fill:url(#titlebar-button)"
        d="M 4,7 a 1.5,1.5 0 0 1 3,0 a 1.5,1.5 0 0 1 -3,0
           m 4.5,0 a 1.5,1.5 0 0 1 3,0 a 1.5,1.5 0 0 1 -3,0
           m 4.5,0 a 1.5,1.5 0 0 1 3,0 a 1.5,1.5 0 0 1 -3,0"/>

  <path class="lighten" d="m 4,4 a 2,2 0 0 0 -2,2 a 2,1 0 0 1 2,-1 h 24 a 2,1 0 0 1 2,1 a 2,2 0 0 0 -2,-2"/>
  <path class="darken" d="m 4,27 a 2,1 0 0 1 -2,-1 a 2,2 0 0 0 2,2 h 24 a 2,2 0 0 0 2,-2 a 2,1 0 0 1 -2,1"/>

  <!-- Symbol -->
  <g class="symbol" transform="translate(5,10)">
    <path d="m 8,2 a 3,3 0 0 0 0,6 h 6 a 3,3 0 0 0 0,-6 z m 0,1 h 6 a 2,2 0 0 1 0,4 h -6 a 2,2 0 0 1 0,-4 z"/>
    <circle cx="8" cy="5" r="1.5"/>
    <path d="m 8,9 a 3,3 0 0 0 0,6 h 6 a 3,3 0 0 0 0,-6 z m 6,1.5 a 1.5,1.5 0 0 1 0,3 a 1.5,1.5 0 0 1 0,-3 z"/>
  </g>
</svg>
