<svg xmlns="http://www.w3.org/2000/svg" viewBox="0 0 32 32">
  <defs>
    <linearGradient id="server-front" x1="0%" y1="0%" x2="0%" y2="100%">
      <stop offset="0%" style="stop-color:#9E9E9E"/> <!-- Gray 500 -->
      <stop offset="100%" style="stop-color:#757575"/> <!-- Gray 600 -->
    </linearGradient>
    <linearGradient id="led-green" x1="0%" y1="0%" x2="0%" y2="100%">
      <stop offset="0%" style="stop-color:#E8F5E9"/> <!-- Green 50 -->
      <stop offset="100%" style="stop-color:#A5D6A7"/> <!-- Green 200 -->
    </linearGradient>
    <linearGradient id="network-node" x1="0%" y1="0%" x2="0%" y2="100%">
      <stop offset="0%" style="stop-color:#E0E0E0"/> <!-- Gray 300 -->
      <stop offset="100%" style="stop-color:#BDBDBD"/> <!-- Gray 400 -->
    </linearGradient>
    <style type="text/css">
      .network-connection { fill: #9E9E9E /* Gray 500 */ }
      .lighten { fill: white; fill-opacity: 0.125 }
      .darken { fill: black; fill-opacity: 0.125 }
    </style>
  </defs>

  <!-- Servers -->
  <g transform="translate(4,2)">
    <path style="fill:url(#server-front)" d="m 1,0 a 1,1 0 0 0 -1,1 v 4 a 1,1 0 0 0 1,1 h 22 a 1,1 0 0 0 1,-1 v -4 a 1,1 0 0 0 -1,-1"/>
    <circle style="fill:url(#led-green)" cx="3" cy="3" r="1"/>
    <path class="lighten" d="m 1,0 a 1,1 0 0 0 -1,1 h 24 a 1,1 0 0 0 -1,-1"/>
    <path class="darken" d="m 0,5 a 1,1 0 0 0 1,1 h 22 a 1,1 0 0 0 1,-1"/>
  </g>
  <g transform="translate(4,10)">
    <path style="fill:url(#server-front)" d="m 1,0 a 1,1 0 0 0 -1,1 v 4 a 1,1 0 0 0 1,1 h 22 a 1,1 0 0 0 1,-1 v -4 a 1,1 0 0 0 -1,-1"/>
    <circle style="fill:url(#led-green)" cx="3" cy="3" r="1"/>
    <path class="lighten" d="m 1,0 a 1,1 0 0 0 -1,1 h 24 a 1,1 0 0 0 -1,-1"/>
    <path class="darken" d="m 0,5 a 1,1 0 0 0 1,1 h 22 a 1,1 0 0 0 1,-1"/>
  </g>

  <!-- Network -->
  <circle style="fill:url(#network-node)" cx="16" cy="26" r="4"/>
  <path class="lighten" d="m 12,26 a 4,4 0 0 1 8,0 a 4,3 0 0 0 -8,0"/>
  <path class="darken" d="m 12,26 a 4,4 0 0 0 8,0 a 4,3 0 0 1 -8,0"/>

  <path class="network-connection"
        d="M 17,17 h -2 v 4.1 a 5,5 0 0 1 2,0
           M 5,25 a 1,1 0 0 0 0,2 h 6.1 a 5,5 0 0 1 0,-2
           M 27,27 a 1,1 0 0 0 0,-2 h -6.1 a 5,5 0 0 1 0,2"/>
  <path class="lighten"
        d="M 16,17 h -1 v 4.1 a 5,5 0 0 1 1,-0.1
           M 5,25 a 1,1 0 0 0 -1,1 h 7 a 5,5 0 0 1 0.1,-1
           M 28,26 a 1,1 0 0 0 -1,-1 h -6.1 a 5,5 0 0 1 0.1,1"/>
</svg>
