<svg xmlns="http://www.w3.org/2000/svg" viewBox="0 0 32 32">
  <defs>
    <style id="current-color-scheme" type="text/css">
      .ColorScheme-Text { color: #D8D8D8 }
    </style>
  </defs>
  <g class="ColorScheme-Text" style="fill:currentColor">
    <!-- 'Aa' -->
    <path d="M 8.152 3.367 C 7.592 4.551 7.048 5.753 6.52 6.969 C 5.992 8.185 5.456 9.465 4.912 10.81 C 4.384 12.15 3.839 13.57 3.279 15.08 C 2.719 16.59 2.128 18.23 1.504 20 L 4.648 20 L 5.32 18.08 C 5.56 17.43 5.792 16.76 6.016 16.09 L 11 16.09 L 11 14 L 15.46 14 C 15.05 12.91 14.63 11.81 14.22 10.81 C 13.69 9.465 13.17 8.185 12.64 6.969 C 12.11 5.753 11.57 4.551 11.01 3.367 L 8.152 3.367 z M 9.52 6.584 C 9.873 7.4 10.29 8.424 10.77 9.656 C 11.25 10.89 11.75 12.21 12.26 13.64 L 6.783 13.64 C 7.295 12.21 7.784 10.89 8.248 9.68 C 8.728 8.464 9.152 7.432 9.52 6.584 z "/>
    <path d="M 23.82 7.137 L 23.82 7.166 C 23.02 7.166 22.27 7.229 21.57 7.357 C 20.86 7.485 20.33 7.614 19.96 7.742 L 20.32 10.09 C 20.67 9.965 21.13 9.854 21.69 9.758 C 22.25 9.662 22.87 9.613 23.54 9.613 C 24.03 9.613 24.44 9.679 24.76 9.807 C 25.09 9.935 25.36 10.12 25.55 10.36 C 25.76 10.58 25.9 10.84 25.98 11.15 C 26.06 11.46 26.1 11.78 26.1 12.11 L 26.1 12.59 C 25.7 12.53 25.33 12.47 24.98 12.4 C 24.63 12.33 24.29 12.3 23.97 12.3 C 23.28 12.3 22.62 12.37 21.98 12.51 C 21.35 12.64 20.8 12.86 20.32 13.18 C 19.97 13.4 19.67 13.68 19.43 14 L 21 14 L 21 19.8 C 21.24 19.9 21.49 19.99 21.76 20.05 C 22.39 20.19 23.07 20.26 23.82 20.26 C 24.96 20.26 25.98 20.19 26.87 20.05 C 27.78 19.92 28.46 19.81 28.91 19.71 L 28.91 12.1 C 28.91 11.37 28.82 10.7 28.65 10.09 C 28.49 9.465 28.21 8.936 27.81 8.504 C 27.42 8.072 26.9 7.736 26.25 7.496 C 25.59 7.256 24.78 7.137 23.82 7.137 z M 24.4 14.36 C 24.77 14.36 25.1 14.39 25.41 14.46 C 25.71 14.49 25.94 14.53 26.1 14.6 L 26.1 17.82 C 25.64 17.91 24.96 17.96 24.06 17.96 C 23.33 17.96 22.74 17.83 22.31 17.58 C 21.88 17.31 21.66 16.83 21.66 16.14 C 21.66 15.79 21.74 15.5 21.9 15.27 C 22.06 15.03 22.27 14.85 22.53 14.72 C 22.8 14.61 23.1 14.53 23.42 14.46 C 23.75 14.39 24.08 14.36 24.4 14.36 z "/>
    <!--
    <text style="font-family:Ubuntu;font-size:24px;font-weight:500;text-anchor:middle" x="16" y="20">Aa</text>
    -->
    <!-- Arrow down -->
    <path d="M 13,16 h 6 v 6 h 4.5 l -7.5,7.5 -7.5,-7.5 h 4.5 z"/>
  </g>
</svg>
