<svg xmlns="http://www.w3.org/2000/svg" width="32" height="32" viewBox="0 0 24 24">
  <defs>
    <linearGradient id="bell" x1="0" y1="0%" x2="0" y2="100%">
      <stop offset="0%" style="stop-color:#E0E0E0"/> <!-- Gray 300, alt: #FFF59D (Yellow 200) -->
      <stop offset="100%" style="stop-color:#BDBDBD"/> <!-- Gray 400, alt: #FFCA28 (Amber 400) -->
    </linearGradient>
    <style type="text/css">
      .clapper { fill: #E0E0E0 /* Gray 300 */ }
    </style>
  </defs>
  <path style="fill:url(#bell)"
        d="m 10.5,4 a 1.5,1.5 0 0 1 3,0 v 1.2 a 6,6 0 0 1 4.5,5.8 c 0,2.67 1,5 2,6 c 0.32,0.32 0.5,0.45 0.5,1 c 0,0.55 -0.45,1 -1,1
           h -15 c -0.55,0 -1,-0.45 -1,-1 c 0,-0.55 0.18,-0.68 0.5,-1 c 1,-1 2,-3.33 2,-6 a 6,6 0 0 1 4.5,-5.8"/>

  <path class="clapper" d="m 10,20 a 2,2 0 0 0 4,0"/>
</svg>
