<svg xmlns="http://www.w3.org/2000/svg" viewBox="0 0 32 32">
  <defs>
    <linearGradient id="background" x1="0" y1="0%" x2="0" y2="100%">
      <stop offset="0%" style="stop-color:#2196F3"/> <!-- Blue 500 -->
      <stop offset="100%" style="stop-color:#1976D2"/> <!-- Blue 700 -->
    </linearGradient>
    <style type="text/css">
      .symbol { fill: white }
      .lighten { fill: white; fill-opacity: 0.125 }
      .darken { fill: black; fill-opacity: 0.125 }
    </style>
  </defs>

  <!-- Background and borders-->
  <g transform="translate(16,16)">
    <circle style="fill:url(#background)" r="13"/>
    <path class="lighten" d="m 13,0 a 13,13 0 0 0 -26,0 a 13,12 0 0 1 26,0"/>
    <path class="darken" d="m 13,0 a 13,13 0 0 1 -26,0 a 13,12 0 0 0 26,0"/>
  </g>

  <!-- Bluetooth icon (Material Design) -->
  <g class="symbol" transform="translate(4,4)">
    <path d="m 17.71,7.71 -5.71,-5.71 h -1 v 7.59 l -4.59,-4.59 -1.41,1.41 5.59,5.59 -5.59,5.59 1.41,1.41 4.59,-4.59 v 7.59 h 1 l 5.71,-5.71 -4.3,-4.29 z m -4.71,-1.88 1.88,1.88 -1.88,1.88 z m 1.88,10.46 -1.88,1.88 v -3.76 z"/>
  </g>
</svg>
