<svg xmlns="http://www.w3.org/2000/svg" viewBox="0 0 32 32">
  <defs>
    <linearGradient id="monitor-border" x1="0%" y1="0%" x2="0%" y2="100%">
      <stop offset="0%" style="stop-color:#BDBDBD"/> <!-- Gray 400 -->
      <stop offset="100%" style="stop-color:#9E9E9E"/> <!-- Gray 500 -->
    </linearGradient>

    <!-- Light Theme -->
    <linearGradient id="desktop-background-light" x1="0%" y1="0%" x2="0%" y2="100%">
      <stop offset="0%" style="stop-color:#BBDEFB"/> <!-- Blue 100 -->
      <stop offset="100%" style="stop-color:#42A5F5"/> <!-- Blue 400 -->
    </linearGradient>
    <linearGradient id="window-background-light" x1="0%" y1="0%" x2="0%" y2="100%">
      <stop offset="0%" style="stop-color:#EEEEEE"/> <!-- Gray 200 -->
      <stop offset="100%" style="stop-color:#E0E0E0"/> <!-- Gray 300 -->
    </linearGradient>
    <linearGradient id="titlebar-background-light" x1="0%" y1="0%" x2="0%" y2="100%">
      <stop offset="0%" style="stop-color:#BDBDBD"/> <!-- Gray 400 -->
      <stop offset="100%" style="stop-color:#9E9E9E"/> <!-- Gray 500 -->
    </linearGradient>

    <!-- Dark Theme -->
    <linearGradient id="desktop-background-dark" x1="0%" y1="0%" x2="0%" y2="100%">
      <stop offset="0%" style="stop-color:#64B5F6"/> <!-- Blue 300 -->
      <stop offset="100%" style="stop-color:#1E88E5"/> <!-- Blue 600 -->
    </linearGradient>
    <linearGradient id="window-background-dark" x1="0%" y1="0%" x2="0%" y2="100%">
      <stop offset="0%" style="stop-color:#616161"/> <!-- Gray 700 -->
      <stop offset="100%" style="stop-color:#414141"/> <!-- Gray 800 -->
    </linearGradient>
    <linearGradient id="titlebar-background-dark" x1="0%" y1="0%" x2="0%" y2="100%">
      <stop offset="0%" style="stop-color:#9E9E9E"/> <!-- Gray 500 -->
      <stop offset="100%" style="stop-color:#757575"/> <!-- Gray 600 -->
    </linearGradient>

    <style type="text/css">
      .panel-background-light { fill: white; fill-opacity: 0.75 }
      .panel-background-dark { fill: #424242; fill-opacity: 0.75 }
      .window-border-light { fill: #BDBDBD }
      .window-border-dark { fill: #757575 }
      .monitor-stand { fill: #808080 }
      .darken-slightly { fill: black; fill-opacity: 0.0625 }
      .darken { fill: black; fill-opacity: 0.125 }
      .darken-strongly { fill: black; fill-opacity: 0.25 }
    </style>
  </defs>

  <!-- Monitor -->
  <path style="fill:url(#monitor-border)" d="m 4,6 a 2,2 0 0 0 -2,2 v 16 a 2,2 0 0 0 2,2 h 24 a 2,2 0 0 0 2,-2 v -16 a 2,2 0 0 0 -2,-2 z m 0,2 h 24 v 16 h -24 z"/>
  <path class="monitor-stand" d="m 10,26 v 1 a 2,2 0 0 0 2,2 h 8 a 2,2 0 0 0 2,-2 v -1"/>
  <rect class="darken-strongly" x="10" y="26" width="12" height="1"/>

  <!-- Light theme -->
  <g transform="translate(4,8)">
    <rect style="fill:url(#desktop-background-light)"  width="12" height="16"/>
    <rect class="panel-background-light" y="14" width="12" height="2"/>
    <rect class="darken-slightly" y="13.5" width="12" height="0.5"/>

    <g transform="translate(6,3)">
      <rect class="darken" x="-0.5" y="-0.5" width="6.5" height="9"/>
      <rect style="fill:url(#titlebar-background-light)" width="6" height="2"/>
      <rect style="fill:url(#window-background-light)" y="2" width="6" height="6"/>
    </g>
  </g>

  <!-- Dark theme -->
  <g transform="translate(16,8)">
  <rect style="fill:url(#desktop-background-dark)" width="12" height="16"/>
  <rect class="panel-background-dark" y="14" width="12" height="2"/>
  <rect class="darken-slightly" y="13.5" width="12" height="0.5"/>

    <g transform="translate(0,3)">
      <rect class="darken-slightly" y="-0.5" width="6.5" height="9"/>
      <rect style="fill:url(#titlebar-background-dark)" width="6" height="2"/>
      <rect style="fill:url(#window-background-dark)" y="2" width="6" height="6"/>
    </g>
  </g>
</svg>
