<svg xmlns="http://www.w3.org/2000/svg" viewBox="0 0 32 32">
  <defs>
    <style id="current-color-scheme" type="text/css">
      .ColorScheme-Text { color: #D8D8D8 }
    </style>
  </defs>
  <g class="ColorScheme-Text" style="fill:currentColor">
    <!-- 'Aa' -->
    <path d="m 14.42,24 q -0.34,-0.98 -0.7,-1.94 -0.36,-0.96 -0.7,-1.97 h -7.004 q -0.336,1.01 -0.696,1.99 -0.336,0.96 -0.672,1.92 h -3.144 q 0.936,-2.66 1.776,-4.92 0.84,-2.26 1.632,-4.27 0.816,-2.02 1.608,-3.84 0.792,-1.826 1.632,-3.602 h 2.858 q 0.84,1.776 1.63,3.602 0.79,1.82 1.58,3.84 0.82,2.01 1.66,4.27 0.86,2.26 1.8,4.92 z m -4.9,-13.42 q -0.552,1.28 -1.272,3.1 -0.696,1.82 -1.464,3.96 h 5.476 q -0.77,-2.14 -1.49,-3.98 -0.72,-1.85 -1.25,-3.08 z"/>
    <path d="m 24.06,21.96 q 1.35,0 2.04,-0.14 v -3.22 q -0.24,-0.1 -0.69,-0.14 -0.46,-0.1 -1.01,-0.1 -0.48,0 -0.98,0.1 -0.48,0.1 -0.89,0.26 -0.39,0.19 -0.63,0.55 -0.24,0.34 -0.24,0.87 0,1.03 0.65,1.44 0.65,0.38 1.75,0.38 z m -0.24,-10.82 q 1.44,0 2.43,0.36 0.98,0.36 1.56,1 0.6,0.65 0.84,1.59 0.26,0.91 0.26,2.01 v 7.61 q -0.67,0.15 -2.04,0.34 -1.34,0.21 -3.05,0.21 -1.12,0 -2.06,-0.21 -0.94,-0.22 -1.61,-0.7 -0.65,-0.48 -1.03,-1.25 -0.36,-0.76 -0.36,-1.89 0,-1.08 0.41,-1.83 0.43,-0.74 1.15,-1.2 0.72,-0.48 1.66,-0.67 0.96,-0.21 1.99,-0.21 0.48,0 1.01,0.1 0.52,0.1 1.12,0.19 v -0.48 q 0,-0.5 -0.12,-0.96 -0.12,-0.46 -0.43,-0.79 -0.29,-0.36 -0.79,-0.55 -0.48,-0.2 -1.22,-0.2 -1.01,0 -1.85,0.15 -0.84,0.14 -1.37,0.33 l -0.36,-2.35 q 0.55,-0.19 1.61,-0.38 1.05,-0.19 2.25,-0.19 z"/>
    <!--
    <text style="font-family:Ubuntu;font-size:24px;font-weight:500;text-anchor:middle" x="16" y="24">Aa</text>
    -->
  </g>  
</svg>
