<svg xmlns="http://www.w3.org/2000/svg" viewBox="0 0 32 32">
  <defs>
    <linearGradient id="background" x1="0" y1="0%" x2="0" y2="100%">
      <stop offset="0%" style="stop-color:#2196F3"/> <!-- Blue 500 -->
      <stop offset="100%" style="stop-color:#1976D2"/> <!-- Blue 700 -->
    </linearGradient>
    <style type="text/css">
      .symbol { fill: white }
      .lighten { fill: white; fill-opacity: 0.125 }
      .darken { fill: black; fill-opacity: 0.125 }
    </style>
  </defs>
  <g transform="translate(16,16)">
    <!-- Background -->
    <circle style="fill:url(#background)" r="13"/>

    <!-- Symbol -->
    <path class="symbol" transform="rotate(-45)"
          d="M 0,-11 a 8,8 0 0 0 0,16 a 8,8 0 0 0 0,-16
             m 0,2.5 a 5.5,5.5 0 0 1 0,11 a 5.5,5.5 0 0 1 0,-11
             M 1.25,6 l -1.25,-1.25 -1.25,1.25 v 6.94 a 13,13 0 0 0 2.5,0"/>

    <!-- Borders -->
    <path class="lighten" d="m 13,0 a 13,13 0 0 0 -26,0 a 13,12 0 0 1 26,0"/>
    <path class="darken" d="m 13,0 a 13,13 0 0 1 -26,0 a 13,12 0 0 0 26,0"/>
  </g>
</svg>
