<svg xmlns="http://www.w3.org/2000/svg" viewBox="0 0 32 32">
  <defs>
    <linearGradient id="compass-background" x1="0" y1="0%" x2="0" y2="100%">
      <stop offset="0%" style="stop-color:#616161"/> <!-- Gray 700 -->
      <stop offset="100%" style="stop-color:#424242"/> <!-- Gray 800 -->
    </linearGradient>
    <linearGradient id="compass-border" x1="0" y1="0%" x2="0" y2="100%">
      <stop offset="0%" style="stop-color:#BDBDBD"/> <!-- Gray 400 -->
      <stop offset="100%" style="stop-color:#9E9E9E"/> <!-- Gray 500 -->
    </linearGradient>
    <style type="text/css">
      .compass-needle-north { fill: #EF5350 /* Red 400 */ }
      .compass-needle-south { fill: white }
      .lighten { fill: white; fill-opacity: 0.125 }
      .darken { fill: black; fill-opacity: 0.125 }
      .darken-slightly { fill: black; fill-opacity: 0.0625 }
    </style>
  </defs>
  <g transform="translate(16,16)">
    <circle style="fill:url(#compass-background)" r="13"/>
    <path style="fill:url(#compass-border)" d="m 0,-13 a 13,13 0 0 0 0,26 a 13,13 0 0 0 0,-26 m 0,2 a 11,11 0 0 1 0,22 a 11,11 0 0 1 0,-22"/>
    <path class="lighten" d="m 13,0 a 13,13 0 0 0 -26,0 a 13,12 0 0 1 26,0"/>
    <path class="darken" d="m 13,0 a 13,13 0 0 1 -26,0 a 13,12 0 0 0 26,0"/>
    <path class="darken-slightly" d="m 11,0 a 11,11 0 0 0 -22,0 a 11,10 0 0 1 22,0"/>

    <g transform="rotate(-45)">
      <path class="darken" d="m -10,1 l 10,3.33 10,-3.33 -10,-3.33"/>
      <path class="compass-needle-south" d="m 0,-3.33 l -10,3.33 10,3.33"/>
      <path class="compass-needle-north" d="m 0,-3.33 l 10,3.33 -10,3.33"/>
      <path class="darken" d="m -10,0 l 10,3.33 10,-3.33"/>
    </g>
  </g>
</svg>
