<svg xmlns="http://www.w3.org/2000/svg" viewBox="0 0 32 32">
  <defs>
    <linearGradient id="document-background" x1="0%" y1="0%" x2="0%" y2="100%">
      <stop offset="0%" style="stop-color:#64B5F6"/> <!-- Blue 300 -->
      <stop offset="100%" style="stop-color:#1E88E5"/> <!-- Blue 600 -->
    </linearGradient>
    <linearGradient id="document-kinked-edge" x1="0%" y1="100%" x2="50%" y2="50%">
      <stop offset="0%" style="stop-color:white;stop-opacity:0.5"/>
      <stop offset="100%" style="stop-color:white;stop-opacity:0.25"/>
    </linearGradient>
    <linearGradient id="window-background" x1="0%" y1="0%" x2="0%" y2="100%">
      <stop offset="0%" style="stop-color:#E0E0E0"/> <!-- Gray 300 -->
      <stop offset="100%" style="stop-color:#BDBDBD"/> <!-- Gray 400 -->
    </linearGradient>
    <linearGradient id="titlebar-background" x1="0%" y1="0%" x2="0%" y2="100%">
      <stop offset="0%" style="stop-color:#9E9E9E"/> <!-- Gray 500 -->
      <stop offset="100%" style="stop-color:#757575"/> <!-- Gray 600 -->
    </linearGradient>
    <style type="text/css">
      .window-border { fill: none }
      .lighten { fill: white; fill-opacity: 0.125 }
      .darken { fill:black; fill-opacity: 0.125 }
    </style>
  </defs>

  <!-- Document -->
  <g transform="translate(-3,-1)">
    <path style="fill:url(#document-background)" d="m 8,3 a 2,2 0 0 0 -2,2 v 22 a 2,2 0 0 0 2,2 h 2 v -13 a 3,3 0 0 1 3,-3 h 13 v -2 l -8,-8 z"/>
    <g transform="translate(18,3)">
      <path style="fill:url(#document-kinked-edge)" d="m 0,0 v 6 a 2,2 0 0 0 2,2h 6 z"/>
      <path class="darken" d="m 0,0 l -1,1 v 6 a 3,3 0 0 0 3,3 h 4 l 2,-2 h -6 a 2,2 0 0 1 -2,-2"/>
      <path class="darken" d="m 0,6 v 1 a 2,2 0 0 0 2,2 h 5 l 1,-1 h -6 a 2,2 0 0 1 -2,-2 "/>
    </g>
    <path class="lighten" d="m 8,3 a 2,2 0 0 0 -2,2 a 2,1 0 0 1 2,-1 h 10 v -1 z"/>
    <path class="darken" d="m 8,28 a 2,1 0 0 1 -2,-1 a 2,2 0 0 0 2,2 h 2 v -1"/>
  </g>

  <!-- App -->
  <g transform="translate(9,14)">
    <path style="fill:url(#window-background)" d="m 1,0 a 1,1 0 0 0 -1,1 v 14 a 1,1 0 0 0 1,1 h 18 a 1,1 0 0 0 1,-1 v -14 a 1,1 0 0 0 -1,-1"/>
    <path class="window-border" d="m 1,4 h -1 v 11 a 1,1 0 0 0 1,1 h 18 a 1,1 0 0 0 1,-1 v -11 h -1 v 11 h -18 "/>
    <path style="fill:url(#titlebar-background)" d="m 1,0 a 1,1 0 0 0 -1,1 v 3 h 20 v -3 a 1,1 0 0 0 -1,-1"/>
    <path class="lighten" d="m 1,0 a 1,1 0 0 0 -1,1 h 20 a 1,1 0 0 0 -1,-1"/>
    <path class="darken" d="m 0,15 a 1,1 0 0 0 1,1 h 18 a 1,1 0 0 0 1,-1"/>
  </g>
</svg>
