<svg xmlns="http://www.w3.org/2000/svg" viewBox="0 0 32 32">
  <defs>
    <linearGradient id="window-background" x1="0%" y1="0%" x2="0%" y2="100%">
      <stop offset="0%" style="stop-color:#E0E0E0"/> <!-- Gray 300 -->
      <stop offset="100%" style="stop-color:#BDBDBD"/> <!-- Gray 400 -->
    </linearGradient>
    <linearGradient id="titlebar-background" x1="0%" y1="0%" x2="0%" y2="100%">
      <stop offset="0%" style="stop-color:#9E9E9E"/> <!-- Gray 500 -->
      <stop offset="100%" style="stop-color:#757575"/> <!-- Gray 600 -->
    </linearGradient>
    <linearGradient id="titlebar-button" x1="0%" y1="0%" x2="0%" y2="100%">
      <stop offset="0%" style="stop-color:#424242"/> <!-- Gray 800 -->
      <stop offset="100%" style="stop-color:#212121"/> <!-- Gray 900 -->
    </linearGradient>
    <linearGradient id="toolbar-background" x1="0%" y1="0%" x2="0%" y2="100%">
      <stop offset="0%" style="stop-color:#BDBDBD"/> <!-- Gray 500 -->
      <stop offset="100%" style="stop-color:#9E9E9E"/> <!-- Gray 600 -->
    </linearGradient>
    <linearGradient id="cookie" x1="0%" y1="0%" x2="0%" y2="100%">
      <stop offset="0%" style="stop-color:#BCAAA4"/> <!-- Brown 200 -->
      <stop offset="100%" style="stop-color:#8D6E63"/> <!-- Gray 400 -->
    </linearGradient>
    <linearGradient id="chocolate" x1="0%" y1="0%" x2="0%" y2="100%">
      <stop offset="0%" style="stop-color:#4E342E"/> <!-- Brown 800 -->
      <stop offset="100%" style="stop-color:black"/>
    </linearGradient>
    <style type="text/css">
      .window-border { fill: none }
      .toolbar-field { fill: #E0E0E0 }
      .lighten { fill: white; fill-opacity: 0.125 }
      .darken { fill: black; fill-opacity: 0.125 }
      .darken-very-strongly { fill: black; fill-opacity: 0.375 }
    </style>
  </defs>

  <!-- Web browser -->
  <path style="fill:url(#window-background)" d="m 4,4 a 2,2 0 0 0 -2,2 v 20 a 2,2 0 0 0 2,2 h 13.07 a 8,8 0 0 1 12.93,-9.29 v -12.71 a 2,2 0 0 0 -2,-2"/>
  <path class="window-border" d="m 3,16 h -1 v 10 a 2,2 0 0 0 2,2 h 13.07 a 8,8 0 0 1 -0.48,-1 h -12.59 a 1,1 0 0 1 -1,-1 z m 27,0 h -1 v 1.76 a 8,8 0 0 1 1,0.95"/>

  <path style="fill:url(#titlebar-background)" d="m 4,4 a 2,2 0 0 0 -2,2 v 4 h 28 v -4 a 2,2 0 0 0 -2,-2"/>
  <path style="fill:url(#titlebar-button)"
        d="M 4,7 a 1.5,1.5 0 0 1 3,0 a 1.5,1.5 0 0 1 -3,0
           m 4.5,0 a 1.5,1.5 0 0 1 3,0 a 1.5,1.5 0 0 1 -3,0
           m 4.5,0 a 1.5,1.5 0 0 1 3,0 a 1.5,1.5 0 0 1 -3,0"/>

  <path style="fill:url(#toolbar-background)" d="m 2,10 v 6 h 28 v -6"/>
  <path class="toolbar-field" d="m 8,11 a 1,1 0 0 0 -1,1 v 2 a 1,1 0 0 0 1,1 h 16 a 1,1 0 0 0 1,-1 v -2 a 1,1 0 0 0 -1,-1"/>
  <path class="darken-very-strongly" d="m 8,11 a 1,1 0 0 0 -1,1 h 18 a 1,1 0 0 0 -1,-1"/>

  <path class="lighten" d="m 4,4 a 2,2 0 0 0 -2,2 a 2,1 0 0 1 2,-1 h 24 a 2,1 0 0 1 2,1 a 2,2 0 0 0 -2,-2"/>
  <path class="darken" d="m 4,27 a 2,1 0 0 1 -2,-1 a 2,2 0 0 0 2,2 h 13.07 a 8,8 0 0 1 -0.48,-1"/>

  <!-- Cookie -->
  <g transform="translate(24,24)">
    <circle style="fill:url(#cookie)" r="6"/>
    <path class="lighten" d="m 6,0 a 6,6 0 0 0 -12,0 a 6,5 0 0 1 12,0"/>
    <path class="darken" d="m 6,0 a 6,6 0 0 1 -12,0 a 6,5 0 0 0 12,0"/>

    <g style="fill:url(#chocolate)">
      <path transform="translate(-2.5,1.5)" d="M 0,-1.5 a 1.5,1.5 0 0 1 0,3 a 1.5,1.5 0 0 1 0,-3"/>
      <path transform="translate(2.5,-1.5)" d="M 0,-1.5 a 1.5,1.5 0 0 1 0,3 a 1.5,1.5 0 0 1 0,-3"/>
      <path transform="translate(-1.5,-3)" d="M 0,-1 a 1,1 0 0 1 0,2 a 1,1 0 0 1 0,-2"/>
      <path transform="translate(1.5,3)" d="M 0,-1 a 1,1 0 0 1 0,2 a 1,1 0 0 1 0,-2"/>
    </g>
  </g>
</svg>
