<svg xmlns="http://www.w3.org/2000/svg" viewBox="0 0 32 32">
  <defs>
    <linearGradient id="window-background" x1="0%" y1="0%" x2="0%" y2="100%">
      <stop offset="0%" style="stop-color:#E0E0E0"/> <!-- Gray 300 -->
      <stop offset="100%" style="stop-color:#BDBDBD"/> <!-- Gray 400 -->
    </linearGradient>
    <linearGradient id="titlebar-background" x1="0%" y1="0%" x2="0%" y2="100%">
      <stop offset="0%" style="stop-color:#9E9E9E"/> <!-- Gray 500 -->
      <stop offset="100%" style="stop-color:#757575"/> <!-- Gray 600 -->
    </linearGradient>
    <style type="text/css">
      .window-border { fill: none }
      .lighten { fill: white; fill-opacity: 0.125 }
      .darken { fill: black; fill-opacity: 0.125 }
    </style>
  </defs>
  <g transform="translate(3,11)">
    <path style="fill:url(#window-background)" d="m 1,0 a 1,1 0 0 0 -1,1 v 14 a 1,1 0 0 0 1,1 h 18 a 1,1 0 0 0 1,-1 v -14 a 1,1 0 0 0 -1,-1"/>
    <path class="window-border" d="m 1,4 h -1 v 11 a 1,1 0 0 0 1,1 h 18 a 1,1 0 0 0 1,-1 v -11 h -1 v 11 h -18"/>
    <path style="fill:url(#titlebar-background)" d="m 1,0 a 1,1 0 0 0 -1,1 v 3 h 20 v -3 a 1,1 0 0 0 -1,-1"/>
    <path class="lighten" d="m 1,0 a 1,1 0 0 0 -1,1 h 20 a 1,1 0 0 0 -1,-1"/>
    <path class="darken" d="m 0,15 a 1,1 0 0 0 1,1 h 18 a 1,1 0 0 0 1,-1"/>
  </g>
  <g style="opacity:0.5" transform="translate(9,5)">
    <path style="fill:url(#window-background)" d="m 13,4 a 3,3 0 0 1 3,3 v 9 h 3 a 1,1 0 0 0 1,-1 v -11"/>
    <path class="window-border" d="m 16,15 v 1 h 3 a 1,1 0 0 0 1,-1 v -11 h -1 v 11"/>
    <path style="fill:url(#titlebar-background)" d="m 1,0 a 1,1 0 0 0 -1,1 v 3 h 20 v -3 a 1,1 0 0 0 -1,-1"/>
    <path class="lighten" d="m 1,0 a 1,1 0 0 0 -1,1 h 20 a 1,1 0 0 0 -1,-1"/>
    <path class="darken" d="m 16,15 v 1 h 3 a 1,1 0 0 0 1,-1"/>
  </g>
</svg>
