<svg xmlns="http://www.w3.org/2000/svg" viewBox="0 0 32 32">
  <defs>
    <linearGradient id="monitor-border" x1="0%" y1="0%" x2="0%" y2="100%">
      <stop offset="0%" style="stop-color:#BDBDBD"/> <!-- Gray 400 -->
      <stop offset="100%" style="stop-color:#9E9E9E"/> <!-- Gray 500 -->
    </linearGradient>
    <linearGradient id="screen" x1="0%" y1="0%" x2="0%" y2="100%">
      <stop offset="0%" style="stop-color:#616161"/> <!-- Gray 700 -->
      <stop offset="100%" style="stop-color:#212121"/> <!-- Gray 900 -->
    </linearGradient>
    <style type="text/css">
      .symbol { fill: #E0E0E0 }
      .monitor-stand { fill: #808080 }
      .darken-strongly { fill: black; fill-opacity: 0.25 }
    </style>
  </defs>

  <!-- Monitor -->
  <path style="fill:url(#monitor-border)" d="m 4,6 a 2,2 0 0 0 -2,2 v 16 a 2,2 0 0 0 2,2 h 24 a 2,2 0 0 0 2,-2 v -16 a 2,2 0 0 0 -2,-2 z m 0,2 h 24 v 16 h -24 z"/>
  <rect style="fill:url(#screen)" x="4" y="8" width="24" height="16"/>

  <path class="monitor-stand" d="m 10,26 v 1 a 2,2 0 0 0 2,2 h 8 a 2,2 0 0 0 2,-2 v -1"/>
  <rect class="darken-strongly" x="10" y="26" width="12" height="1"/>

  <!-- Symbol -->
  <g class="symbol">
    <path d="m 10,16 a 2,2 0 0 1 2,-2 v -1 a 4,4 0 0 1 8,0 v 1 a 2,2 0 0 1 2,2 v 4 a 2,2 0 0 1 -2,2 h -8 a 2,2 0 0 1 -2,-2 z m 4,-2 h 4 v -1 a 2,2 0 0 0 -4,0 z m 2,2.5 a 1.5,1.5 0 0 0 0,3 a 1.5,1.5 0 0 0 0,-3 z"/>
  </g>
</svg>
