<svg xmlns="http://www.w3.org/2000/svg" viewBox="0 0 32 32">
  <defs>
    <linearGradient id="window-background" x1="0%" y1="0%" x2="0%" y2="100%">
      <stop offset="0%" style="stop-color:#E0E0E0"/> <!-- Gray 300 -->
      <stop offset="100%" style="stop-color:#BDBDBD"/> <!-- Gray 400 -->
    </linearGradient>
    <linearGradient id="titlebar-background" x1="0%" y1="0%" x2="0%" y2="100%">
      <stop offset="0%" style="stop-color:#9E9E9E"/> <!-- Gray 500 -->
      <stop offset="100%" style="stop-color:#757575"/> <!-- Gray 600 -->
    </linearGradient>
    <linearGradient id="titlebar-button" x1="0%" y1="0%" x2="0%" y2="100%">
      <stop offset="0%" style="stop-color:#424242"/> <!-- Gray 800 -->
      <stop offset="100%" style="stop-color:#212121"/> <!-- Gray 900 -->
    </linearGradient>
    <linearGradient id="toolbar-background" x1="0%" y1="0%" x2="0%" y2="100%">
      <stop offset="0%" style="stop-color:#BDBDBD"/> <!-- Gray 500 -->
      <stop offset="100%" style="stop-color:#9E9E9E"/> <!-- Gray 600 -->
    </linearGradient>
    <linearGradient id="keyboard-surface" x1="0%" y1="0%" x2="0%" y2="100%">
      <stop offset="0%" style="stop-color:#E0E0E0"/> <!-- Gray 300 -->
      <stop offset="100%" style="stop-color:#9E9E9E"/> <!-- Gray 500 -->
    </linearGradient>
    <style type="text/css">
      .window-border { fill: none }
      .toolbar-field { fill: #E0E0E0 }
      .keyboard-keys { fill: #212121 }
      .lighten { fill: white; fill-opacity: 0.125 }
      .darken { fill: black; fill-opacity: 0.125 }
      .darken-very-strongly { fill: black; fill-opacity: 0.375 }
    </style>
  </defs>

  <!-- Web browser -->
  <path style="fill:url(#window-background)" d="M 4 4 A 2 2 0 0 0 2 6 L 2 26 A 2 2 0 0 0 4 28 L 10 28 L 10 19 A 3 3 0 0 1 13 16 L 29 16 A 3 3 0 0 1 30 16.18 L 30 6 A 2 2 0 0 0 28 4 L 4 4 z"/>
  <path class="window-border" d="M 2 10 L 2 26 A 2 2 0 0 0 4 28 L 10 28 L 10 27 L 4 27 A 1 1 0 0 1 3 26 L 3 10 L 2 10 z M 29 10 L 29 16 A 3 3 0 0 1 30 16.18 L 30 10 L 29 10 z "/>

  <path style="fill:url(#titlebar-background)" d="m 4,4 a 2,2 0 0 0 -2,2 v 4 h 28 v -4 a 2,2 0 0 0 -2,-2"/>
  <path style="fill:url(#titlebar-button)"
        d="M 4,7 a 1.5,1.5 0 0 1 3,0 a 1.5,1.5 0 0 1 -3,0
           m 4.5,0 a 1.5,1.5 0 0 1 3,0 a 1.5,1.5 0 0 1 -3,0
           m 4.5,0 a 1.5,1.5 0 0 1 3,0 a 1.5,1.5 0 0 1 -3,0"/>

  <path style="fill:url(#toolbar-background)" d="m 2,10 v 6 h 28 v -6"/>
  <path class="toolbar-field" d="m 8,11 a 1,1 0 0 0 -1,1 v 2 a 1,1 0 0 0 1,1 h 16 a 1,1 0 0 0 1,-1 v -2 a 1,1 0 0 0 -1,-1"/>
  <path class="darken-very-strongly" d="m 8,11 a 1,1 0 0 0 -1,1 h 18 a 1,1 0 0 0 -1,-1"/>

  <path class="lighten" d="m 4,4 a 2,2 0 0 0 -2,2 a 2,1 0 0 1 2,-1 h 24 a 2,1 0 0 1 2,1 a 2,2 0 0 0 -2,-2"/>
  <path class="darken" d="M 2 26 A 2 2 0 0 0 4 28 L 10 28 L 10 27 L 4 27 A 2 1 0 0 1 2 26 z "/>

  <!-- Keyboard -->
  <path style="fill:url(#keyboard-surface)"
        d="M 13,18 a 1,1 0 0 0 -1,1 v 10 a 1,1 0 0 0 1,1 h 16 a 1,1 0 0 0 1,-1 v -10 a 1,1 0 0 0 -1,-1"/>
  <path class="keyboard-keys"
        d="M 14,20 l 2 0 0 2 -2 0 0 -2 m 3,0 l 2 0 0 2 -2 0 0 -2 m 3,0 l 2 0 0 2 -2 0 0 -2 m 3,0 l 2 0 0 2 -2 0 0 -2 m 3,0 l 2 0 0 2 -2 0 0 -2
           M 14,23 l 2 0 0 2 -2 0 0 -2 m 3,0 l 2 0 0 2 -2 0 0 -2 m 3,0 l 2 0 0 2 -2 0 0 -2 m 3,0 l 2 0 0 2 -2 0 0 -2 m 3,0 l 2 0 0 2 -2 0 0 -2
           M 17,26 l 8 0 0 2 -8 0"/>
</svg>
