<svg xmlns="http://www.w3.org/2000/svg" viewBox="0 0 24 24">
  <defs>
    <style id="current-color-scheme" type="text/css">
      .ColorScheme-Text { color: #D8D8D8 }
    </style>
  </defs>
  <g class="ColorScheme-Text" style="fill:currentColor" transform="rotate(90,12,12)">
    <!-- vertical_align_center (rounded) -->
    <path d="M9.21 19H11v3c0 .55.45 1 1 1s1-.45 1-1v-3h1.79c.45 0 .67-.54.35-.85l-2.79-2.79c-.2-.2-.51-.2-.71 0l-2.79 2.79c-.31.31-.09.85.36.85zm5.58-14H13V2c0-.55-.45-1-1-1s-1 .45-1 1v3H9.21c-.45 0-.67.54-.36.85l2.79 2.79c.2.2.51.2.71 0l2.79-2.79c.32-.31.1-.85-.35-.85zM4 12c0 .55.45 1 1 1h14c.55 0 1-.45 1-1s-.45-1-1-1H5c-.55 0-1 .45-1 1z"/>
  </g>
</svg>
