<svg xmlns="http://www.w3.org/2000/svg" viewBox="0 0 22 22">
  <defs>
    <style id="current-color-scheme" type="text/css">
      .ColorScheme-Text { color: #D8D8D8 }
    </style>
  </defs>
  <g transform="translate(-1,-1)">
    <path class="ColorScheme-Text" style="fill:currentColor"
          d="M 12,21 h 8 a 2,2 0 0 0 1.73,-3 l -8,-13.83 a 2,2 0 0 0 -3.46,0 l -8,13.83 a 2,2 0 0 0 1.73,3
             M 10.5,8.5 a 1.5,1.5 0 0 1 3,0 v 4 a 1.5,1.5 0 0 1 -3,0
             M 12,16 a 1.5,1.5 0 0 1 0,3 a 1.5,1.5 0 0 1 0,-3"/>
  </g>
</svg>
