<svg xmlns="http://www.w3.org/2000/svg" viewBox="0 0 22 22">
  <defs>
    <style id="current-color-scheme" type="text/css">
      .ColorScheme-Text { color: #D8D8D8 }
    </style>
  </defs>
  <g class="ColorScheme-Text" style="fill:currentColor" transform="translate(-1,-1)">
    <!-- Harddisk -->
    <path style="fill-opacity:0.75" d="M 4.914 4 C 4.464 4 3.994 4.5 3.914 5 L 2.176 15.45 A 1 1 0 0 1 3 15 L 12.13 15 A 8 8 0 0 1 8 8 A 8 8 0 0 1 9.08 4 L 4.914 4 z M 21.54 13.77 A 8 8 0 0 1 19.85 15 L 21 15 A 1 1 0 0 1 21.82 15.45 L 21.54 13.77 z "/>
    <path d="m 3,16 a 1,1 0 0 0 -1,1 v 2 a 1,1 0 0 0 1,1 h 18 a 1,1 0 0 0 1,-1 v -2 a 1,1 0 0 0 -1,-1 z m 2,1 a 1,1 0 0 1 0,2 a 1,1 0 0 1 0,-2"/>

    <!-- Pie chart -->
    <path d="m 16,2 a 6,6 0 0 0 0,12 a 6,6 0 0 0 0,-12 m 0,2 v 4 h 4 a 4,4 0 0 1 -4,4 a 4,4 0 0 1 0,-8"/>
  </g>
</svg>
