<svg xmlns="http://www.w3.org/2000/svg" viewBox="0 0 24 24">
  <defs>
    <style id="current-color-scheme" type="text/css">
      .ColorScheme-Text { color: #D8D8D8 }
    </style>
  </defs>
  <g class="ColorScheme-Text" style="fill:currentColor" transform="translate(-1,-1)">
    <path style="opacity:0.5" d="M 7.209 3 L 21 16.79 L 21 5 A 2 2 0 0 0 19 3 L 7.209 3 z M 3.064 4.496 A 2 2 0 0 0 3 5 L 3 19 A 2 2 0 0 0 5 21 L 19 21 A 2 2 0 0 0 19.5 20.93 L 17.57 19 L 13 19 L 13 16 L 14.57 16 L 3.064 4.496 z M 5 16 L 11 16 L 11 19 L 5 19 L 5 16 z"/>
    <path d="m 4.54,3.13 a 0.5,0.5 0 0 0 -1.41,1.41 l 16.33,16.33 a 0.5,0.5 0 0 0 1.41,-1.41 z"/>
  </g>
</svg>
