<svg xmlns="http://www.w3.org/2000/svg" viewBox="0 0 22 22">
  <defs>
    <style id="current-color-scheme" type="text/css">
      .ColorScheme-Text { color: #D8D8D8 }
    </style>
  </defs>
  <g class="ColorScheme-Text" style="fill:currentColor" transform="translate(-1,-1)">
    <!-- mic (rounded) -->
    <path style="fill-opacity:0.5" d="m 9,5 a 3,3 0 0 1 3,-3 a 3,3 0 0 1 3,3 v 6 a 3,3 0 0 1 -3,3 a 3,3 0 0 1 -3,-3 z"/>
    <path d="m 9,11 h 6 a 3,3 0 0 1 -3,3 a 3,3 0 0 1 -3,-3 z"/>
    <path d="m 18,11 c -0.49,0 -0.9,0.36 -0.98,0.85 -0.41,2.35 -2.46,4.15 -4.93,4.15 -2.47,0 -4.52,-1.8 -4.93,-4.15 -0.08,-0.49 -0.49,-0.85 -0.98,-0.85 -0.61,0 -1.09,0.54 -1,1.14 0.49,3 2.89,5.35 5.91,5.78 v 2.08 c 0,0.55 0.45,1 1,1 0.55,0 1,-0.45 1,-1 v -2.08 c 3.02,-0.43 5.42,-2.78 5.91,-5.78 0.1,-0.6 -0.39,-1.14 -1,-1.14 z"/>
  </g>
</svg>
