<svg xmlns="http://www.w3.org/2000/svg" viewBox="0 0 32 32">
  <defs>
    <linearGradient id="light-background-overlay" x1="0%" y1="0%" x2="0%" y2="100%">
      <stop offset="0%" style="stop-color:white;stop-opacity:0.125"/>
      <stop offset="100%" style="stop-color:white;stop-opacity:0"/>
    </linearGradient>
    <linearGradient id="kinked-edge" x1="0%" y1="100%" x2="50%" y2="50%">
      <stop offset="0%" style="stop-color:white;stop-opacity:0.5"/>
      <stop offset="100%" style="stop-color:white;stop-opacity:0.25"/>
    </linearGradient>
    <style type="text/css">
      .document-background-1 { fill: #2196F3 /* Blue 500 */ }
      .document-background-2 { fill: #1976D2 /* Blue 700 */ }
      .symbol-1 { fill: white }
      .symbol-2 { fill: #BBDEFB /* Blue 100 */ }
      .lighten { fill: white; fill-opacity: 0.125 }
      .darken { fill:black; fill-opacity: 0.125 }
    </style>
  </defs>

  <!-- Document -->
  <path class="document-background-1" d="m 8,3 a 2,2 0 0 0 -2,2 v 22 a 2,2 0 0 0 2,2 h 16 a 2,2 0 0 0 2,-2 v -16 l -8,-8 z"/>
  <path class="document-background-2" d="m 26,11 v 16 a 2,2 0 0 1 -2,2 h -13.2 l 10.4,-18"/>
  <path style="fill:url(#light-background-overlay)" d="m 8,3 a 2,2 0 0 0 -2,2 v 22 a 2,2 0 0 0 2,2 h 16 a 2,2 0 0 0 2,-2 v -16 h -6 a 2,2 0 0 1 -2,-2 v -6"/>
  <path class="lighten" d="m 8,3 a 2,2 0 0 0 -2,2 a 2,1 0 0 1 2,-1 h 10 v -1 z"/>
  <path class="darken" d="m 8,28 a 2,1 0 0 1 -2,-1 a 2,2 0 0 0 2,2 h 16 a 2,2 0 0 0 2,-2 a 2,1 0 0 1 -2,1"/>

  <g transform="translate(18,3)">
    <path style="fill:url(#kinked-edge)" d="m 0,0 v 6 a 2,2 0 0 0 2,2h 6 z"/>
    <path class="darken" d="m 0,0 l -1,1 v 6 a 3,3 0 0 0 3,3 h 4 l 2,-2 h -6 a 2,2 0 0 1 -2,-2"/>
    <path class="darken" d="m 0,6 v 1 a 2,2 0 0 0 2,2 h 5 l 1,-1 h -6 a 2,2 0 0 1 -2,-2 "/>
  </g>

  <!-- Symbol -->
  <g transform="translate(8,12)">
    <g transform="translate(8,8)">
      <path class="symbol-1" d="M 3,-5.2 A 6,6 0 1 0 -3,5.2 L -2,3.5 A 4,4 0 1 1 2,-3.5"/>
      <path class="symbol-2" d="M -3,5.2 A 6,6 0 0 0 3,5.2 L 2,3.5 A 4,4 0 0 1 -2,3.5"/>
      <path class="symbol-1" d="M -0.75,1.3 0.75,-1.3 0.75,-2.25 -0.75,-2.25 -0.75,-0.75 -2.25,-0.75 -2.25,0.75 -0.75,0.75"/>
      <path class="symbol-2" d="M -0.75,1.3 0.75,-1.3 0.75,-0.75 2.25,-0.75 2.25,0.75 0.75,0.75 0.75,2.25 -0.75,2.25"/>
    </g>
    <path class="symbol-2" d="M 13,5.75 v 1.5 h -1.5 v 1.5 h 1.5 v 1.5 h 1.5 v -1.5 h 1.5 v -1.5 h -1.5 v -1.5"/>
  </g>
</svg>
