<svg xmlns="http://www.w3.org/2000/svg" viewBox="0 0 32 32">
  <defs>
    <linearGradient id="cover" x1="0" y1="0%" x2="0" y2="100%">
      <stop offset="0%" style="stop-color:#6D4C41"/> <!-- Brown 600 -->
      <stop offset="100%" style="stop-color:#5D4037"/> <!-- Brown 700 -->
    </linearGradient>
    <style type="text/css">
      .tab1 { fill: #FFCA28 } /* Amber 400 */
      .tab2 { fill: #9CCC65 } /* Light green 400 */
      .tab3 { fill: #5C6BC0 } /* Indigo 400 */
      .lighten { fill: white; fill-opacity: 0.125 }
      .darken { fill: black; fill-opacity: 0.125 }
      .darken-strongly { fill: black; fill-opacity: 0.25 }
    </style>
  </defs>

  <!-- Cover -->
  <path style="fill:url(#cover)" d="M 7,3 a 1,1 0 0 0 -1,1 v 24 a 1,1 0 0 0 1,1 h 16 v -19 h 3 v -5 a 2,2 0 0 0 -2,-2"/>
  <path class="lighten" d="m 7,3 a 1,1 0 0 0 -1,1  h 18 a 2,1 0 0 1 2,1 a 2,2 0 0 0 -2,-2"/>
  <path class="darken" d="m 6,28 a 1,1 0 0 0 1,1 h 16 v -1"/>

  <!-- Tabs -->
  <g transform="translate(23,9.5)">
    <rect class="tab1" width="3" height="6.5"/>
    <rect class="tab2" y="6.5" width="3" height="6.5"/>
    <path class="tab3" d="m 0,13 v 6.5 h 1 a 2,2 0 0 0 2,-2 v -4.5"/>

    <rect class="darken" y="6.5" width="3" height="1"/>
    <rect class="darken" y="13" width="3" height="1"/>
    <path class="darken-strongly" d="m 0,0 v 19.5 h 1 v -18.5 h 2 v -1"/>
  </g>
</svg>
