<svg xmlns="http://www.w3.org/2000/svg" viewBox="0 0 32 32">
  <defs>
    <linearGradient id="binding" x1="0%" y1="0%" x2="0%" y2="100%">
      <stop offset="0%" style="stop-color:#E53935"/> <!-- Red 600 -->
      <stop offset="100%" style="stop-color:#D32F2F"/> <!-- Red 700 -->
    </linearGradient>
    <linearGradient id="sheet" x1="0%" y1="0%" x2="0%" y2="100%">
      <stop offset="0%" style="stop-color:#EEEEEE"/> <!-- Gray 200 -->
      <stop offset="100%" style="stop-color:#E0E0E0"/> <!-- Gray 300 -->
    </linearGradient>
    <style type="text/css">
      .sheet-border { fill: #BDBDBD /* Gray 400 */ }
      .date { fill: #616161 /* Gray 800 */ }
      .lighten-strongly { fill: white; fill-opacity: 0.25 }
      .darken { fill:black; fill-opacity: 0.125 }
    </style>
  </defs>
  <path style="fill:url(#binding)" d="m 6,4 a 2,2 0 0 0 -2,2 v 5 h 24 v -5 a 2,2 0 0 0 -2,-2"/>
  <path class="lighten-strongly" d="m 6,4 a 2,2 0 0 0 -2,2 a 2,1 0 0 1 2,-1 h 20 a 2,1 0 0 1 2,1 a 2,2 0 0 0 -2,-2"/>

  <path style="fill:url(#sheet)" d="m 4,11 v 15 a 2,2 0 0 0 2,2 h 20 a 2,2 0 0 0 2,-2 v -15"/>
  <path class="sheet-border" d="m 4,11 v 15 a 2,2 0 0 0 2,2 h 20 a 2,2 0 0 0 2,-2 v -15 h -1 v 15 a 1,1 0 0 1 -1,1 h -20 a 1,1 0 0 1 -1,-1 v -15"/>
  <path class="darken" d="m 6,27 a 2,1 0 0 1 -2,-1 a 2,2 0 0 0 2,2 h 20 a 2,2 0 0 0 2,-2 a 2,1 0 0 1 -2,1"/>
  <rect class="darken" x="4" y="10" width="24" height="2"/>

  <path class="date" d="m 13,16.31 q 0.41,-0.16 0.84,-0.37 0.45,-0.23 0.87,-0.48 0.42,-0.27 0.8,-0.55 0.39,-0.29 0.7,-0.61 h 1.46 v 9.7 h -2.09 v -6.99 q -0.42,0.28 -0.94,0.52 -0.52,0.23 -1.01,0.39 z"/>
  <!--
  <text class="date" style="font-family:Ubuntu;font-size:14px;font-weight:bold;text-anchor:middle" x="16" y="24">1</text>
  -->
</svg>
