<svg xmlns="http://www.w3.org/2000/svg" viewBox="0 0 22 22">
  <defs>
    <style id="current-color-scheme" type="text/css">
      .ColorScheme-Text { color: #D8D8D8 }
    </style>
  </defs>
  <g transform="translate(-1,-1)">
    <path class="ColorScheme-Text" style="fill:currentColor"
          d="M 4,4 a 2,2 0 0 0 -2,2 v 12 a 2,2 0 0 0 2,2 h 16 a 2,2 0 0 0 2,-2 v -12 a 2,2 0 0 0 -2,-2 h -3 l -2,-2 h -6 l -2,2
             M 12,6 a 6,6 0 0 1 0,12 a 6,6 0 0 1 0,-12
             M 12,8 a 4,4 0 0 0 0,8 a 4,4 0 0 0 0,-8"/>
    </g>
</svg>
